solid D65A
facet normal -8.805844231574156e-08 5.597766175924335e-06 -1
  outer loop
    vertex 7.499983787536621 56.24278259277344 0.9999583959579468
    vertex 26.14156532287598 59.53900527954102 1.000009059906006
    vertex 86.49998474121094 56.24279403686523 0.9999514818191528
  endloop
endfacet
facet normal -8.805844231574156e-08 5.597766175924335e-06 -1
  outer loop
    vertex 26.14156532287598 59.53900527954102 1.000009059906006
    vertex 7.499983787536621 56.24278259277344 0.9999583959579468
    vertex 25.75333786010742 59.59011840820312 1.000009298324585
  endloop
endfacet
facet normal -8.805844231574156e-08 5.597766175924335e-06 -1
  outer loop
    vertex 25.75333786010742 59.59011840820312 1.000009298324585
    vertex 7.499983787536621 56.24278259277344 0.9999583959579468
    vertex 25.39156532287598 59.73996734619141 1.000010251998901
  endloop
endfacet
facet normal -8.805844231574156e-08 5.597766175924335e-06 -1
  outer loop
    vertex 25.39156532287598 59.73996734619141 1.000010251998901
    vertex 7.499983787536621 56.24278259277344 0.9999583959579468
    vertex 25.08090591430664 59.97834396362305 1.000011563301086
  endloop
endfacet
facet normal -8.805844231574156e-08 5.597766175924335e-06 -1
  outer loop
    vertex 25.08090591430664 59.97834396362305 1.000011563301086
    vertex 7.499983787536621 56.24278259277344 0.9999583959579468
    vertex 7.499993324279785 77.24278259277344 1.000075936317444
  endloop
endfacet
facet normal -8.805844231574156e-08 5.597766175924335e-06 -1
  outer loop
    vertex 25.08090591430664 59.97834396362305 1.000011563301086
    vertex 7.499993324279785 77.24278259277344 1.000075936317444
    vertex 24.84252738952637 60.28900527954102 1.00001335144043
  endloop
endfacet
facet normal -8.805844231574156e-08 5.597766175924335e-06 -1
  outer loop
    vertex 24.84252738952637 60.28900527954102 1.00001335144043
    vertex 7.499993324279785 77.24278259277344 1.000075936317444
    vertex 24.69267654418945 60.65077590942383 1.000015377998352
  endloop
endfacet
facet normal -8.805844231574156e-08 5.597766175924335e-06 -1
  outer loop
    vertex 24.69267654418945 60.65077590942383 1.000015377998352
    vertex 7.499993324279785 77.24278259277344 1.000075936317444
    vertex 24.64156532287598 61.03900527954102 1.000017523765564
  endloop
endfacet
facet normal -8.805844231574156e-08 5.597766175924335e-06 -1
  outer loop
    vertex 24.64156532287598 61.03900527954102 1.000017523765564
    vertex 7.499993324279785 77.24278259277344 1.000075936317444
    vertex 24.69267654418945 61.4272346496582 1.000019669532776
  endloop
endfacet
facet normal -8.805844231574156e-08 5.597766175924335e-06 -1
  outer loop
    vertex 24.69267654418945 61.4272346496582 1.000019669532776
    vertex 7.499993324279785 77.24278259277344 1.000075936317444
    vertex 24.84252738952637 61.78900527954102 1.000021696090698
  endloop
endfacet
facet normal -8.805844231574156e-08 5.597766175924335e-06 -1
  outer loop
    vertex 24.84252738952637 61.78900527954102 1.000021696090698
    vertex 7.499993324279785 77.24278259277344 1.000075936317444
    vertex 25.08090591430664 62.09966659545898 1.000023484230042
  endloop
endfacet
facet normal -8.805844231574156e-08 5.597766175924335e-06 -1
  outer loop
    vertex 25.08090591430664 62.09966659545898 1.000023484230042
    vertex 7.499993324279785 77.24278259277344 1.000075936317444
    vertex 25.39156532287598 62.33804321289062 1.000024795532227
  endloop
endfacet
facet normal -8.805844231574156e-08 5.597766175924335e-06 -1
  outer loop
    vertex 25.39156532287598 62.33804321289062 1.000024795532227
    vertex 7.499993324279785 77.24278259277344 1.000075936317444
    vertex 25.75333786010742 62.48789596557617 1.000025510787964
  endloop
endfacet
facet normal -8.805844231574156e-08 5.597766175924335e-06 -1
  outer loop
    vertex 25.75333786010742 62.48789596557617 1.000025510787964
    vertex 7.499993324279785 77.24278259277344 1.000075936317444
    vertex 26.14156532287598 62.53900527954102 1.000025868415833
  endloop
endfacet
facet normal -8.805844231574156e-08 5.597766175924335e-06 -1
  outer loop
    vertex 26.14156532287598 62.53900527954102 1.000025868415833
    vertex 7.499993324279785 77.24278259277344 1.000075936317444
    vertex 64.85010528564453 62.53940963745117 1.000022411346436
  endloop
endfacet
facet normal -8.805844231574156e-08 5.597766175924335e-06 -1
  outer loop
    vertex 64.85010528564453 62.53940963745117 1.000022411346436
    vertex 7.499993324279785 77.24278259277344 1.000075936317444
    vertex 65.1607666015625 62.77778625488281 1.000023722648621
  endloop
endfacet
facet normal -8.805844231574156e-08 5.597766175924335e-06 -1
  outer loop
    vertex 65.1607666015625 62.77778625488281 1.000023722648621
    vertex 7.499993324279785 77.24278259277344 1.000075936317444
    vertex 65.52253723144531 62.92763900756836 1.000024557113647
  endloop
endfacet
facet normal -8.805844231574156e-08 5.597766175924335e-06 -1
  outer loop
    vertex 65.52253723144531 62.92763900756836 1.000024557113647
    vertex 7.499993324279785 77.24278259277344 1.000075936317444
    vertex 65.9107666015625 62.9787483215332 1.000024795532227
  endloop
endfacet
facet normal -8.805844231574156e-08 5.597766175924335e-06 -1
  outer loop
    vertex 86.49998474121094 56.24279403686523 0.9999514818191528
    vertex 66.97142791748047 60.41808700561523 1.000010371208191
    vertex 86.49999237060547 77.24279022216797 1.00006902217865
  endloop
endfacet
facet normal -8.805844231574156e-08 5.597766175924335e-06 -1
  outer loop
    vertex 66.97142791748047 60.41808700561523 1.000010371208191
    vertex 86.49998474121094 56.24279403686523 0.9999514818191528
    vertex 66.6607666015625 60.17971038818359 1.000009059906006
  endloop
endfacet
facet normal -8.805844231574156e-08 5.597766175924335e-06 -1
  outer loop
    vertex 66.6607666015625 60.17971038818359 1.000009059906006
    vertex 86.49998474121094 56.24279403686523 0.9999514818191528
    vertex 66.29899597167969 60.02986145019531 1.000008225440979
  endloop
endfacet
facet normal -8.805844231574156e-08 5.597766175924335e-06 -1
  outer loop
    vertex 66.29899597167969 60.02986145019531 1.000008225440979
    vertex 86.49998474121094 56.24279403686523 0.9999514818191528
    vertex 65.9107666015625 59.9787483215332 1.0000079870224
  endloop
endfacet
facet normal -8.805844231574156e-08 5.597766175924335e-06 -1
  outer loop
    vertex 65.9107666015625 59.9787483215332 1.0000079870224
    vertex 86.49998474121094 56.24279403686523 0.9999514818191528
    vertex 26.14156532287598 59.53900527954102 1.000009059906006
  endloop
endfacet
facet normal -8.805844231574156e-08 5.597766175924335e-06 -1
  outer loop
    vertex 65.9107666015625 59.9787483215332 1.0000079870224
    vertex 26.14156532287598 59.53900527954102 1.000009059906006
    vertex 26.52979469299316 59.59011840820312 1.000009298324585
  endloop
endfacet
facet normal -8.805844231574156e-08 5.597766175924335e-06 -1
  outer loop
    vertex 65.9107666015625 59.9787483215332 1.0000079870224
    vertex 26.52979469299316 59.59011840820312 1.000009298324585
    vertex 26.89156532287598 59.73996734619141 1.000010132789612
  endloop
endfacet
facet normal -8.805844231574156e-08 5.597766175924335e-06 -1
  outer loop
    vertex 65.9107666015625 59.9787483215332 1.0000079870224
    vertex 26.89156532287598 59.73996734619141 1.000010132789612
    vertex 27.20222663879395 59.97834396362305 1.000011444091797
  endloop
endfacet
facet normal -8.805844231574156e-08 5.597766175924335e-06 -1
  outer loop
    vertex 86.49999237060547 77.24279022216797 1.00006902217865
    vertex 66.97142791748047 60.41808700561523 1.000010371208191
    vertex 67.20980834960938 60.7287483215332 1.000012040138245
  endloop
endfacet
facet normal -8.805844231574156e-08 5.597766175924335e-06 -1
  outer loop
    vertex 86.49999237060547 77.24279022216797 1.00006902217865
    vertex 67.20980834960938 60.7287483215332 1.000012040138245
    vertex 67.35965728759766 61.09051895141602 1.000014066696167
  endloop
endfacet
facet normal -8.805844231574156e-08 5.597766175924335e-06 -1
  outer loop
    vertex 86.49999237060547 77.24279022216797 1.00006902217865
    vertex 67.35965728759766 61.09051895141602 1.000014066696167
    vertex 67.4107666015625 61.4787483215332 1.000016212463379
  endloop
endfacet
facet normal -8.805844231574156e-08 5.597766175924335e-06 -1
  outer loop
    vertex 86.49999237060547 77.24279022216797 1.00006902217865
    vertex 67.4107666015625 61.4787483215332 1.000016212463379
    vertex 67.35965728759766 61.86697769165039 1.00001847743988
  endloop
endfacet
facet normal -8.805844231574156e-08 5.597766175924335e-06 -1
  outer loop
    vertex 86.49999237060547 77.24279022216797 1.00006902217865
    vertex 67.35965728759766 61.86697769165039 1.00001847743988
    vertex 67.20980834960938 62.2287483215332 1.000020503997803
  endloop
endfacet
facet normal -8.805844231574156e-08 5.597766175924335e-06 -1
  outer loop
    vertex 86.49999237060547 77.24279022216797 1.00006902217865
    vertex 67.20980834960938 62.2287483215332 1.000020503997803
    vertex 66.97142791748047 62.53940963745117 1.000022172927856
  endloop
endfacet
facet normal -8.805844231574156e-08 5.597766175924335e-06 -1
  outer loop
    vertex 86.49999237060547 77.24279022216797 1.00006902217865
    vertex 66.97142791748047 62.53940963745117 1.000022172927856
    vertex 66.6607666015625 62.77778625488281 1.000023603439331
  endloop
endfacet
facet normal -8.805844231574156e-08 5.597766175924335e-06 -1
  outer loop
    vertex 86.49999237060547 77.24279022216797 1.00006902217865
    vertex 66.6607666015625 62.77778625488281 1.000023603439331
    vertex 66.29899597167969 62.92763900756836 1.000024437904358
  endloop
endfacet
facet normal -8.805844231574156e-08 5.597766175924335e-06 -1
  outer loop
    vertex 86.49999237060547 77.24279022216797 1.00006902217865
    vertex 66.29899597167969 62.92763900756836 1.000024437904358
    vertex 65.9107666015625 62.9787483215332 1.000024795532227
  endloop
endfacet
facet normal -8.805844231574156e-08 5.597766175924335e-06 -1
  outer loop
    vertex 86.49999237060547 77.24279022216797 1.00006902217865
    vertex 65.9107666015625 62.9787483215332 1.000024795532227
    vertex 7.499993324279785 77.24278259277344 1.000075936317444
  endloop
endfacet
facet normal -8.805844231574156e-08 5.597766175924335e-06 -1
  outer loop
    vertex 27.44060325622559 60.28900527954102 1.000013113021851
    vertex 65.9107666015625 59.9787483215332 1.0000079870224
    vertex 27.20222663879395 59.97834396362305 1.000011444091797
  endloop
endfacet
facet normal -8.805844231574156e-08 5.597766175924335e-06 -1
  outer loop
    vertex 65.9107666015625 59.9787483215332 1.0000079870224
    vertex 27.44060325622559 60.28900527954102 1.000013113021851
    vertex 65.52253723144531 60.02986145019531 1.000008344650269
  endloop
endfacet
facet normal -8.805844231574156e-08 5.597766175924335e-06 -1
  outer loop
    vertex 65.52253723144531 60.02986145019531 1.000008344650269
    vertex 27.44060325622559 60.28900527954102 1.000013113021851
    vertex 65.1607666015625 60.17971038818359 1.000009179115295
  endloop
endfacet
facet normal -8.805844231574156e-08 5.597766175924335e-06 -1
  outer loop
    vertex 65.1607666015625 60.17971038818359 1.000009179115295
    vertex 27.44060325622559 60.28900527954102 1.000013113021851
    vertex 64.85010528564453 60.41808700561523 1.00001049041748
  endloop
endfacet
facet normal -8.805844231574156e-08 5.597766175924335e-06 -1
  outer loop
    vertex 64.85010528564453 60.41808700561523 1.00001049041748
    vertex 27.44060325622559 60.28900527954102 1.000013113021851
    vertex 27.5904541015625 60.65077590942383 1.000015139579773
  endloop
endfacet
facet normal -8.805844231574156e-08 5.597766175924335e-06 -1
  outer loop
    vertex 64.85010528564453 60.41808700561523 1.00001049041748
    vertex 27.5904541015625 60.65077590942383 1.000015139579773
    vertex 64.61173248291016 60.7287483215332 1.000012278556824
  endloop
endfacet
facet normal -8.805844231574156e-08 5.597766175924335e-06 -1
  outer loop
    vertex 64.61173248291016 60.7287483215332 1.000012278556824
    vertex 27.5904541015625 60.65077590942383 1.000015139579773
    vertex 27.64156532287598 61.03900527954102 1.000017285346985
  endloop
endfacet
facet normal -8.805844231574156e-08 5.597766175924335e-06 -1
  outer loop
    vertex 64.61173248291016 60.7287483215332 1.000012278556824
    vertex 27.64156532287598 61.03900527954102 1.000017285346985
    vertex 64.46188354492188 61.09051895141602 1.000014305114746
  endloop
endfacet
facet normal -8.805844231574156e-08 5.597766175924335e-06 -1
  outer loop
    vertex 64.46188354492188 61.09051895141602 1.000014305114746
    vertex 27.64156532287598 61.03900527954102 1.000017285346985
    vertex 27.5904541015625 61.4272346496582 1.000019431114197
  endloop
endfacet
facet normal -8.805844231574156e-08 5.597766175924335e-06 -1
  outer loop
    vertex 64.46188354492188 61.09051895141602 1.000014305114746
    vertex 27.5904541015625 61.4272346496582 1.000019431114197
    vertex 64.4107666015625 61.4787483215332 1.000016570091248
  endloop
endfacet
facet normal -8.805844231574156e-08 5.597766175924335e-06 -1
  outer loop
    vertex 64.4107666015625 61.4787483215332 1.000016570091248
    vertex 27.5904541015625 61.4272346496582 1.000019431114197
    vertex 27.44060325622559 61.78900527954102 1.000021457672119
  endloop
endfacet
facet normal -8.805844231574156e-08 5.597766175924335e-06 -1
  outer loop
    vertex 64.4107666015625 61.4787483215332 1.000016570091248
    vertex 27.44060325622559 61.78900527954102 1.000021457672119
    vertex 64.46188354492188 61.86697769165039 1.000018715858459
  endloop
endfacet
facet normal -8.805844231574156e-08 5.597766175924335e-06 -1
  outer loop
    vertex 64.46188354492188 61.86697769165039 1.000018715858459
    vertex 27.44060325622559 61.78900527954102 1.000021457672119
    vertex 27.20222663879395 62.09966659545898 1.000023245811462
  endloop
endfacet
facet normal -8.805844231574156e-08 5.597766175924335e-06 -1
  outer loop
    vertex 64.46188354492188 61.86697769165039 1.000018715858459
    vertex 27.20222663879395 62.09966659545898 1.000023245811462
    vertex 64.61173248291016 62.2287483215332 1.000020742416382
  endloop
endfacet
facet normal -8.805844231574156e-08 5.597766175924335e-06 -1
  outer loop
    vertex 64.61173248291016 62.2287483215332 1.000020742416382
    vertex 27.20222663879395 62.09966659545898 1.000023245811462
    vertex 26.89156532287598 62.33804321289062 1.000024676322937
  endloop
endfacet
facet normal -8.805844231574156e-08 5.597766175924335e-06 -1
  outer loop
    vertex 64.61173248291016 62.2287483215332 1.000020742416382
    vertex 26.89156532287598 62.33804321289062 1.000024676322937
    vertex 64.85010528564453 62.53940963745117 1.000022411346436
  endloop
endfacet
facet normal -8.805844231574156e-08 5.597766175924335e-06 -1
  outer loop
    vertex 64.85010528564453 62.53940963745117 1.000022411346436
    vertex 26.89156532287598 62.33804321289062 1.000024676322937
    vertex 26.52979469299316 62.48789596557617 1.000025510787964
  endloop
endfacet
facet normal -8.805844231574156e-08 5.597766175924335e-06 -1
  outer loop
    vertex 64.85010528564453 62.53940963745117 1.000022411346436
    vertex 26.52979469299316 62.48789596557617 1.000025510787964
    vertex 26.14156532287598 62.53900527954102 1.000025868415833
  endloop
endfacet
facet normal -7.451997419138934e-08 -1 -6.161043897279228e-14
  outer loop
    vertex 7.499983787536621 56.24278259277344 5.999958515167236
    vertex 86.49998474121094 56.24279403686523 0.9999514818191528
    vertex 86.49998474121094 56.24279403686523 5.999951362609863
  endloop
endfacet
facet normal -7.451997419138934e-08 -1 -6.161043897279228e-14
  outer loop
    vertex 86.49998474121094 56.24279403686523 0.9999514818191528
    vertex 7.499983787536621 56.24278259277344 5.999958515167236
    vertex 7.499983787536621 56.24278259277344 0.9999583959579468
  endloop
endfacet
facet normal -1 -1.328478106188413e-06 8.04146282007423e-07
  outer loop
    vertex 7.499983787536621 56.24278259277344 5.999958515167236
    vertex 7.499993324279785 77.24278259277344 1.000075936317444
    vertex 7.499983787536621 56.24278259277344 0.9999583959579468
  endloop
endfacet
facet normal -1 -1.328478106188413e-06 8.04146282007423e-07
  outer loop
    vertex 7.499993324279785 77.24278259277344 1.000075936317444
    vertex 7.499983787536621 56.24278259277344 5.999958515167236
    vertex 7.499954223632812 76.24278259277344 3.608740091323853
  endloop
endfacet
facet normal -1 -1.328478106188413e-06 8.04146282007423e-07
  outer loop
    vertex 7.499954223632812 76.24278259277344 3.608740091323853
    vertex 7.499983787536621 56.24278259277344 5.999958515167236
    vertex 7.499939918518066 76.03435516357422 3.704327344894409
  endloop
endfacet
facet normal -1 -1.328478106188413e-06 8.04146282007423e-07
  outer loop
    vertex 7.499939918518066 76.03435516357422 3.704327344894409
    vertex 7.499983787536621 56.24278259277344 5.999958515167236
    vertex 7.499933242797852 73.71098327636719 4.769838333129883
  endloop
endfacet
facet normal -1 -1.328478106188413e-06 8.04146282007423e-07
  outer loop
    vertex 7.499933242797852 73.71098327636719 4.769838333129883
    vertex 7.499983787536621 56.24278259277344 5.999958515167236
    vertex 7.499937057495117 72.36479949951172 5.57017707824707
  endloop
endfacet
facet normal -1 -1.328478106188413e-06 8.04146282007423e-07
  outer loop
    vertex 7.499937057495117 72.36479949951172 5.57017707824707
    vertex 7.499983787536621 56.24278259277344 5.999958515167236
    vertex 7.499951362609863 71.64189910888672 5.999958515167236
  endloop
endfacet
facet normal -1 -1.328478106188413e-06 8.04146282007423e-07
  outer loop
    vertex 7.499951362609863 71.64189910888672 5.999958515167236
    vertex 7.499983787536621 56.24278259277344 5.999958515167236
    vertex 7.499983787536621 56.24278259277344 11.99995803833008
  endloop
endfacet
facet normal -1 -1.328478106188413e-06 8.04146282007423e-07
  outer loop
    vertex 7.499951362609863 71.64189910888672 5.999958515167236
    vertex 7.499983787536621 56.24278259277344 11.99995803833008
    vertex 7.499988079071045 71.24278259277344 6.237244606018066
  endloop
endfacet
facet normal -1 -1.328478106188413e-06 8.04146282007423e-07
  outer loop
    vertex 7.499988079071045 71.24278259277344 6.237244606018066
    vertex 7.499983787536621 56.24278259277344 11.99995803833008
    vertex 7.49998950958252 70.98726654052734 6.389154434204102
  endloop
endfacet
facet normal -1 -1.328478106188413e-06 8.04146282007423e-07
  outer loop
    vertex 7.49998950958252 70.98726654052734 6.389154434204102
    vertex 7.499983787536621 56.24278259277344 11.99995803833008
    vertex 7.49998950958252 70.9305419921875 6.422881126403809
  endloop
endfacet
facet normal -1 -1.328478106188413e-06 8.04146282007423e-07
  outer loop
    vertex 7.49998950958252 70.9305419921875 6.422881126403809
    vertex 7.499983787536621 56.24278259277344 11.99995803833008
    vertex 7.499985694885254 68.45650482177734 8.279380798339844
  endloop
endfacet
facet normal -1 -1.328478106188413e-06 8.04146282007423e-07
  outer loop
    vertex 7.499985694885254 68.45650482177734 8.279380798339844
    vertex 7.499983787536621 56.24278259277344 11.99995803833008
    vertex 7.499982833862305 66.2718505859375 10.31133937835693
  endloop
endfacet
facet normal -1 -1.328478106188413e-06 8.04146282007423e-07
  outer loop
    vertex 7.499982833862305 66.2718505859375 10.31133937835693
    vertex 7.499983787536621 56.24278259277344 11.99995803833008
    vertex 7.499981880187988 65.07837677001953 11.66997623443604
  endloop
endfacet
facet normal -1 -1.328478106188413e-06 8.04146282007423e-07
  outer loop
    vertex 7.499981880187988 65.07837677001953 11.66997623443604
    vertex 7.499983787536621 56.24278259277344 11.99995803833008
    vertex 7.499982357025146 64.78851318359375 11.99995803833008
  endloop
endfacet
facet normal -1 -1.328478106188413e-06 8.04146282007423e-07
  outer loop
    vertex 7.499962329864502 77.24278259277344 3.60885763168335
    vertex 7.499993324279785 77.24278259277344 1.000075936317444
    vertex 7.499954223632812 76.24278259277344 3.608740091323853
  endloop
endfacet
facet normal 9.924896403390449e-06 0.5110308527946472 0.8595623970031738
  outer loop
    vertex 86.49991607666016 72.36447143554688 5.56956958770752
    vertex 7.499951362609863 71.64189910888672 5.999958515167236
    vertex 86.49993133544922 71.64157104492188 5.999350547790527
  endloop
endfacet
facet normal 9.924896403390449e-06 0.5110308527946472 0.8595623970031738
  outer loop
    vertex 7.499951362609863 71.64189910888672 5.999958515167236
    vertex 86.49991607666016 72.36447143554688 5.56956958770752
    vertex 7.499937057495117 72.36479949951172 5.57017707824707
  endloop
endfacet
facet normal 8.752732355787884e-06 0.4168595671653748 0.9089708924293518
  outer loop
    vertex 86.49995422363281 74.36471557617188 4.469271183013916
    vertex 7.499933242797852 73.71098327636719 4.769838333129883
    vertex 86.49991607666016 73.71064758300781 4.769230365753174
  endloop
endfacet
facet normal 8.752732355787884e-06 0.4168595671653748 0.9089708924293518
  outer loop
    vertex 7.499933242797852 73.71098327636719 4.769838333129883
    vertex 86.49995422363281 74.36471557617188 4.469271183013916
    vertex 7.499939918518066 76.03435516357422 3.704327344894409
  endloop
endfacet
facet normal 8.752732355787884e-06 0.4168595671653748 0.9089708924293518
  outer loop
    vertex 7.499939918518066 76.03435516357422 3.704327344894409
    vertex 86.49995422363281 74.36471557617188 4.469271183013916
    vertex 86.49992370605469 76.03401947021484 3.7037193775177
  endloop
endfacet
facet normal 9.924896403390449e-06 0.5110308527946472 0.8595623970031738
  outer loop
    vertex 86.49991607666016 73.71064758300781 4.769230365753174
    vertex 7.499937057495117 72.36479949951172 5.57017707824707
    vertex 86.49991607666016 72.36447143554688 5.56956958770752
  endloop
endfacet
facet normal 9.924896403390449e-06 0.5110308527946472 0.8595623970031738
  outer loop
    vertex 7.499937057495117 72.36479949951172 5.57017707824707
    vertex 86.49991607666016 73.71064758300781 4.769230365753174
    vertex 7.499933242797852 73.71098327636719 4.769838333129883
  endloop
endfacet
facet normal -7.451996708596198e-08 -1 1.06512021424976e-14
  outer loop
    vertex 86.49998474121094 56.24279403686523 11.99995136260986
    vertex 7.499983787536621 56.24278259277344 5.999958515167236
    vertex 86.49998474121094 56.24279403686523 5.999951362609863
  endloop
endfacet
facet normal -7.451996708596198e-08 -1 1.06512021424976e-14
  outer loop
    vertex 7.499983787536621 56.24278259277344 5.999958515167236
    vertex 86.49998474121094 56.24279403686523 11.99995136260986
    vertex 7.499983787536621 56.24278259277344 11.99995803833008
  endloop
endfacet
facet normal -5.369017799239373e-07 -2.790601911328849e-06 1
  outer loop
    vertex 86.49998474121094 56.24279403686523 11.99995136260986
    vertex 7.499982357025146 64.78851318359375 11.99995803833008
    vertex 7.499983787536621 56.24278259277344 11.99995803833008
  endloop
endfacet
facet normal -5.369017799239373e-07 -2.790601911328849e-06 1
  outer loop
    vertex 7.499982357025146 64.78851318359375 11.99995803833008
    vertex 86.49998474121094 56.24279403686523 11.99995136260986
    vertex 86.49997711181641 64.78841400146484 11.99990749359131
  endloop
endfacet
facet normal 1.613578774595226e-06 0.7512968182563782 0.6599644422531128
  outer loop
    vertex 86.49997711181641 65.07828521728516 11.66992473602295
    vertex 7.499982357025146 64.78851318359375 11.99995803833008
    vertex 86.49997711181641 64.78841400146484 11.99990749359131
  endloop
endfacet
facet normal 1.613578774595226e-06 0.7512968182563782 0.6599644422531128
  outer loop
    vertex 7.499982357025146 64.78851318359375 11.99995803833008
    vertex 86.49997711181641 65.07828521728516 11.66992473602295
    vertex 7.499981880187988 65.07837677001953 11.66997623443604
  endloop
endfacet
facet normal 1.357636392640416e-06 0.5110307931900024 0.8595623970031738
  outer loop
    vertex 86.49998474121094 71.24268341064453 6.23719310760498
    vertex 7.49998950958252 70.98726654052734 6.389154434204102
    vertex 86.49998474121094 70.98717498779297 6.389103412628174
  endloop
endfacet
facet normal 1.357636392640416e-06 0.5110307931900024 0.8595623970031738
  outer loop
    vertex 7.49998950958252 70.98726654052734 6.389154434204102
    vertex 86.49998474121094 71.24268341064453 6.23719310760498
    vertex 7.499988079071045 71.24278259277344 6.237244606018066
  endloop
endfacet
facet normal 1.357636392640416e-06 0.5110307931900024 0.8595623970031738
  outer loop
    vertex 86.49998474121094 70.98717498779297 6.389103412628174
    vertex 7.49998950958252 70.9305419921875 6.422881126403809
    vertex 86.49998474121094 70.93044281005859 6.422830104827881
  endloop
endfacet
facet normal 1.357636392640416e-06 0.5110307931900024 0.8595623970031738
  outer loop
    vertex 7.49998950958252 70.9305419921875 6.422881126403809
    vertex 86.49998474121094 70.98717498779297 6.389103412628174
    vertex 7.49998950958252 70.98726654052734 6.389154434204102
  endloop
endfacet
facet normal 1.461721808482253e-06 0.6002010703086853 0.7998491525650024
  outer loop
    vertex 86.49998474121094 70.93044281005859 6.422830104827881
    vertex 7.499985694885254 68.45650482177734 8.279380798339844
    vertex 86.49997711181641 68.45640563964844 8.279329299926758
  endloop
endfacet
facet normal 1.461721808482253e-06 0.6002010703086853 0.7998491525650024
  outer loop
    vertex 7.499985694885254 68.45650482177734 8.279380798339844
    vertex 86.49998474121094 70.93044281005859 6.422830104827881
    vertex 7.49998950958252 70.9305419921875 6.422881126403809
  endloop
endfacet
facet normal 1.547566739645845e-06 0.6810547113418579 0.7322325706481934
  outer loop
    vertex 86.49997711181641 68.45640563964844 8.279329299926758
    vertex 7.499982833862305 66.2718505859375 10.31133937835693
    vertex 86.49997711181641 66.27175903320312 10.31128787994385
  endloop
endfacet
facet normal 1.547566739645845e-06 0.6810547113418579 0.7322325706481934
  outer loop
    vertex 7.499982833862305 66.2718505859375 10.31133937835693
    vertex 86.49997711181641 68.45640563964844 8.279329299926758
    vertex 7.499985694885254 68.45650482177734 8.279380798339844
  endloop
endfacet
facet normal 1.613578774595226e-06 0.7512968182563782 0.6599644422531128
  outer loop
    vertex 7.499982833862305 66.2718505859375 10.31133937835693
    vertex 86.49997711181641 65.07828521728516 11.66992473602295
    vertex 86.49997711181641 66.27175903320312 10.31128787994385
  endloop
endfacet
facet normal 1.613578774595226e-06 0.7512968182563782 0.6599644422531128
  outer loop
    vertex 86.49997711181641 65.07828521728516 11.66992473602295
    vertex 7.499982833862305 66.2718505859375 10.31133937835693
    vertex 7.499981880187988 65.07837677001953 11.66997623443604
  endloop
endfacet
facet normal 1 1.958236680366099e-06 3.797688350459794e-07
  outer loop
    vertex 86.49993896484375 77.24244689941406 3.60824990272522
    vertex 86.49993133544922 76.24244689941406 3.608132362365723
    vertex 86.49999237060547 77.24279022216797 1.00006902217865
  endloop
endfacet
facet normal 1 1.958236680366099e-06 3.797688350459794e-07
  outer loop
    vertex 86.49999237060547 77.24279022216797 1.00006902217865
    vertex 86.49998474121094 56.24279403686523 5.999951362609863
    vertex 86.49998474121094 56.24279403686523 0.9999514818191528
  endloop
endfacet
facet normal 1 1.958236680366099e-06 3.797688350459794e-07
  outer loop
    vertex 86.49998474121094 56.24279403686523 5.999951362609863
    vertex 86.49999237060547 77.24279022216797 1.00006902217865
    vertex 86.49993133544922 76.24244689941406 3.608132362365723
  endloop
endfacet
facet normal 1 1.958236680366099e-06 3.797688350459794e-07
  outer loop
    vertex 86.49998474121094 56.24279403686523 5.999951362609863
    vertex 86.49993133544922 76.24244689941406 3.608132362365723
    vertex 86.49992370605469 76.03401947021484 3.7037193775177
  endloop
endfacet
facet normal 1 1.958236680366099e-06 3.797688350459794e-07
  outer loop
    vertex 86.49998474121094 56.24279403686523 5.999951362609863
    vertex 86.49992370605469 76.03401947021484 3.7037193775177
    vertex 86.49995422363281 74.36471557617188 4.469271183013916
  endloop
endfacet
facet normal 1 1.958236680366099e-06 3.797688350459794e-07
  outer loop
    vertex 86.49998474121094 56.24279403686523 5.999951362609863
    vertex 86.49995422363281 74.36471557617188 4.469271183013916
    vertex 86.49991607666016 73.71064758300781 4.769230365753174
  endloop
endfacet
facet normal 1 1.958236680366099e-06 3.797688350459794e-07
  outer loop
    vertex 86.49998474121094 56.24279403686523 5.999951362609863
    vertex 86.49991607666016 73.71064758300781 4.769230365753174
    vertex 86.49991607666016 72.36447143554688 5.56956958770752
  endloop
endfacet
facet normal 1 1.958236680366099e-06 3.797688350459794e-07
  outer loop
    vertex 86.49998474121094 56.24279403686523 5.999951362609863
    vertex 86.49991607666016 72.36447143554688 5.56956958770752
    vertex 86.49993133544922 71.64157104492188 5.999350547790527
  endloop
endfacet
facet normal 1 1.958236680366099e-06 3.797688350459794e-07
  outer loop
    vertex 86.49998474121094 56.24279403686523 5.999951362609863
    vertex 86.49993133544922 71.64157104492188 5.999350547790527
    vertex 86.49998474121094 71.24268341064453 6.23719310760498
  endloop
endfacet
facet normal 1 1.958236680366099e-06 3.797688350459794e-07
  outer loop
    vertex 86.49998474121094 56.24279403686523 5.999951362609863
    vertex 86.49998474121094 71.24268341064453 6.23719310760498
    vertex 86.49998474121094 56.24279403686523 11.99995136260986
  endloop
endfacet
facet normal 1 1.958236680366099e-06 3.797688350459794e-07
  outer loop
    vertex 86.49998474121094 56.24279403686523 11.99995136260986
    vertex 86.49998474121094 71.24268341064453 6.23719310760498
    vertex 86.49998474121094 70.98717498779297 6.389103412628174
  endloop
endfacet
facet normal 1 1.958236680366099e-06 3.797688350459794e-07
  outer loop
    vertex 86.49998474121094 56.24279403686523 11.99995136260986
    vertex 86.49998474121094 70.98717498779297 6.389103412628174
    vertex 86.49998474121094 70.93044281005859 6.422830104827881
  endloop
endfacet
facet normal 1 1.958236680366099e-06 3.797688350459794e-07
  outer loop
    vertex 86.49998474121094 56.24279403686523 11.99995136260986
    vertex 86.49998474121094 70.93044281005859 6.422830104827881
    vertex 86.49997711181641 68.45640563964844 8.279329299926758
  endloop
endfacet
facet normal 1 1.958236680366099e-06 3.797688350459794e-07
  outer loop
    vertex 86.49998474121094 56.24279403686523 11.99995136260986
    vertex 86.49997711181641 68.45640563964844 8.279329299926758
    vertex 86.49997711181641 66.27175903320312 10.31128787994385
  endloop
endfacet
facet normal 1 1.958236680366099e-06 3.797688350459794e-07
  outer loop
    vertex 86.49998474121094 56.24279403686523 11.99995136260986
    vertex 86.49997711181641 66.27175903320312 10.31128787994385
    vertex 86.49997711181641 65.07828521728516 11.66992473602295
  endloop
endfacet
facet normal 1 1.958236680366099e-06 3.797688350459794e-07
  outer loop
    vertex 86.49998474121094 56.24279403686523 11.99995136260986
    vertex 86.49997711181641 65.07828521728516 11.66992473602295
    vertex 86.49997711181641 64.78841400146484 11.99990749359131
  endloop
endfacet
facet normal 5.64156789550907e-06 0.5115855932235718 0.8592323064804077
  outer loop
    vertex 86.49993133544922 71.64157104492188 5.999350547790527
    vertex 7.499988079071045 71.24278259277344 6.237244606018066
    vertex 86.49998474121094 71.24268341064453 6.23719310760498
  endloop
endfacet
facet normal 5.64156789550907e-06 0.5115855932235718 0.8592323064804077
  outer loop
    vertex 7.499988079071045 71.24278259277344 6.237244606018066
    vertex 86.49993133544922 71.64157104492188 5.999350547790527
    vertex 7.499951362609863 71.64189910888672 5.999958515167236
  endloop
endfacet
facet normal 9.879790923150722e-06 0.4168595671653748 0.9089708924293518
  outer loop
    vertex 86.49993133544922 76.24244689941406 3.608132362365723
    vertex 7.499939918518066 76.03435516357422 3.704327344894409
    vertex 86.49992370605469 76.03401947021484 3.7037193775177
  endloop
endfacet
facet normal 9.879790923150722e-06 0.4168595671653748 0.9089708924293518
  outer loop
    vertex 7.499939918518066 76.03435516357422 3.704327344894409
    vertex 86.49993133544922 76.24244689941406 3.608132362365723
    vertex 7.499954223632812 76.24278259277344 3.608740091323853
  endloop
endfacet
facet normal 7.783774890413042e-06 1 0.0001175530924228951
  outer loop
    vertex 7.499993324279785 77.24278259277344 1.000075936317444
    vertex 86.49993896484375 77.24244689941406 3.60824990272522
    vertex 86.49999237060547 77.24279022216797 1.00006902217865
  endloop
endfacet
facet normal 7.783774890413042e-06 1 0.0001175530924228951
  outer loop
    vertex 86.49993896484375 77.24244689941406 3.60824990272522
    vertex 7.499993324279785 77.24278259277344 1.000075936317444
    vertex 7.499962329864502 77.24278259277344 3.60885763168335
  endloop
endfacet
facet normal 7.693711268075276e-06 -0.000117553150630556 1
  outer loop
    vertex 86.49993896484375 77.24244689941406 3.60824990272522
    vertex 7.499954223632812 76.24278259277344 3.608740091323853
    vertex 86.49993133544922 76.24244689941406 3.608132362365723
  endloop
endfacet
facet normal 7.693711268075276e-06 -0.000117553150630556 1
  outer loop
    vertex 7.499954223632812 76.24278259277344 3.608740091323853
    vertex 86.49993896484375 77.24244689941406 3.60824990272522
    vertex 7.499962329864502 77.24278259277344 3.60885763168335
  endloop
endfacet
facet normal -8.805844231574156e-08 5.597766175924335e-06 -1
  outer loop
    vertex 65.52253723144531 60.02983093261719 6.000008106231689
    vertex 66.29899597167969 60.02983093261719 6.000008106231689
    vertex 65.9107666015625 59.97872161865234 6.000008106231689
  endloop
endfacet
facet normal -8.805844231574156e-08 5.597766175924335e-06 -1
  outer loop
    vertex 66.29899597167969 60.02983093261719 6.000008106231689
    vertex 65.52253723144531 60.02983093261719 6.000008106231689
    vertex 65.1607666015625 60.17968368530273 6.000009059906006
  endloop
endfacet
facet normal -8.805844231574156e-08 5.597766175924335e-06 -1
  outer loop
    vertex 66.29899597167969 60.02983093261719 6.000008106231689
    vertex 65.1607666015625 60.17968368530273 6.000009059906006
    vertex 66.6607666015625 60.17968368530273 6.000009059906006
  endloop
endfacet
facet normal -8.805844231574156e-08 5.597766175924335e-06 -1
  outer loop
    vertex 66.6607666015625 60.17968368530273 6.000009059906006
    vertex 65.1607666015625 60.17968368530273 6.000009059906006
    vertex 64.85010528564453 60.41806030273438 6.00001049041748
  endloop
endfacet
facet normal -8.805844231574156e-08 5.597766175924335e-06 -1
  outer loop
    vertex 66.6607666015625 60.17968368530273 6.000009059906006
    vertex 64.85010528564453 60.41806030273438 6.00001049041748
    vertex 66.97142791748047 60.41806030273438 6.00001049041748
  endloop
endfacet
facet normal -8.805844231574156e-08 5.597766175924335e-06 -1
  outer loop
    vertex 66.97142791748047 60.41806030273438 6.00001049041748
    vertex 64.85010528564453 60.41806030273438 6.00001049041748
    vertex 64.61173248291016 60.72872161865234 6.000012397766113
  endloop
endfacet
facet normal -8.805844231574156e-08 5.597766175924335e-06 -1
  outer loop
    vertex 66.97142791748047 60.41806030273438 6.00001049041748
    vertex 64.61173248291016 60.72872161865234 6.000012397766113
    vertex 67.20980834960938 60.72872161865234 6.000011920928955
  endloop
endfacet
facet normal -8.805844231574156e-08 5.597766175924335e-06 -1
  outer loop
    vertex 67.20980834960938 60.72872161865234 6.000011920928955
    vertex 64.61173248291016 60.72872161865234 6.000012397766113
    vertex 64.46188354492188 61.09049224853516 6.000014305114746
  endloop
endfacet
facet normal -8.805844231574156e-08 5.597766175924335e-06 -1
  outer loop
    vertex 67.20980834960938 60.72872161865234 6.000011920928955
    vertex 64.46188354492188 61.09049224853516 6.000014305114746
    vertex 67.35965728759766 61.09049224853516 6.000014305114746
  endloop
endfacet
facet normal -8.805844231574156e-08 5.597766175924335e-06 -1
  outer loop
    vertex 67.35965728759766 61.09049224853516 6.000014305114746
    vertex 64.46188354492188 61.09049224853516 6.000014305114746
    vertex 64.4107666015625 61.47872161865234 6.000016689300537
  endloop
endfacet
facet normal -8.805844231574156e-08 5.597766175924335e-06 -1
  outer loop
    vertex 67.35965728759766 61.09049224853516 6.000014305114746
    vertex 64.4107666015625 61.47872161865234 6.000016689300537
    vertex 67.4107666015625 61.47872161865234 6.000016212463379
  endloop
endfacet
facet normal -8.805844231574156e-08 5.597766175924335e-06 -1
  outer loop
    vertex 67.4107666015625 61.47872161865234 6.000016212463379
    vertex 64.4107666015625 61.47872161865234 6.000016689300537
    vertex 64.46188354492188 61.86695098876953 6.00001859664917
  endloop
endfacet
facet normal -8.805844231574156e-08 5.597766175924335e-06 -1
  outer loop
    vertex 67.4107666015625 61.47872161865234 6.000016212463379
    vertex 64.46188354492188 61.86695098876953 6.00001859664917
    vertex 67.35965728759766 61.86694717407227 6.00001859664917
  endloop
endfacet
facet normal -8.805844231574156e-08 5.597766175924335e-06 -1
  outer loop
    vertex 67.35965728759766 61.86694717407227 6.00001859664917
    vertex 64.46188354492188 61.86695098876953 6.00001859664917
    vertex 64.61173248291016 62.22872161865234 6.000020503997803
  endloop
endfacet
facet normal -8.805844231574156e-08 5.597766175924335e-06 -1
  outer loop
    vertex 67.35965728759766 61.86694717407227 6.00001859664917
    vertex 64.61173248291016 62.22872161865234 6.000020503997803
    vertex 67.20980834960938 62.22872161865234 6.000020503997803
  endloop
endfacet
facet normal -8.805844231574156e-08 5.597766175924335e-06 -1
  outer loop
    vertex 67.20980834960938 62.22872161865234 6.000020503997803
    vertex 64.61173248291016 62.22872161865234 6.000020503997803
    vertex 64.85010528564453 62.53937911987305 6.000022411346436
  endloop
endfacet
facet normal -8.805844231574156e-08 5.597766175924335e-06 -1
  outer loop
    vertex 67.20980834960938 62.22872161865234 6.000020503997803
    vertex 64.85010528564453 62.53937911987305 6.000022411346436
    vertex 66.97142791748047 62.53937911987305 6.000022411346436
  endloop
endfacet
facet normal -8.805844231574156e-08 5.597766175924335e-06 -1
  outer loop
    vertex 66.97142791748047 62.53937911987305 6.000022411346436
    vertex 64.85010528564453 62.53937911987305 6.000022411346436
    vertex 65.1607666015625 62.77775955200195 6.00002384185791
  endloop
endfacet
facet normal -8.805844231574156e-08 5.597766175924335e-06 -1
  outer loop
    vertex 66.97142791748047 62.53937911987305 6.000022411346436
    vertex 65.1607666015625 62.77775955200195 6.00002384185791
    vertex 66.6607666015625 62.77775955200195 6.000023365020752
  endloop
endfacet
facet normal -8.805844231574156e-08 5.597766175924335e-06 -1
  outer loop
    vertex 66.6607666015625 62.77775955200195 6.000023365020752
    vertex 65.1607666015625 62.77775955200195 6.00002384185791
    vertex 65.52253723144531 62.92760848999023 6.000024318695068
  endloop
endfacet
facet normal -8.805844231574156e-08 5.597766175924335e-06 -1
  outer loop
    vertex 66.6607666015625 62.77775955200195 6.000023365020752
    vertex 65.52253723144531 62.92760848999023 6.000024318695068
    vertex 66.29899597167969 62.92760848999023 6.000024318695068
  endloop
endfacet
facet normal -8.805844231574156e-08 5.597766175924335e-06 -1
  outer loop
    vertex 66.29899597167969 62.92760848999023 6.000024318695068
    vertex 65.52253723144531 62.92760848999023 6.000024318695068
    vertex 65.9107666015625 62.97872161865234 6.000024795532227
  endloop
endfacet
facet normal 0.6087614893913269 0.7933533191680908 4.387399712868501e-06
  outer loop
    vertex 65.1607666015625 60.17971038818359 1.000009179115295
    vertex 64.85010528564453 60.41806030273438 6.00001049041748
    vertex 65.1607666015625 60.17968368530273 6.000009059906006
  endloop
endfacet
facet normal 0.6087614893913269 0.7933533191680908 4.387399712868501e-06
  outer loop
    vertex 64.85010528564453 60.41806030273438 6.00001049041748
    vertex 65.1607666015625 60.17971038818359 1.000009179115295
    vertex 64.85010528564453 60.41808700561523 1.00001049041748
  endloop
endfacet
facet normal 0.7933533787727356 0.6087613701820374 3.33784237227519e-06
  outer loop
    vertex 64.61173248291016 60.7287483215332 1.000012278556824
    vertex 64.85010528564453 60.41806030273438 6.00001049041748
    vertex 64.85010528564453 60.41808700561523 1.00001049041748
  endloop
endfacet
facet normal 0.7933533787727356 0.6087613701820374 3.33784237227519e-06
  outer loop
    vertex 64.85010528564453 60.41806030273438 6.00001049041748
    vertex 64.61173248291016 60.7287483215332 1.000012278556824
    vertex 64.61173248291016 60.72872161865234 6.000012397766113
  endloop
endfacet
facet normal 0.9238795638084412 0.3826833665370941 2.060816541415988e-06
  outer loop
    vertex 64.46188354492188 61.09051895141602 1.000014305114746
    vertex 64.61173248291016 60.72872161865234 6.000012397766113
    vertex 64.61173248291016 60.7287483215332 1.000012278556824
  endloop
endfacet
facet normal 0.9238795638084412 0.3826833665370941 2.060816541415988e-06
  outer loop
    vertex 64.61173248291016 60.72872161865234 6.000012397766113
    vertex 64.46188354492188 61.09051895141602 1.000014305114746
    vertex 64.46188354492188 61.09049224853516 6.000014305114746
  endloop
endfacet
facet normal 0.9914448857307434 0.1305261254310608 6.433496082536294e-07
  outer loop
    vertex 64.4107666015625 61.4787483215332 1.000016570091248
    vertex 64.46188354492188 61.09049224853516 6.000014305114746
    vertex 64.46188354492188 61.09051895141602 1.000014305114746
  endloop
endfacet
facet normal 0.9914448857307434 0.1305261254310608 6.433496082536294e-07
  outer loop
    vertex 64.46188354492188 61.09049224853516 6.000014305114746
    vertex 64.4107666015625 61.4787483215332 1.000016570091248
    vertex 64.4107666015625 61.47872161865234 6.000016689300537
  endloop
endfacet
facet normal 0.9914448261260986 -0.1305262595415115 -8.179606538760709e-07
  outer loop
    vertex 64.46188354492188 61.86697769165039 1.000018715858459
    vertex 64.4107666015625 61.47872161865234 6.000016689300537
    vertex 64.4107666015625 61.4787483215332 1.000016570091248
  endloop
endfacet
facet normal 0.9914448261260986 -0.1305262595415115 -8.179606538760709e-07
  outer loop
    vertex 64.4107666015625 61.47872161865234 6.000016689300537
    vertex 64.46188354492188 61.86697769165039 1.000018715858459
    vertex 64.46188354492188 61.86695098876953 6.00001859664917
  endloop
endfacet
facet normal 0.9238795042037964 -0.3826835155487061 -2.223528099420946e-06
  outer loop
    vertex 64.61173248291016 62.2287483215332 1.000020742416382
    vertex 64.46188354492188 61.86695098876953 6.00001859664917
    vertex 64.46188354492188 61.86697769165039 1.000018715858459
  endloop
endfacet
facet normal 0.9238795042037964 -0.3826835155487061 -2.223528099420946e-06
  outer loop
    vertex 64.46188354492188 61.86695098876953 6.00001859664917
    vertex 64.61173248291016 62.2287483215332 1.000020742416382
    vertex 64.61173248291016 62.22872161865234 6.000020503997803
  endloop
endfacet
facet normal 0.7933533191680908 -0.6087614893913269 -3.477565996945486e-06
  outer loop
    vertex 64.85010528564453 62.53940963745117 1.000022411346436
    vertex 64.61173248291016 62.22872161865234 6.000020503997803
    vertex 64.61173248291016 62.2287483215332 1.000020742416382
  endloop
endfacet
facet normal 0.7933533191680908 -0.6087614893913269 -3.477565996945486e-06
  outer loop
    vertex 64.61173248291016 62.22872161865234 6.000020503997803
    vertex 64.85010528564453 62.53940963745117 1.000022411346436
    vertex 64.85010528564453 62.53937911987305 6.000022411346436
  endloop
endfacet
facet normal 0.6087613701820374 -0.7933533787727356 -4.494613222050248e-06
  outer loop
    vertex 64.85010528564453 62.53937911987305 6.000022411346436
    vertex 65.1607666015625 62.77778625488281 1.000023722648621
    vertex 65.1607666015625 62.77775955200195 6.00002384185791
  endloop
endfacet
facet normal 0.6087613701820374 -0.7933533787727356 -4.494613222050248e-06
  outer loop
    vertex 65.1607666015625 62.77778625488281 1.000023722648621
    vertex 64.85010528564453 62.53937911987305 6.000022411346436
    vertex 64.85010528564453 62.53940963745117 1.000022411346436
  endloop
endfacet
facet normal 0.3826833665370941 -0.9238795638084412 -5.205360594118247e-06
  outer loop
    vertex 65.1607666015625 62.77775955200195 6.00002384185791
    vertex 65.52253723144531 62.92763900756836 1.000024557113647
    vertex 65.52253723144531 62.92760848999023 6.000024318695068
  endloop
endfacet
facet normal 0.3826833665370941 -0.9238795638084412 -5.205360594118247e-06
  outer loop
    vertex 65.52253723144531 62.92763900756836 1.000024557113647
    vertex 65.1607666015625 62.77775955200195 6.00002384185791
    vertex 65.1607666015625 62.77778625488281 1.000023722648621
  endloop
endfacet
facet normal 0.1305261254310608 -0.9914448857307434 -5.561370471696137e-06
  outer loop
    vertex 65.52253723144531 62.92760848999023 6.000024318695068
    vertex 65.9107666015625 62.9787483215332 1.000024795532227
    vertex 65.9107666015625 62.97872161865234 6.000024795532227
  endloop
endfacet
facet normal 0.1305261254310608 -0.9914448857307434 -5.561370471696137e-06
  outer loop
    vertex 65.9107666015625 62.9787483215332 1.000024795532227
    vertex 65.52253723144531 62.92760848999023 6.000024318695068
    vertex 65.52253723144531 62.92763900756836 1.000024557113647
  endloop
endfacet
facet normal -0.1305262595415115 -0.9914448261260986 -5.538382538361475e-06
  outer loop
    vertex 65.9107666015625 62.97872161865234 6.000024795532227
    vertex 66.29899597167969 62.92763900756836 1.000024437904358
    vertex 66.29899597167969 62.92760848999023 6.000024318695068
  endloop
endfacet
facet normal -0.1305262595415115 -0.9914448261260986 -5.538382538361475e-06
  outer loop
    vertex 66.29899597167969 62.92763900756836 1.000024437904358
    vertex 65.9107666015625 62.97872161865234 6.000024795532227
    vertex 65.9107666015625 62.9787483215332 1.000024795532227
  endloop
endfacet
facet normal -0.3826835155487061 -0.9238795042037964 -5.137962943990715e-06
  outer loop
    vertex 66.29899597167969 62.92760848999023 6.000024318695068
    vertex 66.6607666015625 62.77778625488281 1.000023603439331
    vertex 66.6607666015625 62.77775955200195 6.000023365020752
  endloop
endfacet
facet normal -0.3826835155487061 -0.9238795042037964 -5.137962943990715e-06
  outer loop
    vertex 66.6607666015625 62.77778625488281 1.000023603439331
    vertex 66.29899597167969 62.92760848999023 6.000024318695068
    vertex 66.29899597167969 62.92763900756836 1.000024437904358
  endloop
endfacet
facet normal -0.6087614893913269 -0.7933533191680908 -4.387399712868501e-06
  outer loop
    vertex 66.6607666015625 62.77775955200195 6.000023365020752
    vertex 66.97142791748047 62.53940963745117 1.000022172927856
    vertex 66.97142791748047 62.53937911987305 6.000022411346436
  endloop
endfacet
facet normal -0.6087614893913269 -0.7933533191680908 -4.387399712868501e-06
  outer loop
    vertex 66.97142791748047 62.53940963745117 1.000022172927856
    vertex 66.6607666015625 62.77775955200195 6.000023365020752
    vertex 66.6607666015625 62.77778625488281 1.000023603439331
  endloop
endfacet
facet normal -0.7933533787727356 -0.6087613701820374 -3.33784237227519e-06
  outer loop
    vertex 67.20980834960938 62.22872161865234 6.000020503997803
    vertex 66.97142791748047 62.53940963745117 1.000022172927856
    vertex 67.20980834960938 62.2287483215332 1.000020503997803
  endloop
endfacet
facet normal -0.7933533787727356 -0.6087613701820374 -3.33784237227519e-06
  outer loop
    vertex 66.97142791748047 62.53940963745117 1.000022172927856
    vertex 67.20980834960938 62.22872161865234 6.000020503997803
    vertex 66.97142791748047 62.53937911987305 6.000022411346436
  endloop
endfacet
facet normal -0.9238795638084412 -0.3826833665370941 -2.060816541415988e-06
  outer loop
    vertex 67.35965728759766 61.86694717407227 6.00001859664917
    vertex 67.20980834960938 62.2287483215332 1.000020503997803
    vertex 67.35965728759766 61.86697769165039 1.00001847743988
  endloop
endfacet
facet normal -0.9238795638084412 -0.3826833665370941 -2.060816541415988e-06
  outer loop
    vertex 67.20980834960938 62.2287483215332 1.000020503997803
    vertex 67.35965728759766 61.86694717407227 6.00001859664917
    vertex 67.20980834960938 62.22872161865234 6.000020503997803
  endloop
endfacet
facet normal -0.9914448857307434 -0.1305261254310608 -6.433496082536294e-07
  outer loop
    vertex 67.4107666015625 61.47872161865234 6.000016212463379
    vertex 67.35965728759766 61.86697769165039 1.00001847743988
    vertex 67.4107666015625 61.4787483215332 1.000016212463379
  endloop
endfacet
facet normal -0.9914448857307434 -0.1305261254310608 -6.433496082536294e-07
  outer loop
    vertex 67.35965728759766 61.86697769165039 1.00001847743988
    vertex 67.4107666015625 61.47872161865234 6.000016212463379
    vertex 67.35965728759766 61.86694717407227 6.00001859664917
  endloop
endfacet
facet normal -0.9914448261260986 0.1305262595415115 8.179606538760709e-07
  outer loop
    vertex 67.35965728759766 61.09049224853516 6.000014305114746
    vertex 67.4107666015625 61.4787483215332 1.000016212463379
    vertex 67.35965728759766 61.09051895141602 1.000014066696167
  endloop
endfacet
facet normal -0.9914448261260986 0.1305262595415115 8.179606538760709e-07
  outer loop
    vertex 67.4107666015625 61.4787483215332 1.000016212463379
    vertex 67.35965728759766 61.09049224853516 6.000014305114746
    vertex 67.4107666015625 61.47872161865234 6.000016212463379
  endloop
endfacet
facet normal -0.9238795042037964 0.3826835155487061 2.223528099420946e-06
  outer loop
    vertex 67.20980834960938 60.72872161865234 6.000011920928955
    vertex 67.35965728759766 61.09051895141602 1.000014066696167
    vertex 67.20980834960938 60.7287483215332 1.000012040138245
  endloop
endfacet
facet normal -0.9238795042037964 0.3826835155487061 2.223528099420946e-06
  outer loop
    vertex 67.35965728759766 61.09051895141602 1.000014066696167
    vertex 67.20980834960938 60.72872161865234 6.000011920928955
    vertex 67.35965728759766 61.09049224853516 6.000014305114746
  endloop
endfacet
facet normal -0.7933533191680908 0.6087614893913269 3.477565996945486e-06
  outer loop
    vertex 66.97142791748047 60.41806030273438 6.00001049041748
    vertex 67.20980834960938 60.7287483215332 1.000012040138245
    vertex 66.97142791748047 60.41808700561523 1.000010371208191
  endloop
endfacet
facet normal -0.7933533191680908 0.6087614893913269 3.477565996945486e-06
  outer loop
    vertex 67.20980834960938 60.7287483215332 1.000012040138245
    vertex 66.97142791748047 60.41806030273438 6.00001049041748
    vertex 67.20980834960938 60.72872161865234 6.000011920928955
  endloop
endfacet
facet normal -0.6087613701820374 0.7933533787727356 4.494613222050248e-06
  outer loop
    vertex 66.97142791748047 60.41808700561523 1.000010371208191
    vertex 66.6607666015625 60.17968368530273 6.000009059906006
    vertex 66.97142791748047 60.41806030273438 6.00001049041748
  endloop
endfacet
facet normal -0.6087613701820374 0.7933533787727356 4.494613222050248e-06
  outer loop
    vertex 66.6607666015625 60.17968368530273 6.000009059906006
    vertex 66.97142791748047 60.41808700561523 1.000010371208191
    vertex 66.6607666015625 60.17971038818359 1.000009059906006
  endloop
endfacet
facet normal -0.3826833665370941 0.9238795638084412 5.205360594118247e-06
  outer loop
    vertex 66.6607666015625 60.17971038818359 1.000009059906006
    vertex 66.29899597167969 60.02983093261719 6.000008106231689
    vertex 66.6607666015625 60.17968368530273 6.000009059906006
  endloop
endfacet
facet normal -0.3826833665370941 0.9238795638084412 5.205360594118247e-06
  outer loop
    vertex 66.29899597167969 60.02983093261719 6.000008106231689
    vertex 66.6607666015625 60.17971038818359 1.000009059906006
    vertex 66.29899597167969 60.02986145019531 1.000008225440979
  endloop
endfacet
facet normal -0.1305261254310608 0.9914448857307434 5.561370471696137e-06
  outer loop
    vertex 66.29899597167969 60.02986145019531 1.000008225440979
    vertex 65.9107666015625 59.97872161865234 6.000008106231689
    vertex 66.29899597167969 60.02983093261719 6.000008106231689
  endloop
endfacet
facet normal -0.1305261254310608 0.9914448857307434 5.561370471696137e-06
  outer loop
    vertex 65.9107666015625 59.97872161865234 6.000008106231689
    vertex 66.29899597167969 60.02986145019531 1.000008225440979
    vertex 65.9107666015625 59.9787483215332 1.0000079870224
  endloop
endfacet
facet normal 0.1305262595415115 0.9914448261260986 5.538382538361475e-06
  outer loop
    vertex 65.9107666015625 59.9787483215332 1.0000079870224
    vertex 65.52253723144531 60.02983093261719 6.000008106231689
    vertex 65.9107666015625 59.97872161865234 6.000008106231689
  endloop
endfacet
facet normal 0.1305262595415115 0.9914448261260986 5.538382538361475e-06
  outer loop
    vertex 65.52253723144531 60.02983093261719 6.000008106231689
    vertex 65.9107666015625 59.9787483215332 1.0000079870224
    vertex 65.52253723144531 60.02986145019531 1.000008344650269
  endloop
endfacet
facet normal 0.3826835155487061 0.9238795042037964 5.137962943990715e-06
  outer loop
    vertex 65.52253723144531 60.02986145019531 1.000008344650269
    vertex 65.1607666015625 60.17968368530273 6.000009059906006
    vertex 65.52253723144531 60.02983093261719 6.000008106231689
  endloop
endfacet
facet normal 0.3826835155487061 0.9238795042037964 5.137962943990715e-06
  outer loop
    vertex 65.1607666015625 60.17968368530273 6.000009059906006
    vertex 65.52253723144531 60.02986145019531 1.000008344650269
    vertex 65.1607666015625 60.17971038818359 1.000009179115295
  endloop
endfacet
facet normal -8.805844231574156e-08 5.597766175924335e-06 -1
  outer loop
    vertex 25.75333786010742 59.590087890625 6.000009536743164
    vertex 26.52979469299316 59.590087890625 6.000009059906006
    vertex 26.14156532287598 59.53897857666016 6.000009059906006
  endloop
endfacet
facet normal -8.805844231574156e-08 5.597766175924335e-06 -1
  outer loop
    vertex 26.52979469299316 59.590087890625 6.000009059906006
    vertex 25.75333786010742 59.590087890625 6.000009536743164
    vertex 25.39156532287598 59.73994064331055 6.000010013580322
  endloop
endfacet
facet normal -8.805844231574156e-08 5.597766175924335e-06 -1
  outer loop
    vertex 26.52979469299316 59.590087890625 6.000009059906006
    vertex 25.39156532287598 59.73994064331055 6.000010013580322
    vertex 26.89156532287598 59.73994064331055 6.000010013580322
  endloop
endfacet
facet normal -8.805844231574156e-08 5.597766175924335e-06 -1
  outer loop
    vertex 26.89156532287598 59.73994064331055 6.000010013580322
    vertex 25.39156532287598 59.73994064331055 6.000010013580322
    vertex 25.08090591430664 59.97831726074219 6.000011444091797
  endloop
endfacet
facet normal -8.805844231574156e-08 5.597766175924335e-06 -1
  outer loop
    vertex 26.89156532287598 59.73994064331055 6.000010013580322
    vertex 25.08090591430664 59.97831726074219 6.000011444091797
    vertex 27.20222663879395 59.97831726074219 6.000011444091797
  endloop
endfacet
facet normal -8.805844231574156e-08 5.597766175924335e-06 -1
  outer loop
    vertex 27.20222663879395 59.97831726074219 6.000011444091797
    vertex 25.08090591430664 59.97831726074219 6.000011444091797
    vertex 24.84252738952637 60.28897857666016 6.00001335144043
  endloop
endfacet
facet normal -8.805844231574156e-08 5.597766175924335e-06 -1
  outer loop
    vertex 27.20222663879395 59.97831726074219 6.000011444091797
    vertex 24.84252738952637 60.28897857666016 6.00001335144043
    vertex 27.44060516357422 60.28897857666016 6.000012874603271
  endloop
endfacet
facet normal -8.805844231574156e-08 5.597766175924335e-06 -1
  outer loop
    vertex 27.44060516357422 60.28897857666016 6.000012874603271
    vertex 24.84252738952637 60.28897857666016 6.00001335144043
    vertex 24.69267654418945 60.65074920654297 6.000015258789062
  endloop
endfacet
facet normal -8.805844231574156e-08 5.597766175924335e-06 -1
  outer loop
    vertex 27.44060516357422 60.28897857666016 6.000012874603271
    vertex 24.69267654418945 60.65074920654297 6.000015258789062
    vertex 27.5904541015625 60.65074920654297 6.000015258789062
  endloop
endfacet
facet normal -8.805844231574156e-08 5.597766175924335e-06 -1
  outer loop
    vertex 27.5904541015625 60.65074920654297 6.000015258789062
    vertex 24.69267654418945 60.65074920654297 6.000015258789062
    vertex 24.64156532287598 61.03897857666016 6.000017642974854
  endloop
endfacet
facet normal -8.805844231574156e-08 5.597766175924335e-06 -1
  outer loop
    vertex 27.5904541015625 60.65074920654297 6.000015258789062
    vertex 24.64156532287598 61.03897857666016 6.000017642974854
    vertex 27.64156532287598 61.03897857666016 6.000017166137695
  endloop
endfacet
facet normal -8.805844231574156e-08 5.597766175924335e-06 -1
  outer loop
    vertex 27.64156532287598 61.03897857666016 6.000017166137695
    vertex 24.64156532287598 61.03897857666016 6.000017642974854
    vertex 24.69267845153809 61.42720794677734 6.000019550323486
  endloop
endfacet
facet normal -8.805844231574156e-08 5.597766175924335e-06 -1
  outer loop
    vertex 27.64156532287598 61.03897857666016 6.000017166137695
    vertex 24.69267845153809 61.42720794677734 6.000019550323486
    vertex 27.5904541015625 61.42720794677734 6.000019550323486
  endloop
endfacet
facet normal -8.805844231574156e-08 5.597766175924335e-06 -1
  outer loop
    vertex 27.5904541015625 61.42720794677734 6.000019550323486
    vertex 24.69267845153809 61.42720794677734 6.000019550323486
    vertex 24.84252738952637 61.78897857666016 6.000021934509277
  endloop
endfacet
facet normal -8.805844231574156e-08 5.597766175924335e-06 -1
  outer loop
    vertex 27.5904541015625 61.42720794677734 6.000019550323486
    vertex 24.84252738952637 61.78897857666016 6.000021934509277
    vertex 27.44060516357422 61.78897857666016 6.000021457672119
  endloop
endfacet
facet normal -8.805844231574156e-08 5.597766175924335e-06 -1
  outer loop
    vertex 27.44060516357422 61.78897857666016 6.000021457672119
    vertex 24.84252738952637 61.78897857666016 6.000021934509277
    vertex 25.08090591430664 62.09963989257812 6.000023365020752
  endloop
endfacet
facet normal -8.805844231574156e-08 5.597766175924335e-06 -1
  outer loop
    vertex 27.44060516357422 61.78897857666016 6.000021457672119
    vertex 25.08090591430664 62.09963989257812 6.000023365020752
    vertex 27.20222663879395 62.09963607788086 6.000023365020752
  endloop
endfacet
facet normal -8.805844231574156e-08 5.597766175924335e-06 -1
  outer loop
    vertex 27.20222663879395 62.09963607788086 6.000023365020752
    vertex 25.08090591430664 62.09963989257812 6.000023365020752
    vertex 25.39156723022461 62.33801651000977 6.000024795532227
  endloop
endfacet
facet normal -8.805844231574156e-08 5.597766175924335e-06 -1
  outer loop
    vertex 27.20222663879395 62.09963607788086 6.000023365020752
    vertex 25.39156723022461 62.33801651000977 6.000024795532227
    vertex 26.89156723022461 62.33801651000977 6.000024795532227
  endloop
endfacet
facet normal -8.805844231574156e-08 5.597766175924335e-06 -1
  outer loop
    vertex 26.89156723022461 62.33801651000977 6.000024795532227
    vertex 25.39156723022461 62.33801651000977 6.000024795532227
    vertex 25.75333786010742 62.48786544799805 6.000025749206543
  endloop
endfacet
facet normal -8.805844231574156e-08 5.597766175924335e-06 -1
  outer loop
    vertex 26.89156723022461 62.33801651000977 6.000024795532227
    vertex 25.75333786010742 62.48786544799805 6.000025749206543
    vertex 26.52979469299316 62.48786544799805 6.000025272369385
  endloop
endfacet
facet normal -8.805844231574156e-08 5.597766175924335e-06 -1
  outer loop
    vertex 26.52979469299316 62.48786544799805 6.000025272369385
    vertex 25.75333786010742 62.48786544799805 6.000025749206543
    vertex 26.14156723022461 62.53897857666016 6.000025749206543
  endloop
endfacet
facet normal -0.7933533787727356 -0.6087613701820374 -3.33784237227519e-06
  outer loop
    vertex 27.44060516357422 61.78897857666016 6.000021457672119
    vertex 27.20222663879395 62.09966659545898 1.000023245811462
    vertex 27.44060325622559 61.78900527954102 1.000021457672119
  endloop
endfacet
facet normal -0.7933533787727356 -0.6087613701820374 -3.33784237227519e-06
  outer loop
    vertex 27.20222663879395 62.09966659545898 1.000023245811462
    vertex 27.44060516357422 61.78897857666016 6.000021457672119
    vertex 27.20222663879395 62.09963607788086 6.000023365020752
  endloop
endfacet
facet normal -0.9238795638084412 -0.3826833665370941 -2.060816541415988e-06
  outer loop
    vertex 27.5904541015625 61.42720794677734 6.000019550323486
    vertex 27.44060325622559 61.78900527954102 1.000021457672119
    vertex 27.5904541015625 61.4272346496582 1.000019431114197
  endloop
endfacet
facet normal -0.9238795638084412 -0.3826833665370941 -2.060816541415988e-06
  outer loop
    vertex 27.44060325622559 61.78900527954102 1.000021457672119
    vertex 27.5904541015625 61.42720794677734 6.000019550323486
    vertex 27.44060516357422 61.78897857666016 6.000021457672119
  endloop
endfacet
facet normal -0.9914448857307434 -0.1305261254310608 -6.433496082536294e-07
  outer loop
    vertex 27.64156532287598 61.03897857666016 6.000017166137695
    vertex 27.5904541015625 61.4272346496582 1.000019431114197
    vertex 27.64156532287598 61.03900527954102 1.000017285346985
  endloop
endfacet
facet normal -0.9914448857307434 -0.1305261254310608 -6.433496082536294e-07
  outer loop
    vertex 27.5904541015625 61.4272346496582 1.000019431114197
    vertex 27.64156532287598 61.03897857666016 6.000017166137695
    vertex 27.5904541015625 61.42720794677734 6.000019550323486
  endloop
endfacet
facet normal -0.9914448261260986 0.1305262595415115 8.179606538760709e-07
  outer loop
    vertex 27.5904541015625 60.65074920654297 6.000015258789062
    vertex 27.64156532287598 61.03900527954102 1.000017285346985
    vertex 27.5904541015625 60.65077590942383 1.000015139579773
  endloop
endfacet
facet normal -0.9914448261260986 0.1305262595415115 8.179606538760709e-07
  outer loop
    vertex 27.64156532287598 61.03900527954102 1.000017285346985
    vertex 27.5904541015625 60.65074920654297 6.000015258789062
    vertex 27.64156532287598 61.03897857666016 6.000017166137695
  endloop
endfacet
facet normal -0.9238795042037964 0.3826835155487061 2.223528099420946e-06
  outer loop
    vertex 27.44060516357422 60.28897857666016 6.000012874603271
    vertex 27.5904541015625 60.65077590942383 1.000015139579773
    vertex 27.44060325622559 60.28900527954102 1.000013113021851
  endloop
endfacet
facet normal -0.9238795042037964 0.3826835155487061 2.223528099420946e-06
  outer loop
    vertex 27.5904541015625 60.65077590942383 1.000015139579773
    vertex 27.44060516357422 60.28897857666016 6.000012874603271
    vertex 27.5904541015625 60.65074920654297 6.000015258789062
  endloop
endfacet
facet normal -0.7933533191680908 0.6087614893913269 3.477565996945486e-06
  outer loop
    vertex 27.20222663879395 59.97831726074219 6.000011444091797
    vertex 27.44060325622559 60.28900527954102 1.000013113021851
    vertex 27.20222663879395 59.97834396362305 1.000011444091797
  endloop
endfacet
facet normal -0.7933533191680908 0.6087614893913269 3.477565996945486e-06
  outer loop
    vertex 27.44060325622559 60.28900527954102 1.000013113021851
    vertex 27.20222663879395 59.97831726074219 6.000011444091797
    vertex 27.44060516357422 60.28897857666016 6.000012874603271
  endloop
endfacet
facet normal -0.6087613701820374 0.7933533787727356 4.494613222050248e-06
  outer loop
    vertex 27.20222663879395 59.97834396362305 1.000011444091797
    vertex 26.89156532287598 59.73994064331055 6.000010013580322
    vertex 27.20222663879395 59.97831726074219 6.000011444091797
  endloop
endfacet
facet normal -0.6087613701820374 0.7933533787727356 4.494613222050248e-06
  outer loop
    vertex 26.89156532287598 59.73994064331055 6.000010013580322
    vertex 27.20222663879395 59.97834396362305 1.000011444091797
    vertex 26.89156532287598 59.73996734619141 1.000010132789612
  endloop
endfacet
facet normal -0.3826833665370941 0.9238795638084412 5.205360594118247e-06
  outer loop
    vertex 26.89156532287598 59.73996734619141 1.000010132789612
    vertex 26.52979469299316 59.590087890625 6.000009059906006
    vertex 26.89156532287598 59.73994064331055 6.000010013580322
  endloop
endfacet
facet normal -0.3826833665370941 0.9238795638084412 5.205360594118247e-06
  outer loop
    vertex 26.52979469299316 59.590087890625 6.000009059906006
    vertex 26.89156532287598 59.73996734619141 1.000010132789612
    vertex 26.52979469299316 59.59011840820312 1.000009298324585
  endloop
endfacet
facet normal -0.1305261254310608 0.9914448857307434 5.561370471696137e-06
  outer loop
    vertex 26.52979469299316 59.59011840820312 1.000009298324585
    vertex 26.14156532287598 59.53897857666016 6.000009059906006
    vertex 26.52979469299316 59.590087890625 6.000009059906006
  endloop
endfacet
facet normal -0.1305261254310608 0.9914448857307434 5.561370471696137e-06
  outer loop
    vertex 26.14156532287598 59.53897857666016 6.000009059906006
    vertex 26.52979469299316 59.59011840820312 1.000009298324585
    vertex 26.14156532287598 59.53900527954102 1.000009059906006
  endloop
endfacet
facet normal 0.1305262595415115 0.9914448261260986 5.538382538361475e-06
  outer loop
    vertex 26.14156532287598 59.53900527954102 1.000009059906006
    vertex 25.75333786010742 59.590087890625 6.000009536743164
    vertex 26.14156532287598 59.53897857666016 6.000009059906006
  endloop
endfacet
facet normal 0.1305262595415115 0.9914448261260986 5.538382538361475e-06
  outer loop
    vertex 25.75333786010742 59.590087890625 6.000009536743164
    vertex 26.14156532287598 59.53900527954102 1.000009059906006
    vertex 25.75333786010742 59.59011840820312 1.000009298324585
  endloop
endfacet
facet normal 0.3826835155487061 0.9238795042037964 5.137962943990715e-06
  outer loop
    vertex 25.75333786010742 59.59011840820312 1.000009298324585
    vertex 25.39156532287598 59.73994064331055 6.000010013580322
    vertex 25.75333786010742 59.590087890625 6.000009536743164
  endloop
endfacet
facet normal 0.3826835155487061 0.9238795042037964 5.137962943990715e-06
  outer loop
    vertex 25.39156532287598 59.73994064331055 6.000010013580322
    vertex 25.75333786010742 59.59011840820312 1.000009298324585
    vertex 25.39156532287598 59.73996734619141 1.000010251998901
  endloop
endfacet
facet normal 0.6087614893913269 0.7933533191680908 4.387399712868501e-06
  outer loop
    vertex 25.39156532287598 59.73996734619141 1.000010251998901
    vertex 25.08090591430664 59.97831726074219 6.000011444091797
    vertex 25.39156532287598 59.73994064331055 6.000010013580322
  endloop
endfacet
facet normal 0.6087614893913269 0.7933533191680908 4.387399712868501e-06
  outer loop
    vertex 25.08090591430664 59.97831726074219 6.000011444091797
    vertex 25.39156532287598 59.73996734619141 1.000010251998901
    vertex 25.08090591430664 59.97834396362305 1.000011563301086
  endloop
endfacet
facet normal 0.7933533787727356 0.6087613701820374 3.33784237227519e-06
  outer loop
    vertex 24.84252738952637 60.28900527954102 1.00001335144043
    vertex 25.08090591430664 59.97831726074219 6.000011444091797
    vertex 25.08090591430664 59.97834396362305 1.000011563301086
  endloop
endfacet
facet normal 0.7933533787727356 0.6087613701820374 3.33784237227519e-06
  outer loop
    vertex 25.08090591430664 59.97831726074219 6.000011444091797
    vertex 24.84252738952637 60.28900527954102 1.00001335144043
    vertex 24.84252738952637 60.28897857666016 6.00001335144043
  endloop
endfacet
facet normal 0.9238795638084412 0.3826833665370941 2.060816541415988e-06
  outer loop
    vertex 24.69267654418945 60.65077590942383 1.000015377998352
    vertex 24.84252738952637 60.28897857666016 6.00001335144043
    vertex 24.84252738952637 60.28900527954102 1.00001335144043
  endloop
endfacet
facet normal 0.9238795638084412 0.3826833665370941 2.060816541415988e-06
  outer loop
    vertex 24.84252738952637 60.28897857666016 6.00001335144043
    vertex 24.69267654418945 60.65077590942383 1.000015377998352
    vertex 24.69267654418945 60.65074920654297 6.000015258789062
  endloop
endfacet
facet normal 0.9914448857307434 0.1305261254310608 6.433496082536294e-07
  outer loop
    vertex 24.64156532287598 61.03900527954102 1.000017523765564
    vertex 24.69267654418945 60.65074920654297 6.000015258789062
    vertex 24.69267654418945 60.65077590942383 1.000015377998352
  endloop
endfacet
facet normal 0.9914448857307434 0.1305261254310608 6.433496082536294e-07
  outer loop
    vertex 24.69267654418945 60.65074920654297 6.000015258789062
    vertex 24.64156532287598 61.03900527954102 1.000017523765564
    vertex 24.64156532287598 61.03897857666016 6.000017642974854
  endloop
endfacet
facet normal 0.9914448261260986 -0.1305262595415115 -8.179606538760709e-07
  outer loop
    vertex 24.69267654418945 61.4272346496582 1.000019669532776
    vertex 24.64156532287598 61.03897857666016 6.000017642974854
    vertex 24.64156532287598 61.03900527954102 1.000017523765564
  endloop
endfacet
facet normal 0.9914448261260986 -0.1305262595415115 -8.179606538760709e-07
  outer loop
    vertex 24.64156532287598 61.03897857666016 6.000017642974854
    vertex 24.69267654418945 61.4272346496582 1.000019669532776
    vertex 24.69267845153809 61.42720794677734 6.000019550323486
  endloop
endfacet
facet normal 0.9238795042037964 -0.3826835155487061 -2.223528099420946e-06
  outer loop
    vertex 24.84252738952637 61.78900527954102 1.000021696090698
    vertex 24.69267845153809 61.42720794677734 6.000019550323486
    vertex 24.69267654418945 61.4272346496582 1.000019669532776
  endloop
endfacet
facet normal 0.9238795042037964 -0.3826835155487061 -2.223528099420946e-06
  outer loop
    vertex 24.69267845153809 61.42720794677734 6.000019550323486
    vertex 24.84252738952637 61.78900527954102 1.000021696090698
    vertex 24.84252738952637 61.78897857666016 6.000021934509277
  endloop
endfacet
facet normal 0.7933533191680908 -0.6087614893913269 -3.477565996945486e-06
  outer loop
    vertex 25.08090591430664 62.09966659545898 1.000023484230042
    vertex 24.84252738952637 61.78897857666016 6.000021934509277
    vertex 24.84252738952637 61.78900527954102 1.000021696090698
  endloop
endfacet
facet normal 0.7933533191680908 -0.6087614893913269 -3.477565996945486e-06
  outer loop
    vertex 24.84252738952637 61.78897857666016 6.000021934509277
    vertex 25.08090591430664 62.09966659545898 1.000023484230042
    vertex 25.08090591430664 62.09963989257812 6.000023365020752
  endloop
endfacet
facet normal 0.6087613701820374 -0.7933533787727356 -4.494613222050248e-06
  outer loop
    vertex 25.08090591430664 62.09963989257812 6.000023365020752
    vertex 25.39156532287598 62.33804321289062 1.000024795532227
    vertex 25.39156723022461 62.33801651000977 6.000024795532227
  endloop
endfacet
facet normal 0.6087613701820374 -0.7933533787727356 -4.494613222050248e-06
  outer loop
    vertex 25.39156532287598 62.33804321289062 1.000024795532227
    vertex 25.08090591430664 62.09963989257812 6.000023365020752
    vertex 25.08090591430664 62.09966659545898 1.000023484230042
  endloop
endfacet
facet normal 0.3826833665370941 -0.9238795638084412 -5.205360594118247e-06
  outer loop
    vertex 25.39156723022461 62.33801651000977 6.000024795532227
    vertex 25.75333786010742 62.48789596557617 1.000025510787964
    vertex 25.75333786010742 62.48786544799805 6.000025749206543
  endloop
endfacet
facet normal 0.3826833665370941 -0.9238795638084412 -5.205360594118247e-06
  outer loop
    vertex 25.75333786010742 62.48789596557617 1.000025510787964
    vertex 25.39156723022461 62.33801651000977 6.000024795532227
    vertex 25.39156532287598 62.33804321289062 1.000024795532227
  endloop
endfacet
facet normal 0.1305261254310608 -0.9914448857307434 -5.561370471696137e-06
  outer loop
    vertex 25.75333786010742 62.48786544799805 6.000025749206543
    vertex 26.14156532287598 62.53900527954102 1.000025868415833
    vertex 26.14156723022461 62.53897857666016 6.000025749206543
  endloop
endfacet
facet normal 0.1305261254310608 -0.9914448857307434 -5.561370471696137e-06
  outer loop
    vertex 26.14156532287598 62.53900527954102 1.000025868415833
    vertex 25.75333786010742 62.48786544799805 6.000025749206543
    vertex 25.75333786010742 62.48789596557617 1.000025510787964
  endloop
endfacet
facet normal -0.1305262595415115 -0.9914448261260986 -5.538382538361475e-06
  outer loop
    vertex 26.14156723022461 62.53897857666016 6.000025749206543
    vertex 26.52979469299316 62.48789596557617 1.000025510787964
    vertex 26.52979469299316 62.48786544799805 6.000025272369385
  endloop
endfacet
facet normal -0.1305262595415115 -0.9914448261260986 -5.538382538361475e-06
  outer loop
    vertex 26.52979469299316 62.48789596557617 1.000025510787964
    vertex 26.14156723022461 62.53897857666016 6.000025749206543
    vertex 26.14156532287598 62.53900527954102 1.000025868415833
  endloop
endfacet
facet normal -0.3826835155487061 -0.9238795042037964 -5.137962943990715e-06
  outer loop
    vertex 26.52979469299316 62.48786544799805 6.000025272369385
    vertex 26.89156532287598 62.33804321289062 1.000024676322937
    vertex 26.89156723022461 62.33801651000977 6.000024795532227
  endloop
endfacet
facet normal -0.3826835155487061 -0.9238795042037964 -5.137962943990715e-06
  outer loop
    vertex 26.89156532287598 62.33804321289062 1.000024676322937
    vertex 26.52979469299316 62.48786544799805 6.000025272369385
    vertex 26.52979469299316 62.48789596557617 1.000025510787964
  endloop
endfacet
facet normal -0.6087614893913269 -0.7933533191680908 -4.387399712868501e-06
  outer loop
    vertex 26.89156723022461 62.33801651000977 6.000024795532227
    vertex 27.20222663879395 62.09966659545898 1.000023245811462
    vertex 27.20222663879395 62.09963607788086 6.000023365020752
  endloop
endfacet
facet normal -0.6087614893913269 -0.7933533191680908 -4.387399712868501e-06
  outer loop
    vertex 27.20222663879395 62.09966659545898 1.000023245811462
    vertex 26.89156723022461 62.33801651000977 6.000024795532227
    vertex 26.89156532287598 62.33804321289062 1.000024676322937
  endloop
endfacet
endsolid D65A
