solid 7579
facet normal -4.079568043380277e-06 -1 -2.734336021603667e-06
  outer loop
    vertex 435.16015625 13.37084102630615 0.001885337522253394
    vertex 337.16015625 13.37124061584473 0.300000011920929
    vertex 337.16015625 13.37124156951904 -4.963140900864083e-13
  endloop
endfacet
facet normal -4.079568043380277e-06 -1 -2.734336021603667e-06
  outer loop
    vertex 337.16015625 13.37124061584473 0.300000011920929
    vertex 435.16015625 13.37084102630615 0.001885337522253394
    vertex 435.1601257324219 13.37084102630615 0.3018853366374969
  endloop
endfacet
facet normal -0.02603242360055447 -0.9996610879898071 -3.200837227268494e-06
  outer loop
    vertex 398.5630187988281 38.01669692993164 0.001187817309983075
    vertex 388.7866821289062 38.27128601074219 0.3010014891624451
    vertex 388.7866821289062 38.27128601074219 0.001001485507003963
  endloop
endfacet
facet normal -0.02603242360055447 -0.9996610879898071 -3.200837227268494e-06
  outer loop
    vertex 388.7866821289062 38.27128601074219 0.3010014891624451
    vertex 398.5630187988281 38.01669692993164 0.001187817309983075
    vertex 398.5630187988281 38.01669692993164 0.3011878132820129
  endloop
endfacet
facet normal -0.001675433944910765 0.9999985694885254 2.704170810829964e-06
  outer loop
    vertex 348.7030334472656 29.87910842895508 0.3002006411552429
    vertex 360.313720703125 29.89856338500977 0.0004268765915185213
    vertex 348.7030334472656 29.87911033630371 0.0002006303548114374
  endloop
endfacet
facet normal -0.001675433944910765 0.9999985694885254 2.704170810829964e-06
  outer loop
    vertex 360.313720703125 29.89856338500977 0.0004268765915185213
    vertex 348.7030334472656 29.87910842895508 0.3002006411552429
    vertex 360.313720703125 29.89856147766113 0.3004268705844879
  endloop
endfacet
facet normal -0.9134423136711121 -0.4069682061672211 -1.751673153194133e-05
  outer loop
    vertex 388.7264404296875 38.40647506713867 0.3010003268718719
    vertex 388.7866821289062 38.27128601074219 0.001001485507003963
    vertex 388.7866821289062 38.27128601074219 0.3010014891624451
  endloop
endfacet
facet normal -0.9134423136711121 -0.4069682061672211 -1.751673153194133e-05
  outer loop
    vertex 388.7866821289062 38.27128601074219 0.001001485507003963
    vertex 388.7264404296875 38.40647506713867 0.3010003268718719
    vertex 388.7264404296875 38.40647888183594 0.001000337535515428
  endloop
endfacet
facet normal 0.001652284525334835 0.9999986290931702 2.763931433946709e-06
  outer loop
    vertex 412.0066223144531 29.90021896362305 0.3014341592788696
    vertex 423.6173400878906 29.88103485107422 0.001660414389334619
    vertex 412.0066528320312 29.90021896362305 0.001434167730621994
  endloop
endfacet
facet normal 0.001652284525334835 0.9999986290931702 2.763931433946709e-06
  outer loop
    vertex 423.6173400878906 29.88103485107422 0.001660414389334619
    vertex 412.0066223144531 29.90021896362305 0.3014341592788696
    vertex 423.6173400878906 29.88103485107422 0.301660418510437
  endloop
endfacet
facet normal 0.9997817277908325 -0.02089200727641582 1.789736779755913e-05
  outer loop
    vertex 412.0066528320312 29.90021896362305 0.001434167730621994
    vertex 412.1844177246094 38.40766143798828 0.3014474213123322
    vertex 412.0066223144531 29.90021896362305 0.3014341592788696
  endloop
endfacet
facet normal 0.9997817277908325 -0.02089200727641582 1.789736779755913e-05
  outer loop
    vertex 412.1844177246094 38.40766143798828 0.3014474213123322
    vertex 412.0066528320312 29.90021896362305 0.001434167730621994
    vertex 412.1844177246094 38.40766143798828 0.001447433605790138
  endloop
endfacet
facet normal -1.019453065964626e-05 1 2.734079771471443e-06
  outer loop
    vertex 337.159912109375 55.57386016845703 0.300237238407135
    vertex 435.1598815917969 55.57485961914062 0.00188533600885421
    vertex 337.159912109375 55.5738639831543 0.0002372399612795562
  endloop
endfacet
facet normal -1.019453065964626e-05 1 2.734079771471443e-06
  outer loop
    vertex 435.1598815917969 55.57485961914062 0.00188533600885421
    vertex 337.159912109375 55.57386016845703 0.300237238407135
    vertex 435.1598815917969 55.57485961914062 0.3018853366374969
  endloop
endfacet
facet normal 0.0245514027774334 0.9996985793113708 3.174342737111147e-06
  outer loop
    vertex 386.1619567871094 29.7995662689209 0.3009305596351624
    vertex 395.2037353515625 29.57751274108887 0.001106745097786188
    vertex 386.1619567871094 29.7995662689209 0.0009305570274591446
  endloop
endfacet
facet normal 0.0245514027774334 0.9996985793113708 3.174342737111147e-06
  outer loop
    vertex 395.2037353515625 29.57751274108887 0.001106745097786188
    vertex 386.1619567871094 29.7995662689209 0.3009305596351624
    vertex 395.2037048339844 29.57751083374023 0.3011067509651184
  endloop
endfacet
facet normal -0.931479275226593 0.3637943267822266 -1.573317967995536e-05
  outer loop
    vertex 397.0262756347656 34.41705322265625 0.3011466562747955
    vertex 396.0614929199219 31.94671821594238 0.001123459544032812
    vertex 396.0614624023438 31.94671821594238 0.3011234700679779
  endloop
endfacet
facet normal -0.931479275226593 0.3637943267822266 -1.573317967995536e-05
  outer loop
    vertex 396.0614929199219 31.94671821594238 0.001123459544032812
    vertex 397.0262756347656 34.41705322265625 0.3011466562747955
    vertex 397.0262756347656 34.41705322265625 0.001146642491221428
  endloop
endfacet
facet normal 0.0260548610240221 -0.9996604919433594 -2.265430566694704e-06
  outer loop
    vertex 383.533447265625 38.2711296081543 0.0009013618691824377
    vertex 373.7577514648438 38.01633834838867 0.3007150292396545
    vertex 373.7577514648438 38.01633834838867 0.000715042173396796
  endloop
endfacet
facet normal 0.0260548610240221 -0.9996604919433594 -2.265430566694704e-06
  outer loop
    vertex 373.7577514648438 38.01633834838867 0.3007150292396545
    vertex 383.533447265625 38.2711296081543 0.0009013618691824377
    vertex 383.533447265625 38.27112579345703 0.3009013533592224
  endloop
endfacet
facet normal 0.9314821362495422 0.3637870848178864 1.77226283994969e-05
  outer loop
    vertex 376.2591247558594 31.94666481018066 0.0007375895511358976
    vertex 375.2943420410156 34.41697692871094 0.3007256686687469
    vertex 376.2590942382812 31.94666481018066 0.300737589597702
  endloop
endfacet
facet normal 0.9314821362495422 0.3637870848178864 1.77226283994969e-05
  outer loop
    vertex 375.2943420410156 34.41697692871094 0.3007256686687469
    vertex 376.2591247558594 31.94666481018066 0.0007375895511358976
    vertex 375.2943420410156 34.41697692871094 0.000725670310202986
  endloop
endfacet
facet normal -0.02603242360055447 -0.9996610879898071 -3.200837227268494e-06
  outer loop
    vertex 386.1619567871094 38.33963775634766 0.000951459864154458
    vertex 383.5937805175781 38.40651702880859 0.3009025156497955
    vertex 383.5937805175781 38.40651702880859 0.0009025115286931396
  endloop
endfacet
facet normal -0.02603242360055447 -0.9996610879898071 -3.200837227268494e-06
  outer loop
    vertex 383.5937805175781 38.40651702880859 0.3009025156497955
    vertex 386.1619567871094 38.33963775634766 0.000951459864154458
    vertex 386.1619567871094 38.33963775634766 0.3009514510631561
  endloop
endfacet
facet normal 0.9997819662094116 0.02088111825287342 1.801158941816539e-05
  outer loop
    vertex 348.7030334472656 29.87911033630371 0.0002006303548114374
    vertex 348.525390625 38.38458633422852 0.3002341389656067
    vertex 348.7030334472656 29.87910842895508 0.3002006411552429
  endloop
endfacet
facet normal 0.9997819662094116 0.02088111825287342 1.801158941816539e-05
  outer loop
    vertex 348.525390625 38.38458633422852 0.3002341389656067
    vertex 348.7030334472656 29.87911033630371 0.0002006303548114374
    vertex 348.525390625 38.38459014892578 0.0002341272484045476
  endloop
endfacet
facet normal -0.9402729272842407 0.3404214978218079 -1.595500543771777e-05
  outer loop
    vertex 396.0614624023438 31.94671821594238 0.3011234700679779
    vertex 395.2037353515625 29.57751274108887 0.001106745097786188
    vertex 395.2037048339844 29.57751083374023 0.3011067509651184
  endloop
endfacet
facet normal -0.9402729272842407 0.3404214978218079 -1.595500543771777e-05
  outer loop
    vertex 395.2037353515625 29.57751274108887 0.001106745097786188
    vertex 396.0614624023438 31.94671821594238 0.3011234700679779
    vertex 396.0614929199219 31.94671821594238 0.001123459544032812
  endloop
endfacet
facet normal 1.795841126295272e-05 2.734262807280174e-06 -1
  outer loop
    vertex 337.159912109375 55.5738639831543 0.0002372399612795562
    vertex 348.525390625 38.38459014892578 0.0002341272484045476
    vertex 337.16015625 13.37124156951904 -4.963140900864083e-13
  endloop
endfacet
facet normal 1.795841126295272e-05 2.734262807280174e-06 -1
  outer loop
    vertex 348.525390625 38.38459014892578 0.0002341272484045476
    vertex 337.159912109375 55.5738639831543 0.0002372399612795562
    vertex 435.1598815917969 55.57485961914062 0.00188533600885421
  endloop
endfacet
facet normal 1.795841126295272e-05 2.734262807280174e-06 -1
  outer loop
    vertex 348.525390625 38.38459014892578 0.0002341272484045476
    vertex 435.1598815917969 55.57485961914062 0.00188533600885421
    vertex 360.1359558105469 38.40521621704102 0.0004554183105938137
  endloop
endfacet
facet normal 1.795841126295272e-05 2.734262807280174e-06 -1
  outer loop
    vertex 360.1359558105469 38.40521621704102 0.0004554183105938137
    vertex 435.1598815917969 55.57485961914062 0.00188533600885421
    vertex 373.7577514648438 38.01633834838867 0.000715042173396796
  endloop
endfacet
facet normal 1.795841126295272e-05 2.734262807280174e-06 -1
  outer loop
    vertex 360.1359558105469 38.40521621704102 0.0004554183105938137
    vertex 373.7577514648438 38.01633834838867 0.000715042173396796
    vertex 360.313720703125 29.89856338500977 0.0004268765915185213
  endloop
endfacet
facet normal 1.795841126295272e-05 2.734262807280174e-06 -1
  outer loop
    vertex 373.7577514648438 38.01633834838867 0.000715042173396796
    vertex 435.1598815917969 55.57485961914062 0.00188533600885421
    vertex 383.5937805175781 38.40651702880859 0.0009025115286931396
  endloop
endfacet
facet normal 1.795841126295272e-05 2.734262807280174e-06 -1
  outer loop
    vertex 373.7577514648438 38.01633834838867 0.000715042173396796
    vertex 383.5937805175781 38.40651702880859 0.0009025115286931396
    vertex 383.533447265625 38.2711296081543 0.0009013618691824377
  endloop
endfacet
facet normal 1.795841126295272e-05 2.734262807280174e-06 -1
  outer loop
    vertex 383.5937805175781 38.40651702880859 0.0009025115286931396
    vertex 435.1598815917969 55.57485961914062 0.00188533600885421
    vertex 386.1619567871094 38.33963775634766 0.000951459864154458
  endloop
endfacet
facet normal 1.795841126295272e-05 2.734262807280174e-06 -1
  outer loop
    vertex 386.1619567871094 38.33963775634766 0.000951459864154458
    vertex 435.1598815917969 55.57485961914062 0.00188533600885421
    vertex 388.7264404296875 38.40647888183594 0.001000337535515428
  endloop
endfacet
facet normal 1.795841126295272e-05 2.734262807280174e-06 -1
  outer loop
    vertex 388.7264404296875 38.40647888183594 0.001000337535515428
    vertex 435.1598815917969 55.57485961914062 0.00188533600885421
    vertex 388.7866821289062 38.27128601074219 0.001001485507003963
  endloop
endfacet
facet normal 1.795841126295272e-05 2.734262807280174e-06 -1
  outer loop
    vertex 388.7866821289062 38.27128601074219 0.001001485507003963
    vertex 435.1598815917969 55.57485961914062 0.00188533600885421
    vertex 398.5630187988281 38.01669692993164 0.001187817309983075
  endloop
endfacet
facet normal 1.795841126295272e-05 2.734262807280174e-06 -1
  outer loop
    vertex 398.5630187988281 38.01669692993164 0.001187817309983075
    vertex 435.1598815917969 55.57485961914062 0.00188533600885421
    vertex 412.1844177246094 38.40766143798828 0.001447433605790138
  endloop
endfacet
facet normal 1.795841126295272e-05 2.734262807280174e-06 -1
  outer loop
    vertex 398.5630187988281 38.01669692993164 0.001187817309983075
    vertex 412.1844177246094 38.40766143798828 0.001447433605790138
    vertex 412.0066528320312 29.90021896362305 0.001434167730621994
  endloop
endfacet
facet normal 1.795841126295272e-05 2.734262807280174e-06 -1
  outer loop
    vertex 412.1844177246094 38.40766143798828 0.001447433605790138
    vertex 435.1598815917969 55.57485961914062 0.00188533600885421
    vertex 423.7950134277344 38.38736724853516 0.0016687250463292
  endloop
endfacet
facet normal 1.795841126295272e-05 2.734262807280174e-06 -1
  outer loop
    vertex 337.16015625 13.37124156951904 -4.963140900864083e-13
    vertex 348.7030334472656 29.87911033630371 0.0002006303548114374
    vertex 435.16015625 13.37084102630615 0.001885337522253394
  endloop
endfacet
facet normal 1.795841126295272e-05 2.734262807280174e-06 -1
  outer loop
    vertex 348.7030334472656 29.87911033630371 0.0002006303548114374
    vertex 337.16015625 13.37124156951904 -4.963140900864083e-13
    vertex 348.525390625 38.38459014892578 0.0002341272484045476
  endloop
endfacet
facet normal 1.795841126295272e-05 2.734262807280174e-06 -1
  outer loop
    vertex 435.16015625 13.37084102630615 0.001885337522253394
    vertex 348.7030334472656 29.87911033630371 0.0002006303548114374
    vertex 360.313720703125 29.89856338500977 0.0004268765915185213
  endloop
endfacet
facet normal 1.795841126295272e-05 2.734262807280174e-06 -1
  outer loop
    vertex 435.16015625 13.37084102630615 0.001885337522253394
    vertex 360.313720703125 29.89856338500977 0.0004268765915185213
    vertex 377.1169128417969 29.57727432250977 0.0007543045794591308
  endloop
endfacet
facet normal 1.795841126295272e-05 2.734262807280174e-06 -1
  outer loop
    vertex 377.1169128417969 29.57727432250977 0.0007543045794591308
    vertex 360.313720703125 29.89856338500977 0.0004268765915185213
    vertex 373.7577514648438 38.01633834838867 0.000715042173396796
  endloop
endfacet
facet normal 1.795841126295272e-05 2.734262807280174e-06 -1
  outer loop
    vertex 377.1169128417969 29.57727432250977 0.0007543045794591308
    vertex 373.7577514648438 38.01633834838867 0.000715042173396796
    vertex 375.2943420410156 34.41697692871094 0.000725670310202986
  endloop
endfacet
facet normal 1.795841126295272e-05 2.734262807280174e-06 -1
  outer loop
    vertex 377.1169128417969 29.57727432250977 0.0007543045794591308
    vertex 375.2943420410156 34.41697692871094 0.000725670310202986
    vertex 376.2591247558594 31.94666481018066 0.0007375895511358976
  endloop
endfacet
facet normal 1.795841126295272e-05 2.734262807280174e-06 -1
  outer loop
    vertex 435.16015625 13.37084102630615 0.001885337522253394
    vertex 377.1169128417969 29.57727432250977 0.0007543045794591308
    vertex 386.1619567871094 29.7995662689209 0.0009305570274591446
  endloop
endfacet
facet normal 1.795841126295272e-05 2.734262807280174e-06 -1
  outer loop
    vertex 435.16015625 13.37084102630615 0.001885337522253394
    vertex 386.1619567871094 29.7995662689209 0.0009305570274591446
    vertex 395.2037353515625 29.57751274108887 0.001106745097786188
  endloop
endfacet
facet normal 1.795841126295272e-05 2.734262807280174e-06 -1
  outer loop
    vertex 435.16015625 13.37084102630615 0.001885337522253394
    vertex 395.2037353515625 29.57751274108887 0.001106745097786188
    vertex 396.0614929199219 31.94671821594238 0.001123459544032812
  endloop
endfacet
facet normal 1.795841126295272e-05 2.734262807280174e-06 -1
  outer loop
    vertex 435.16015625 13.37084102630615 0.001885337522253394
    vertex 396.0614929199219 31.94671821594238 0.001123459544032812
    vertex 397.0262756347656 34.41705322265625 0.001146642491221428
  endloop
endfacet
facet normal 1.795841126295272e-05 2.734262807280174e-06 -1
  outer loop
    vertex 435.16015625 13.37084102630615 0.001885337522253394
    vertex 397.0262756347656 34.41705322265625 0.001146642491221428
    vertex 398.5630187988281 38.01669692993164 0.001187817309983075
  endloop
endfacet
facet normal 1.795841126295272e-05 2.734262807280174e-06 -1
  outer loop
    vertex 435.16015625 13.37084102630615 0.001885337522253394
    vertex 398.5630187988281 38.01669692993164 0.001187817309983075
    vertex 412.0066528320312 29.90021896362305 0.001434167730621994
  endloop
endfacet
facet normal 1.795841126295272e-05 2.734262807280174e-06 -1
  outer loop
    vertex 435.16015625 13.37084102630615 0.001885337522253394
    vertex 412.0066528320312 29.90021896362305 0.001434167730621994
    vertex 423.6173400878906 29.88103485107422 0.001660414389334619
  endloop
endfacet
facet normal 1.795841126295272e-05 2.734262807280174e-06 -1
  outer loop
    vertex 435.16015625 13.37084102630615 0.001885337522253394
    vertex 423.6173400878906 29.88103485107422 0.001660414389334619
    vertex 423.7950134277344 38.38736724853516 0.0016687250463292
  endloop
endfacet
facet normal 1.795841126295272e-05 2.734262807280174e-06 -1
  outer loop
    vertex 435.16015625 13.37084102630615 0.001885337522253394
    vertex 423.7950134277344 38.38736724853516 0.0016687250463292
    vertex 435.1598815917969 55.57485961914062 0.00188533600885421
  endloop
endfacet
facet normal -0.9997819662094116 0.02088182978332043 -1.789739872037899e-05
  outer loop
    vertex 423.7950134277344 38.38736343383789 0.3016687333583832
    vertex 423.6173400878906 29.88103485107422 0.001660414389334619
    vertex 423.6173400878906 29.88103485107422 0.301660418510437
  endloop
endfacet
facet normal -0.9997819662094116 0.02088182978332043 -1.789739872037899e-05
  outer loop
    vertex 423.6173400878906 29.88103485107422 0.001660414389334619
    vertex 423.7950134277344 38.38736343383789 0.3016687333583832
    vertex 423.7950134277344 38.38736724853516 0.0016687250463292
  endloop
endfacet
facet normal 0.9402761459350586 0.3404125869274139 1.781664286681917e-05
  outer loop
    vertex 377.1169128417969 29.57727432250977 0.0007543045794591308
    vertex 376.2590942382812 31.94666481018066 0.300737589597702
    vertex 377.1169128417969 29.57727432250977 0.3007543087005615
  endloop
endfacet
facet normal 0.9402761459350586 0.3404125869274139 1.781664286681917e-05
  outer loop
    vertex 376.2590942382812 31.94666481018066 0.300737589597702
    vertex 377.1169128417969 29.57727432250977 0.0007543045794591308
    vertex 376.2591247558594 31.94666481018066 0.0007375895511358976
  endloop
endfacet
facet normal 0.001776636345311999 -0.9999984502792358 -2.702352958294796e-06
  outer loop
    vertex 360.1359558105469 38.40521621704102 0.0004554183105938137
    vertex 348.525390625 38.38458633422852 0.3002341389656067
    vertex 348.525390625 38.38459014892578 0.0002341272484045476
  endloop
endfacet
facet normal 0.001776636345311999 -0.9999984502792358 -2.702352958294796e-06
  outer loop
    vertex 348.525390625 38.38458633422852 0.3002341389656067
    vertex 360.1359558105469 38.40521621704102 0.0004554183105938137
    vertex 360.1359558105469 38.40521621704102 0.3004554212093353
  endloop
endfacet
facet normal -0.9997817277908325 -0.02089127898216248 -1.801161306502763e-05
  outer loop
    vertex 360.1359558105469 38.40521621704102 0.3004554212093353
    vertex 360.313720703125 29.89856338500977 0.0004268765915185213
    vertex 360.313720703125 29.89856147766113 0.3004268705844879
  endloop
endfacet
facet normal -0.9997817277908325 -0.02089127898216248 -1.801161306502763e-05
  outer loop
    vertex 360.313720703125 29.89856338500977 0.0004268765915185213
    vertex 360.1359558105469 38.40521621704102 0.3004554212093353
    vertex 360.1359558105469 38.40521621704102 0.0004554183105938137
  endloop
endfacet
facet normal -0.001748079084791243 -0.9999984502792358 -2.765651288427762e-06
  outer loop
    vertex 423.7950134277344 38.38736724853516 0.0016687250463292
    vertex 412.1844177246094 38.40766143798828 0.3014474213123322
    vertex 412.1844177246094 38.40766143798828 0.001447433605790138
  endloop
endfacet
facet normal -0.001748079084791243 -0.9999984502792358 -2.765651288427762e-06
  outer loop
    vertex 412.1844177246094 38.40766143798828 0.3014474213123322
    vertex 423.7950134277344 38.38736724853516 0.0016687250463292
    vertex 423.7950134277344 38.38736343383789 0.3016687333583832
  endloop
endfacet
facet normal 1 6.099620804889128e-06 1.795842763385735e-05
  outer loop
    vertex 435.16015625 13.37084102630615 0.001885337522253394
    vertex 435.1598815917969 55.57485961914062 0.3018853366374969
    vertex 435.1601257324219 13.37084102630615 0.3018853366374969
  endloop
endfacet
facet normal 1 6.099620804889128e-06 1.795842763385735e-05
  outer loop
    vertex 435.1598815917969 55.57485961914062 0.3018853366374969
    vertex 435.16015625 13.37084102630615 0.001885337522253394
    vertex 435.1598815917969 55.57485961914062 0.00188533600885421
  endloop
endfacet
facet normal -1.795841126295272e-05 -2.734262807280174e-06 1
  outer loop
    vertex 337.16015625 13.37124061584473 0.300000011920929
    vertex 348.7030334472656 29.87910842895508 0.3002006411552429
    vertex 348.525390625 38.38458633422852 0.3002341389656067
  endloop
endfacet
facet normal -1.795841126295272e-05 -2.734262807280174e-06 1
  outer loop
    vertex 348.7030334472656 29.87910842895508 0.3002006411552429
    vertex 337.16015625 13.37124061584473 0.300000011920929
    vertex 435.1601257324219 13.37084102630615 0.3018853366374969
  endloop
endfacet
facet normal -1.795841126295272e-05 -2.734262807280174e-06 1
  outer loop
    vertex 348.7030334472656 29.87910842895508 0.3002006411552429
    vertex 435.1601257324219 13.37084102630615 0.3018853366374969
    vertex 360.313720703125 29.89856147766113 0.3004268705844879
  endloop
endfacet
facet normal -1.795841126295272e-05 -2.734262807280174e-06 1
  outer loop
    vertex 360.313720703125 29.89856147766113 0.3004268705844879
    vertex 435.1601257324219 13.37084102630615 0.3018853366374969
    vertex 377.1169128417969 29.57727432250977 0.3007543087005615
  endloop
endfacet
facet normal -1.795841126295272e-05 -2.734262807280174e-06 1
  outer loop
    vertex 360.313720703125 29.89856147766113 0.3004268705844879
    vertex 377.1169128417969 29.57727432250977 0.3007543087005615
    vertex 373.7577514648438 38.01633834838867 0.3007150292396545
  endloop
endfacet
facet normal -1.795841126295272e-05 -2.734262807280174e-06 1
  outer loop
    vertex 373.7577514648438 38.01633834838867 0.3007150292396545
    vertex 377.1169128417969 29.57727432250977 0.3007543087005615
    vertex 375.2943420410156 34.41697692871094 0.3007256686687469
  endloop
endfacet
facet normal -1.795841126295272e-05 -2.734262807280174e-06 1
  outer loop
    vertex 375.2943420410156 34.41697692871094 0.3007256686687469
    vertex 377.1169128417969 29.57727432250977 0.3007543087005615
    vertex 376.2590942382812 31.94666481018066 0.300737589597702
  endloop
endfacet
facet normal -1.795841126295272e-05 -2.734262807280174e-06 1
  outer loop
    vertex 377.1169128417969 29.57727432250977 0.3007543087005615
    vertex 435.1601257324219 13.37084102630615 0.3018853366374969
    vertex 386.1619567871094 29.7995662689209 0.3009305596351624
  endloop
endfacet
facet normal -1.795841126295272e-05 -2.734262807280174e-06 1
  outer loop
    vertex 386.1619567871094 29.7995662689209 0.3009305596351624
    vertex 435.1601257324219 13.37084102630615 0.3018853366374969
    vertex 395.2037048339844 29.57751083374023 0.3011067509651184
  endloop
endfacet
facet normal -1.795841126295272e-05 -2.734262807280174e-06 1
  outer loop
    vertex 395.2037048339844 29.57751083374023 0.3011067509651184
    vertex 435.1601257324219 13.37084102630615 0.3018853366374969
    vertex 396.0614624023438 31.94671821594238 0.3011234700679779
  endloop
endfacet
facet normal -1.795841126295272e-05 -2.734262807280174e-06 1
  outer loop
    vertex 396.0614624023438 31.94671821594238 0.3011234700679779
    vertex 435.1601257324219 13.37084102630615 0.3018853366374969
    vertex 397.0262756347656 34.41705322265625 0.3011466562747955
  endloop
endfacet
facet normal -1.795841126295272e-05 -2.734262807280174e-06 1
  outer loop
    vertex 397.0262756347656 34.41705322265625 0.3011466562747955
    vertex 435.1601257324219 13.37084102630615 0.3018853366374969
    vertex 398.5630187988281 38.01669692993164 0.3011878132820129
  endloop
endfacet
facet normal -1.795841126295272e-05 -2.734262807280174e-06 1
  outer loop
    vertex 398.5630187988281 38.01669692993164 0.3011878132820129
    vertex 435.1601257324219 13.37084102630615 0.3018853366374969
    vertex 412.0066223144531 29.90021896362305 0.3014341592788696
  endloop
endfacet
facet normal -1.795841126295272e-05 -2.734262807280174e-06 1
  outer loop
    vertex 412.0066223144531 29.90021896362305 0.3014341592788696
    vertex 435.1601257324219 13.37084102630615 0.3018853366374969
    vertex 423.6173400878906 29.88103485107422 0.301660418510437
  endloop
endfacet
facet normal -1.795841126295272e-05 -2.734262807280174e-06 1
  outer loop
    vertex 423.6173400878906 29.88103485107422 0.301660418510437
    vertex 435.1601257324219 13.37084102630615 0.3018853366374969
    vertex 423.7950134277344 38.38736343383789 0.3016687333583832
  endloop
endfacet
facet normal -1.795841126295272e-05 -2.734262807280174e-06 1
  outer loop
    vertex 423.7950134277344 38.38736343383789 0.3016687333583832
    vertex 435.1601257324219 13.37084102630615 0.3018853366374969
    vertex 435.1598815917969 55.57485961914062 0.3018853366374969
  endloop
endfacet
facet normal -1.795841126295272e-05 -2.734262807280174e-06 1
  outer loop
    vertex 337.159912109375 55.57386016845703 0.300237238407135
    vertex 348.525390625 38.38458633422852 0.3002341389656067
    vertex 435.1598815917969 55.57485961914062 0.3018853366374969
  endloop
endfacet
facet normal -1.795841126295272e-05 -2.734262807280174e-06 1
  outer loop
    vertex 348.525390625 38.38458633422852 0.3002341389656067
    vertex 337.159912109375 55.57386016845703 0.300237238407135
    vertex 337.16015625 13.37124061584473 0.300000011920929
  endloop
endfacet
facet normal -1.795841126295272e-05 -2.734262807280174e-06 1
  outer loop
    vertex 435.1598815917969 55.57485961914062 0.3018853366374969
    vertex 348.525390625 38.38458633422852 0.3002341389656067
    vertex 360.1359558105469 38.40521621704102 0.3004554212093353
  endloop
endfacet
facet normal -1.795841126295272e-05 -2.734262807280174e-06 1
  outer loop
    vertex 435.1598815917969 55.57485961914062 0.3018853366374969
    vertex 360.1359558105469 38.40521621704102 0.3004554212093353
    vertex 373.7577514648438 38.01633834838867 0.3007150292396545
  endloop
endfacet
facet normal -1.795841126295272e-05 -2.734262807280174e-06 1
  outer loop
    vertex 373.7577514648438 38.01633834838867 0.3007150292396545
    vertex 360.1359558105469 38.40521621704102 0.3004554212093353
    vertex 360.313720703125 29.89856147766113 0.3004268705844879
  endloop
endfacet
facet normal -1.795841126295272e-05 -2.734262807280174e-06 1
  outer loop
    vertex 435.1598815917969 55.57485961914062 0.3018853366374969
    vertex 373.7577514648438 38.01633834838867 0.3007150292396545
    vertex 383.5937805175781 38.40651702880859 0.3009025156497955
  endloop
endfacet
facet normal -1.795841126295272e-05 -2.734262807280174e-06 1
  outer loop
    vertex 383.5937805175781 38.40651702880859 0.3009025156497955
    vertex 373.7577514648438 38.01633834838867 0.3007150292396545
    vertex 383.533447265625 38.27112579345703 0.3009013533592224
  endloop
endfacet
facet normal -1.795841126295272e-05 -2.734262807280174e-06 1
  outer loop
    vertex 435.1598815917969 55.57485961914062 0.3018853366374969
    vertex 383.5937805175781 38.40651702880859 0.3009025156497955
    vertex 386.1619567871094 38.33963775634766 0.3009514510631561
  endloop
endfacet
facet normal -1.795841126295272e-05 -2.734262807280174e-06 1
  outer loop
    vertex 435.1598815917969 55.57485961914062 0.3018853366374969
    vertex 386.1619567871094 38.33963775634766 0.3009514510631561
    vertex 388.7264404296875 38.40647506713867 0.3010003268718719
  endloop
endfacet
facet normal -1.795841126295272e-05 -2.734262807280174e-06 1
  outer loop
    vertex 435.1598815917969 55.57485961914062 0.3018853366374969
    vertex 388.7264404296875 38.40647506713867 0.3010003268718719
    vertex 388.7866821289062 38.27128601074219 0.3010014891624451
  endloop
endfacet
facet normal -1.795841126295272e-05 -2.734262807280174e-06 1
  outer loop
    vertex 435.1598815917969 55.57485961914062 0.3018853366374969
    vertex 388.7866821289062 38.27128601074219 0.3010014891624451
    vertex 398.5630187988281 38.01669692993164 0.3011878132820129
  endloop
endfacet
facet normal -1.795841126295272e-05 -2.734262807280174e-06 1
  outer loop
    vertex 435.1598815917969 55.57485961914062 0.3018853366374969
    vertex 398.5630187988281 38.01669692993164 0.3011878132820129
    vertex 412.1844177246094 38.40766143798828 0.3014474213123322
  endloop
endfacet
facet normal -1.795841126295272e-05 -2.734262807280174e-06 1
  outer loop
    vertex 412.1844177246094 38.40766143798828 0.3014474213123322
    vertex 398.5630187988281 38.01669692993164 0.3011878132820129
    vertex 412.0066223144531 29.90021896362305 0.3014341592788696
  endloop
endfacet
facet normal -1.795841126295272e-05 -2.734262807280174e-06 1
  outer loop
    vertex 435.1598815917969 55.57485961914062 0.3018853366374969
    vertex 412.1844177246094 38.40766143798828 0.3014474213123322
    vertex 423.7950134277344 38.38736343383789 0.3016687333583832
  endloop
endfacet
facet normal -0.9196956753730774 0.3926319479942322 -1.544271435705014e-05
  outer loop
    vertex 398.5630187988281 38.01669692993164 0.3011878132820129
    vertex 397.0262756347656 34.41705322265625 0.001146642491221428
    vertex 397.0262756347656 34.41705322265625 0.3011466562747955
  endloop
endfacet
facet normal -0.9196956753730774 0.3926319479942322 -1.544271435705014e-05
  outer loop
    vertex 397.0262756347656 34.41705322265625 0.001146642491221428
    vertex 398.5630187988281 38.01669692993164 0.3011878132820129
    vertex 398.5630187988281 38.01669692993164 0.001187817309983075
  endloop
endfacet
facet normal -0.02456873655319214 0.9996981620788574 2.29222200687218e-06
  outer loop
    vertex 377.1169128417969 29.57727432250977 0.3007543087005615
    vertex 386.1619567871094 29.7995662689209 0.0009305570274591446
    vertex 377.1169128417969 29.57727432250977 0.0007543045794591308
  endloop
endfacet
facet normal -0.02456873655319214 0.9996981620788574 2.29222200687218e-06
  outer loop
    vertex 386.1619567871094 29.7995662689209 0.0009305570274591446
    vertex 377.1169128417969 29.57727432250977 0.3007543087005615
    vertex 386.1619567871094 29.7995662689209 0.3009305596351624
  endloop
endfacet
facet normal -1 -6.099722213548375e-06 -1.795842763385735e-05
  outer loop
    vertex 337.159912109375 55.57386016845703 0.300237238407135
    vertex 337.16015625 13.37124156951904 -4.963140900864083e-13
    vertex 337.16015625 13.37124061584473 0.300000011920929
  endloop
endfacet
facet normal -1 -6.099722213548375e-06 -1.795842763385735e-05
  outer loop
    vertex 337.16015625 13.37124156951904 -4.963140900864083e-13
    vertex 337.159912109375 55.57386016845703 0.300237238407135
    vertex 337.159912109375 55.5738639831543 0.0002372399612795562
  endloop
endfacet
facet normal 0.9196987152099609 0.3926247954368591 1.75898676388897e-05
  outer loop
    vertex 375.2943420410156 34.41697692871094 0.000725670310202986
    vertex 373.7577514648438 38.01633834838867 0.3007150292396545
    vertex 375.2943420410156 34.41697692871094 0.3007256686687469
  endloop
endfacet
facet normal 0.9196987152099609 0.3926247954368591 1.75898676388897e-05
  outer loop
    vertex 373.7577514648438 38.01633834838867 0.3007150292396545
    vertex 375.2943420410156 34.41697692871094 0.000725670310202986
    vertex 373.7577514648438 38.01633834838867 0.000715042173396796
  endloop
endfacet
facet normal 0.0260548610240221 -0.9996604919433594 -2.265430566694704e-06
  outer loop
    vertex 388.7264404296875 38.40647888183594 0.001000337535515428
    vertex 386.1619567871094 38.33963775634766 0.3009514510631561
    vertex 386.1619567871094 38.33963775634766 0.000951459864154458
  endloop
endfacet
facet normal 0.0260548610240221 -0.9996604919433594 -2.265430566694704e-06
  outer loop
    vertex 386.1619567871094 38.33963775634766 0.3009514510631561
    vertex 388.7264404296875 38.40647888183594 0.001000337535515428
    vertex 388.7264404296875 38.40647506713867 0.3010003268718719
  endloop
endfacet
facet normal 0.9134382009506226 -0.4069774150848389 1.529111614217982e-05
  outer loop
    vertex 383.533447265625 38.2711296081543 0.0009013618691824377
    vertex 383.5937805175781 38.40651702880859 0.3009025156497955
    vertex 383.533447265625 38.27112579345703 0.3009013533592224
  endloop
endfacet
facet normal 0.9134382009506226 -0.4069774150848389 1.529111614217982e-05
  outer loop
    vertex 383.5937805175781 38.40651702880859 0.3009025156497955
    vertex 383.533447265625 38.2711296081543 0.0009013618691824377
    vertex 383.5937805175781 38.40651702880859 0.0009025115286931396
  endloop
endfacet
endsolid 7579
