solid B043
facet normal -6.265974548114173e-07 -5.697583205233059e-08 -1
  outer loop
    vertex 2.390119334449992e-05 108.5733184814453 0.4545403718948364
    vertex 12.0621976852417 87.88510131835938 0.4545426964759827
    vertex 4.494751556194387e-05 62.78384399414062 0.4545453190803528
  endloop
endfacet
facet normal -6.265974548114173e-07 -5.697583205233059e-08 -1
  outer loop
    vertex 12.0621976852417 87.88510131835938 0.4545426964759827
    vertex 2.390119334449992e-05 108.5733184814453 0.4545403718948364
    vertex 98.99996948242188 108.5733489990234 0.4544854462146759
  endloop
endfacet
facet normal -6.265974548114173e-07 -5.697583205233059e-08 -1
  outer loop
    vertex 12.0621976852417 87.88510131835938 0.4545426964759827
    vertex 98.99996948242188 108.5733489990234 0.4544854462146759
    vertex 23.67282485961914 87.905029296875 0.4545350968837738
  endloop
endfacet
facet normal -6.265974548114173e-07 -5.697583205233059e-08 -1
  outer loop
    vertex 23.67282485961914 87.905029296875 0.4545350968837738
    vertex 98.99996948242188 108.5733489990234 0.4544854462146759
    vertex 40.66219329833984 88.02236938476562 0.4545239508152008
  endloop
endfacet
facet normal -6.265974548114173e-07 -5.697583205233059e-08 -1
  outer loop
    vertex 23.67282485961914 87.905029296875 0.4545350968837738
    vertex 40.66219329833984 88.02236938476562 0.4545239508152008
    vertex 23.82075309753418 79.67095184326172 0.4545345604419708
  endloop
endfacet
facet normal -6.265974548114173e-07 -5.697583205233059e-08 -1
  outer loop
    vertex 23.82075309753418 79.67095184326172 0.4545345604419708
    vertex 40.66219329833984 88.02236938476562 0.4545239508152008
    vertex 40.21719741821289 79.32671356201172 0.4545240998268127
  endloop
endfacet
facet normal -6.265974548114173e-07 -5.697583205233059e-08 -1
  outer loop
    vertex 40.21719741821289 79.32671356201172 0.4545240998268127
    vertex 40.66219329833984 88.02236938476562 0.4545239508152008
    vertex 40.44389343261719 80.22240447998047 0.4545227289199829
  endloop
endfacet
facet normal -6.265974548114173e-07 -5.697583205233059e-08 -1
  outer loop
    vertex 40.66219329833984 88.02236938476562 0.4545239508152008
    vertex 98.99996948242188 108.5733489990234 0.4544854462146759
    vertex 49.50186157226562 87.79861450195312 0.4545181095600128
  endloop
endfacet
facet normal -6.265974548114173e-07 -5.697583205233059e-08 -1
  outer loop
    vertex 49.50186157226562 87.79861450195312 0.4545181095600128
    vertex 98.99996948242188 108.5733489990234 0.4544854462146759
    vertex 58.33782577514648 88.02227020263672 0.4545123875141144
  endloop
endfacet
facet normal -6.265974548114173e-07 -5.697583205233059e-08 -1
  outer loop
    vertex 58.33782577514648 88.02227020263672 0.4545123875141144
    vertex 98.99996948242188 108.5733489990234 0.4544854462146759
    vertex 58.55618286132812 80.22240447998047 0.4545105993747711
  endloop
endfacet
facet normal -6.265974548114173e-07 -5.697583205233059e-08 -1
  outer loop
    vertex 58.55618286132812 80.22240447998047 0.4545105993747711
    vertex 98.99996948242188 108.5733489990234 0.4544854462146759
    vertex 58.76275634765625 79.40624237060547 0.4545127749443054
  endloop
endfacet
facet normal -6.265974548114173e-07 -5.697583205233059e-08 -1
  outer loop
    vertex 58.76275634765625 79.40624237060547 0.4545127749443054
    vertex 98.99996948242188 108.5733489990234 0.4544854462146759
    vertex 75.3272705078125 87.90615844726562 0.454501211643219
  endloop
endfacet
facet normal -6.265974548114173e-07 -5.697583205233059e-08 -1
  outer loop
    vertex 58.76275634765625 79.40624237060547 0.4545127749443054
    vertex 75.3272705078125 87.90615844726562 0.454501211643219
    vertex 75.17932891845703 79.67157745361328 0.4545003175735474
  endloop
endfacet
facet normal -6.265974548114173e-07 -5.697583205233059e-08 -1
  outer loop
    vertex 75.3272705078125 87.90615844726562 0.454501211643219
    vertex 98.99996948242188 108.5733489990234 0.4544854462146759
    vertex 86.93789672851562 87.88629913330078 0.4544935822486877
  endloop
endfacet
facet normal -6.265974548114173e-07 -5.697583205233059e-08 -1
  outer loop
    vertex 86.93789672851562 87.88629913330078 0.4544935822486877
    vertex 98.99996948242188 108.5733489990234 0.4544854462146759
    vertex 98.99996185302734 62.78387069702148 0.4544854462146759
  endloop
endfacet
facet normal -6.265974548114173e-07 -5.697583205233059e-08 -1
  outer loop
    vertex 4.494751556194387e-05 62.78384399414062 0.4545453190803528
    vertex 12.2099437713623 79.65253448486328 0.454542338848114
    vertex 98.99996185302734 62.78387069702148 0.4544854462146759
  endloop
endfacet
facet normal -6.265974548114173e-07 -5.697583205233059e-08 -1
  outer loop
    vertex 12.2099437713623 79.65253448486328 0.454542338848114
    vertex 4.494751556194387e-05 62.78384399414062 0.4545453190803528
    vertex 12.0621976852417 87.88510131835938 0.4545426964759827
  endloop
endfacet
facet normal -6.265974548114173e-07 -5.697583205233059e-08 -1
  outer loop
    vertex 98.99996185302734 62.78387069702148 0.4544854462146759
    vertex 12.2099437713623 79.65253448486328 0.454542338848114
    vertex 23.82075309753418 79.67095184326172 0.4545345604419708
  endloop
endfacet
facet normal -6.265974548114173e-07 -5.697583205233059e-08 -1
  outer loop
    vertex 98.99996185302734 62.78387069702148 0.4544854462146759
    vertex 23.82075309753418 79.67095184326172 0.4545345604419708
    vertex 40.21719741821289 79.32671356201172 0.4545240998268127
  endloop
endfacet
facet normal -6.265974548114173e-07 -5.697583205233059e-08 -1
  outer loop
    vertex 98.99996185302734 62.78387069702148 0.4544854462146759
    vertex 40.21719741821289 79.32671356201172 0.4545240998268127
    vertex 49.50186157226562 79.54347229003906 0.4545176327228546
  endloop
endfacet
facet normal -6.265974548114173e-07 -5.697583205233059e-08 -1
  outer loop
    vertex 98.99996185302734 62.78387069702148 0.4544854462146759
    vertex 49.50186157226562 79.54347229003906 0.4545176327228546
    vertex 55.38003921508789 79.40624237060547 0.4545139074325562
  endloop
endfacet
facet normal -6.265974548114173e-07 -5.697583205233059e-08 -1
  outer loop
    vertex 98.99996185302734 62.78387069702148 0.4544854462146759
    vertex 55.38003921508789 79.40624237060547 0.4545139074325562
    vertex 58.76275634765625 79.40624237060547 0.4545127749443054
  endloop
endfacet
facet normal -6.265974548114173e-07 -5.697583205233059e-08 -1
  outer loop
    vertex 98.99996185302734 62.78387069702148 0.4544854462146759
    vertex 58.76275634765625 79.40624237060547 0.4545127749443054
    vertex 75.17932891845703 79.67157745361328 0.4545003175735474
  endloop
endfacet
facet normal -6.265974548114173e-07 -5.697583205233059e-08 -1
  outer loop
    vertex 98.99996185302734 62.78387069702148 0.4544854462146759
    vertex 75.17932891845703 79.67157745361328 0.4545003175735474
    vertex 86.79013824462891 79.65322113037109 0.454492598772049
  endloop
endfacet
facet normal -6.265974548114173e-07 -5.697583205233059e-08 -1
  outer loop
    vertex 98.99996185302734 62.78387069702148 0.4544854462146759
    vertex 86.79013824462891 79.65322113037109 0.454492598772049
    vertex 86.93789672851562 87.88629913330078 0.4544935822486877
  endloop
endfacet
facet normal -6.265974548114173e-07 -5.697583205233059e-08 -1
  outer loop
    vertex 58.33782577514648 88.02227020263672 0.4545123875141144
    vertex 57.78350067138672 82.80758666992188 0.4545153677463531
    vertex 57.07139587402344 84.83740234375 0.4545131027698517
  endloop
endfacet
facet normal -6.265974548114173e-07 -5.697583205233059e-08 -1
  outer loop
    vertex 57.78350067138672 82.80758666992188 0.4545153677463531
    vertex 58.33782577514648 88.02227020263672 0.4545123875141144
    vertex 58.55618286132812 80.22240447998047 0.4545105993747711
  endloop
endfacet
facet normal -6.265974548114173e-07 -5.697583205233059e-08 -1
  outer loop
    vertex 40.66219329833984 88.02236938476562 0.4545239508152008
    vertex 41.21657943725586 82.80758666992188 0.4545266032218933
    vertex 40.44389343261719 80.22240447998047 0.4545227289199829
  endloop
endfacet
facet normal -6.265974548114173e-07 -5.697583205233059e-08 -1
  outer loop
    vertex 41.21657943725586 82.80758666992188 0.4545266032218933
    vertex 40.66219329833984 88.02236938476562 0.4545239508152008
    vertex 41.92867279052734 84.83737945556641 0.454523503780365
  endloop
endfacet
facet normal 6.265974548114173e-07 5.697583205233059e-08 1
  outer loop
    vertex 41.21657943725586 82.80758666992188 1.454526543617249
    vertex 40.66219329833984 88.02236938476562 1.454523921012878
    vertex 40.44389724731445 80.22240447998047 1.454522728919983
  endloop
endfacet
facet normal 6.265974548114173e-07 5.697583205233059e-08 1
  outer loop
    vertex 40.66219329833984 88.02236938476562 1.454523921012878
    vertex 41.21657943725586 82.80758666992188 1.454526543617249
    vertex 41.92867279052734 84.83737945556641 1.45452344417572
  endloop
endfacet
facet normal 6.265974548114173e-07 5.697583205233059e-08 1
  outer loop
    vertex 57.78350067138672 82.80758666992188 1.454515337944031
    vertex 58.33782577514648 88.02227020263672 1.454512357711792
    vertex 57.07139587402344 84.83740234375 1.454513072967529
  endloop
endfacet
facet normal 6.265974548114173e-07 5.697583205233059e-08 1
  outer loop
    vertex 58.33782577514648 88.02227020263672 1.454512357711792
    vertex 57.78350067138672 82.80758666992188 1.454515337944031
    vertex 58.55618286132812 80.22240447998047 1.454510569572449
  endloop
endfacet
facet normal 6.265974548114173e-07 5.697583205233059e-08 1
  outer loop
    vertex 4.557411011774093e-05 62.78384399414062 1.454545259475708
    vertex 12.20994472503662 79.65253448486328 1.454542398452759
    vertex 12.0621976852417 87.88510131835938 1.454542636871338
  endloop
endfacet
facet normal 6.265974548114173e-07 5.697583205233059e-08 1
  outer loop
    vertex 12.20994472503662 79.65253448486328 1.454542398452759
    vertex 4.557411011774093e-05 62.78384399414062 1.454545259475708
    vertex 98.99996185302734 62.78387451171875 1.454485416412354
  endloop
endfacet
facet normal 6.265974548114173e-07 5.697583205233059e-08 1
  outer loop
    vertex 12.20994472503662 79.65253448486328 1.454542398452759
    vertex 98.99996185302734 62.78387451171875 1.454485416412354
    vertex 23.82075309753418 79.67095184326172 1.454534530639648
  endloop
endfacet
facet normal 6.265974548114173e-07 5.697583205233059e-08 1
  outer loop
    vertex 23.82075309753418 79.67095184326172 1.454534530639648
    vertex 98.99996185302734 62.78387451171875 1.454485416412354
    vertex 40.21719741821289 79.32671356201172 1.454524159431458
  endloop
endfacet
facet normal 6.265974548114173e-07 5.697583205233059e-08 1
  outer loop
    vertex 40.21719741821289 79.32671356201172 1.454524159431458
    vertex 98.99996185302734 62.78387451171875 1.454485416412354
    vertex 49.50186157226562 79.54347229003906 1.454517602920532
  endloop
endfacet
facet normal 6.265974548114173e-07 5.697583205233059e-08 1
  outer loop
    vertex 49.50186157226562 79.54347229003906 1.454517602920532
    vertex 98.99996185302734 62.78387451171875 1.454485416412354
    vertex 55.38003921508789 79.40624237060547 1.454513907432556
  endloop
endfacet
facet normal 6.265974548114173e-07 5.697583205233059e-08 1
  outer loop
    vertex 55.38003921508789 79.40624237060547 1.454513907432556
    vertex 98.99996185302734 62.78387451171875 1.454485416412354
    vertex 58.76275634765625 79.40624237060547 1.45451283454895
  endloop
endfacet
facet normal 6.265974548114173e-07 5.697583205233059e-08 1
  outer loop
    vertex 58.76275634765625 79.40624237060547 1.45451283454895
    vertex 98.99996185302734 62.78387451171875 1.454485416412354
    vertex 75.17932891845703 79.67157745361328 1.454500317573547
  endloop
endfacet
facet normal 6.265974548114173e-07 5.697583205233059e-08 1
  outer loop
    vertex 75.17932891845703 79.67157745361328 1.454500317573547
    vertex 98.99996185302734 62.78387451171875 1.454485416412354
    vertex 86.79013824462891 79.65322113037109 1.454492568969727
  endloop
endfacet
facet normal 6.265974548114173e-07 5.697583205233059e-08 1
  outer loop
    vertex 86.79013824462891 79.65322113037109 1.454492568969727
    vertex 98.99996185302734 62.78387451171875 1.454485416412354
    vertex 86.93789672851562 87.88629913330078 1.454493641853333
  endloop
endfacet
facet normal 6.265974548114173e-07 5.697583205233059e-08 1
  outer loop
    vertex 2.452779153827578e-05 108.5733184814453 1.454540371894836
    vertex 12.0621976852417 87.88510131835938 1.454542636871338
    vertex 98.99996948242188 108.5733489990234 1.454485416412354
  endloop
endfacet
facet normal 6.265974548114173e-07 5.697583205233059e-08 1
  outer loop
    vertex 12.0621976852417 87.88510131835938 1.454542636871338
    vertex 2.452779153827578e-05 108.5733184814453 1.454540371894836
    vertex 4.557411011774093e-05 62.78384399414062 1.454545259475708
  endloop
endfacet
facet normal 6.265974548114173e-07 5.697583205233059e-08 1
  outer loop
    vertex 98.99996948242188 108.5733489990234 1.454485416412354
    vertex 12.0621976852417 87.88510131835938 1.454542636871338
    vertex 23.67282676696777 87.905029296875 1.454535126686096
  endloop
endfacet
facet normal 6.265974548114173e-07 5.697583205233059e-08 1
  outer loop
    vertex 98.99996948242188 108.5733489990234 1.454485416412354
    vertex 23.67282676696777 87.905029296875 1.454535126686096
    vertex 40.66219329833984 88.02236938476562 1.454523921012878
  endloop
endfacet
facet normal 6.265974548114173e-07 5.697583205233059e-08 1
  outer loop
    vertex 40.66219329833984 88.02236938476562 1.454523921012878
    vertex 23.67282676696777 87.905029296875 1.454535126686096
    vertex 23.82075309753418 79.67095184326172 1.454534530639648
  endloop
endfacet
facet normal 6.265974548114173e-07 5.697583205233059e-08 1
  outer loop
    vertex 40.66219329833984 88.02236938476562 1.454523921012878
    vertex 23.82075309753418 79.67095184326172 1.454534530639648
    vertex 40.21719741821289 79.32671356201172 1.454524159431458
  endloop
endfacet
facet normal 6.265974548114173e-07 5.697583205233059e-08 1
  outer loop
    vertex 40.66219329833984 88.02236938476562 1.454523921012878
    vertex 40.21719741821289 79.32671356201172 1.454524159431458
    vertex 40.44389724731445 80.22240447998047 1.454522728919983
  endloop
endfacet
facet normal 6.265974548114173e-07 5.697583205233059e-08 1
  outer loop
    vertex 98.99996948242188 108.5733489990234 1.454485416412354
    vertex 40.66219329833984 88.02236938476562 1.454523921012878
    vertex 49.50186157226562 87.79861450195312 1.45451807975769
  endloop
endfacet
facet normal 6.265974548114173e-07 5.697583205233059e-08 1
  outer loop
    vertex 98.99996948242188 108.5733489990234 1.454485416412354
    vertex 49.50186157226562 87.79861450195312 1.45451807975769
    vertex 58.33782577514648 88.02227020263672 1.454512357711792
  endloop
endfacet
facet normal 6.265974548114173e-07 5.697583205233059e-08 1
  outer loop
    vertex 98.99996948242188 108.5733489990234 1.454485416412354
    vertex 58.33782577514648 88.02227020263672 1.454512357711792
    vertex 58.55618286132812 80.22240447998047 1.454510569572449
  endloop
endfacet
facet normal 6.265974548114173e-07 5.697583205233059e-08 1
  outer loop
    vertex 98.99996948242188 108.5733489990234 1.454485416412354
    vertex 58.55618286132812 80.22240447998047 1.454510569572449
    vertex 58.76275634765625 79.40624237060547 1.45451283454895
  endloop
endfacet
facet normal 6.265974548114173e-07 5.697583205233059e-08 1
  outer loop
    vertex 98.99996948242188 108.5733489990234 1.454485416412354
    vertex 58.76275634765625 79.40624237060547 1.45451283454895
    vertex 75.3272705078125 87.90615844726562 1.454501152038574
  endloop
endfacet
facet normal 6.265974548114173e-07 5.697583205233059e-08 1
  outer loop
    vertex 75.3272705078125 87.90615844726562 1.454501152038574
    vertex 58.76275634765625 79.40624237060547 1.45451283454895
    vertex 75.17932891845703 79.67157745361328 1.454500317573547
  endloop
endfacet
facet normal 6.265974548114173e-07 5.697583205233059e-08 1
  outer loop
    vertex 98.99996948242188 108.5733489990234 1.454485416412354
    vertex 75.3272705078125 87.90615844726562 1.454501152038574
    vertex 86.93789672851562 87.88629913330078 1.454493641853333
  endloop
endfacet
facet normal 6.265974548114173e-07 5.697583205233059e-08 1
  outer loop
    vertex 98.99996948242188 108.5733489990234 1.454485416412354
    vertex 86.93789672851562 87.88629913330078 1.454493641853333
    vertex 98.99996185302734 62.78387451171875 1.454485416412354
  endloop
endfacet
facet normal -1 -4.596322185079771e-07 6.265974548114173e-07
  outer loop
    vertex 4.557411011774093e-05 62.78384399414062 1.454545259475708
    vertex 2.390119334449992e-05 108.5733184814453 0.4545403718948364
    vertex 4.494751556194387e-05 62.78384399414062 0.4545453190803528
  endloop
endfacet
facet normal -1 -4.596322185079771e-07 6.265974548114173e-07
  outer loop
    vertex 2.390119334449992e-05 108.5733184814453 0.4545403718948364
    vertex 4.557411011774093e-05 62.78384399414062 1.454545259475708
    vertex 2.452779153827578e-05 108.5733184814453 1.454540371894836
  endloop
endfacet
facet normal -0.001710436656139791 -0.9999985098838806 5.804750458082708e-08
  outer loop
    vertex 86.93789672851562 87.88629913330078 1.454493641853333
    vertex 75.3272705078125 87.90615844726562 0.454501211643219
    vertex 86.93789672851562 87.88629913330078 0.4544935822486877
  endloop
endfacet
facet normal -0.001710436656139791 -0.9999985098838806 5.804750458082708e-08
  outer loop
    vertex 75.3272705078125 87.90615844726562 0.454501211643219
    vertex 86.93789672851562 87.88629913330078 1.454493641853333
    vertex 75.3272705078125 87.90615844726562 1.454501152038574
  endloop
endfacet
facet normal -3.390972835859429e-07 1 -5.697561888950986e-08
  outer loop
    vertex 2.390119334449992e-05 108.5733184814453 0.4545403718948364
    vertex 98.99996948242188 108.5733489990234 1.454485416412354
    vertex 98.99996948242188 108.5733489990234 0.4544854462146759
  endloop
endfacet
facet normal -3.390972835859429e-07 1 -5.697561888950986e-08
  outer loop
    vertex 98.99996948242188 108.5733489990234 1.454485416412354
    vertex 2.390119334449992e-05 108.5733184814453 0.4545403718948364
    vertex 2.452779153827578e-05 108.5733184814453 1.454540371894836
  endloop
endfacet
facet normal 0.9436166286468506 -0.3310402631759644 -5.724064635614923e-07
  outer loop
    vertex 41.92867279052734 84.83737945556641 0.454523503780365
    vertex 41.21657943725586 82.80758666992188 1.454526543617249
    vertex 41.21657943725586 82.80758666992188 0.4545266032218933
  endloop
endfacet
facet normal 0.9436166286468506 -0.3310402631759644 -5.724064635614923e-07
  outer loop
    vertex 41.21657943725586 82.80758666992188 1.454526543617249
    vertex 41.92867279052734 84.83737945556641 0.454523503780365
    vertex 41.92867279052734 84.83737945556641 1.45452344417572
  endloop
endfacet
facet normal -0.943616509437561 -0.3310406506061554 6.101290068727394e-07
  outer loop
    vertex 57.78350067138672 82.80758666992188 1.454515337944031
    vertex 57.07139587402344 84.83740234375 0.4545131027698517
    vertex 57.78350067138672 82.80758666992188 0.4545153677463531
  endloop
endfacet
facet normal -0.943616509437561 -0.3310406506061554 6.101290068727394e-07
  outer loop
    vertex 57.07139587402344 84.83740234375 0.4545131027698517
    vertex 57.78350067138672 82.80758666992188 1.454515337944031
    vertex 57.07139587402344 84.83740234375 1.454513072967529
  endloop
endfacet
facet normal 0.02530420571565628 -0.9996798038482666 4.110203732921036e-08
  outer loop
    vertex 58.33782577514648 88.02227020263672 1.454512357711792
    vertex 49.50186157226562 87.79861450195312 0.4545181095600128
    vertex 58.33782577514648 88.02227020263672 0.4545123875141144
  endloop
endfacet
facet normal 0.02530420571565628 -0.9996798038482666 4.110203732921036e-08
  outer loop
    vertex 49.50186157226562 87.79861450195312 0.4545181095600128
    vertex 58.33782577514648 88.02227020263672 1.454512357711792
    vertex 49.50186157226562 87.79861450195312 1.45451807975769
  endloop
endfacet
facet normal 1 -2.06843537853274e-07 -6.265974548114173e-07
  outer loop
    vertex 98.99996948242188 108.5733489990234 0.4544854462146759
    vertex 98.99996185302734 62.78387451171875 1.454485416412354
    vertex 98.99996185302734 62.78387069702148 0.4544854462146759
  endloop
endfacet
facet normal 1 -2.06843537853274e-07 -6.265974548114173e-07
  outer loop
    vertex 98.99996185302734 62.78387451171875 1.454485416412354
    vertex 98.99996948242188 108.5733489990234 0.4544854462146759
    vertex 98.99996948242188 108.5733489990234 1.454485416412354
  endloop
endfacet
facet normal 0.001716087688691914 -0.9999985098838806 5.590045404346711e-08
  outer loop
    vertex 23.67282676696777 87.905029296875 1.454535126686096
    vertex 12.0621976852417 87.88510131835938 0.4545426964759827
    vertex 23.67282485961914 87.905029296875 0.4545350968837738
  endloop
endfacet
facet normal 0.001716087688691914 -0.9999985098838806 5.590045404346711e-08
  outer loop
    vertex 12.0621976852417 87.88510131835938 0.4545426964759827
    vertex 23.67282676696777 87.905029296875 1.454535126686096
    vertex 12.0621976852417 87.88510131835938 1.454542636871338
  endloop
endfacet
facet normal -0.999838650226593 -0.01796231977641582 6.275197961258527e-07
  outer loop
    vertex 23.82075309753418 79.67095184326172 1.454534530639648
    vertex 23.67282485961914 87.905029296875 0.4545350968837738
    vertex 23.82075309753418 79.67095184326172 0.4545345604419708
  endloop
endfacet
facet normal -0.999838650226593 -0.01796231977641582 6.275197961258527e-07
  outer loop
    vertex 23.67282485961914 87.905029296875 0.4545350968837738
    vertex 23.82075309753418 79.67095184326172 1.454534530639648
    vertex 23.67282676696777 87.905029296875 1.454535126686096
  endloop
endfacet
facet normal 2.718486484809546e-07 -1 5.697566152207401e-08
  outer loop
    vertex 98.99996185302734 62.78387451171875 1.454485416412354
    vertex 4.494751556194387e-05 62.78384399414062 0.4545453190803528
    vertex 98.99996185302734 62.78387069702148 0.4544854462146759
  endloop
endfacet
facet normal 2.718486484809546e-07 -1 5.697566152207401e-08
  outer loop
    vertex 4.494751556194387e-05 62.78384399414062 0.4545453190803528
    vertex 98.99996185302734 62.78387451171875 1.454485416412354
    vertex 4.557411011774093e-05 62.78384399414062 1.454545259475708
  endloop
endfacet
facet normal -0.02333905734121799 0.9997276067733765 -4.233611861081954e-08
  outer loop
    vertex 40.21719741821289 79.32671356201172 0.4545240998268127
    vertex 49.50186157226562 79.54347229003906 1.454517602920532
    vertex 49.50186157226562 79.54347229003906 0.4545176327228546
  endloop
endfacet
facet normal -0.02333905734121799 0.9997276067733765 -4.233611861081954e-08
  outer loop
    vertex 49.50186157226562 79.54347229003906 1.454517602920532
    vertex 40.21719741821289 79.32671356201172 0.4545240998268127
    vertex 40.21719741821289 79.32671356201172 1.454524159431458
  endloop
endfacet
facet normal -0.02530491538345814 -0.9996798038482666 7.281358449517938e-08
  outer loop
    vertex 49.50186157226562 87.79861450195312 1.45451807975769
    vertex 40.66219329833984 88.02236938476562 0.4545239508152008
    vertex 49.50186157226562 87.79861450195312 0.4545181095600128
  endloop
endfacet
facet normal -0.02530491538345814 -0.9996798038482666 7.281358449517938e-08
  outer loop
    vertex 40.66219329833984 88.02236938476562 0.4545239508152008
    vertex 49.50186157226562 87.79861450195312 1.45451807975769
    vertex 40.66219329833984 88.02236938476562 1.454523921012878
  endloop
endfacet
facet normal 4.175021873359386e-13 1 -5.697583205233059e-08
  outer loop
    vertex 55.38003921508789 79.40624237060547 0.4545139074325562
    vertex 58.76275634765625 79.40624237060547 1.45451283454895
    vertex 58.76275634765625 79.40624237060547 0.4545127749443054
  endloop
endfacet
facet normal 4.175021873359386e-13 1 -5.697583205233059e-08
  outer loop
    vertex 58.76275634765625 79.40624237060547 1.45451283454895
    vertex 55.38003921508789 79.40624237060547 0.4545139074325562
    vertex 55.38003921508789 79.40624237060547 1.454513907432556
  endloop
endfacet
facet normal 0.9694309234619141 -0.2453644722700119 -5.934630848969391e-07
  outer loop
    vertex 40.44389343261719 80.22240447998047 0.4545227289199829
    vertex 40.21719741821289 79.32671356201172 1.454524159431458
    vertex 40.21719741821289 79.32671356201172 0.4545240998268127
  endloop
endfacet
facet normal 0.9694309234619141 -0.2453644722700119 -5.934630848969391e-07
  outer loop
    vertex 40.21719741821289 79.32671356201172 1.454524159431458
    vertex 40.44389343261719 80.22240447998047 0.4545227289199829
    vertex 40.44389724731445 80.22240447998047 1.454522728919983
  endloop
endfacet
facet normal 0.9581186175346375 -0.2863715589046478 -5.840384460498171e-07
  outer loop
    vertex 41.21657943725586 82.80758666992188 0.4545266032218933
    vertex 40.44389724731445 80.22240447998047 1.454522728919983
    vertex 40.44389343261719 80.22240447998047 0.4545227289199829
  endloop
endfacet
facet normal 0.9581186175346375 -0.2863715589046478 -5.840384460498171e-07
  outer loop
    vertex 40.44389724731445 80.22240447998047 1.454522728919983
    vertex 41.21657943725586 82.80758666992188 0.4545266032218933
    vertex 41.21657943725586 82.80758666992188 1.454526543617249
  endloop
endfacet
facet normal -0.9998390078544617 0.01794460788369179 6.254741720113088e-07
  outer loop
    vertex 86.79013824462891 79.65322113037109 1.454492568969727
    vertex 86.93789672851562 87.88629913330078 0.4544935822486877
    vertex 86.79013824462891 79.65322113037109 0.454492598772049
  endloop
endfacet
facet normal -0.9998390078544617 0.01794460788369179 6.254741720113088e-07
  outer loop
    vertex 86.93789672851562 87.88629913330078 0.4544935822486877
    vertex 86.79013824462891 79.65322113037109 1.454492568969727
    vertex 86.93789672851562 87.88629913330078 1.454493641853333
  endloop
endfacet
facet normal 0.9292311668395996 0.3694988489151001 -6.033063755239709e-07
  outer loop
    vertex 40.66219329833984 88.02236938476562 0.4545239508152008
    vertex 41.92867279052734 84.83737945556641 1.45452344417572
    vertex 41.92867279052734 84.83737945556641 0.454523503780365
  endloop
endfacet
facet normal 0.9292311668395996 0.3694988489151001 -6.033063755239709e-07
  outer loop
    vertex 41.92867279052734 84.83737945556641 1.45452344417572
    vertex 40.66219329833984 88.02236938476562 0.4545239508152008
    vertex 40.66219329833984 88.02236938476562 1.454523921012878
  endloop
endfacet
facet normal -0.001585919526405632 0.9999987483024597 -5.598202790224605e-08
  outer loop
    vertex 12.2099437713623 79.65253448486328 0.454542338848114
    vertex 23.82075309753418 79.67095184326172 1.454534530639648
    vertex 23.82075309753418 79.67095184326172 0.4545345604419708
  endloop
endfacet
facet normal -0.001585919526405632 0.9999987483024597 -5.598202790224605e-08
  outer loop
    vertex 23.82075309753418 79.67095184326172 1.454534530639648
    vertex 12.2099437713623 79.65253448486328 0.454542338848114
    vertex 12.20994472503662 79.65253448486328 1.454542398452759
  endloop
endfacet
facet normal -0.9292312264442444 0.3694987297058105 5.612014319922309e-07
  outer loop
    vertex 57.07139587402344 84.83740234375 1.454513072967529
    vertex 58.33782577514648 88.02227020263672 0.4545123875141144
    vertex 57.07139587402344 84.83740234375 0.4545131027698517
  endloop
endfacet
facet normal -0.9292312264442444 0.3694987297058105 5.612014319922309e-07
  outer loop
    vertex 58.33782577514648 88.02227020263672 0.4545123875141144
    vertex 57.07139587402344 84.83740234375 1.454513072967529
    vertex 58.33782577514648 88.02227020263672 1.454512357711792
  endloop
endfacet
facet normal 0.9998390078544617 0.01794368773698807 -6.275189434745698e-07
  outer loop
    vertex 12.0621976852417 87.88510131835938 0.4545426964759827
    vertex 12.20994472503662 79.65253448486328 1.454542398452759
    vertex 12.2099437713623 79.65253448486328 0.454542338848114
  endloop
endfacet
facet normal 0.9998390078544617 0.01794368773698807 -6.275189434745698e-07
  outer loop
    vertex 12.20994472503662 79.65253448486328 1.454542398452759
    vertex 12.0621976852417 87.88510131835938 0.4545426964759827
    vertex 12.0621976852417 87.88510131835938 1.454542636871338
  endloop
endfacet
facet normal 0.999838650226593 -0.01796316914260387 -6.25472864612675e-07
  outer loop
    vertex 75.3272705078125 87.90615844726562 0.454501211643219
    vertex 75.17932891845703 79.67157745361328 1.454500317573547
    vertex 75.17932891845703 79.67157745361328 0.4545003175735474
  endloop
endfacet
facet normal 0.999838650226593 -0.01796316914260387 -6.25472864612675e-07
  outer loop
    vertex 75.17932891845703 79.67157745361328 1.454500317573547
    vertex 75.3272705078125 87.90615844726562 0.454501211643219
    vertex 75.3272705078125 87.90615844726562 1.454501152038574
  endloop
endfacet
facet normal -0.9581185579299927 -0.2863718867301941 6.166709454191732e-07
  outer loop
    vertex 58.55618286132812 80.22240447998047 1.454510569572449
    vertex 57.78350067138672 82.80758666992188 0.4545153677463531
    vertex 58.55618286132812 80.22240447998047 0.4545105993747711
  endloop
endfacet
facet normal -0.9581185579299927 -0.2863718867301941 6.166709454191732e-07
  outer loop
    vertex 57.78350067138672 82.80758666992188 0.4545153677463531
    vertex 58.55618286132812 80.22240447998047 1.454510569572449
    vertex 57.78350067138672 82.80758666992188 1.454515337944031
  endloop
endfacet
facet normal -0.9694308638572693 -0.2453646063804626 6.214227710188425e-07
  outer loop
    vertex 58.76275634765625 79.40624237060547 1.45451283454895
    vertex 58.55618286132812 80.22240447998047 0.4545105993747711
    vertex 58.76275634765625 79.40624237060547 0.4545127749443054
  endloop
endfacet
facet normal -0.9694308638572693 -0.2453646063804626 6.214227710188425e-07
  outer loop
    vertex 58.55618286132812 80.22240447998047 0.4545105993747711
    vertex 58.76275634765625 79.40624237060547 1.45451283454895
    vertex 58.55618286132812 80.22240447998047 1.454510569572449
  endloop
endfacet
facet normal 0.02333946526050568 0.9997276067733765 -7.158476478252851e-08
  outer loop
    vertex 49.50186157226562 79.54347229003906 0.4545176327228546
    vertex 55.38003921508789 79.40624237060547 1.454513907432556
    vertex 55.38003921508789 79.40624237060547 0.4545139074325562
  endloop
endfacet
facet normal 0.02333946526050568 0.9997276067733765 -7.158476478252851e-08
  outer loop
    vertex 55.38003921508789 79.40624237060547 1.454513907432556
    vertex 49.50186157226562 79.54347229003906 0.4545176327228546
    vertex 49.50186157226562 79.54347229003906 1.454517602920532
  endloop
endfacet
facet normal 0.001580399926751852 0.9999987483024597 -5.796603730345851e-08
  outer loop
    vertex 75.17932891845703 79.67157745361328 0.4545003175735474
    vertex 86.79013824462891 79.65322113037109 1.454492568969727
    vertex 86.79013824462891 79.65322113037109 0.454492598772049
  endloop
endfacet
facet normal 0.001580399926751852 0.9999987483024597 -5.796603730345851e-08
  outer loop
    vertex 86.79013824462891 79.65322113037109 1.454492568969727
    vertex 75.17932891845703 79.67157745361328 0.4545003175735474
    vertex 75.17932891845703 79.67157745361328 1.454500317573547
  endloop
endfacet
endsolid B043
