solid UltiBot
facet normal 1.0265505653316877e-09 -2.383711919577742e-09 -1.0
  outer loop
    vertex 588.2925579800799 645.1929690900906 32.04055859036932
    vertex 600.0695601887016 631.6396070306098 32.040558187388015
    vertex 588.2925579800799 602.9889515493626 32.040558791573766
  endloop
endfacet
facet normal 1.0265505653316877e-09 -2.383711919577742e-09 -1.0
  outer loop
    vertex 600.0695601887016 631.6396070306098 32.040558187388015
    vertex 588.2925579800799 645.1929690900906 32.04055859036932
    vertex 686.2928154086034 645.1929690900906 32.040558791573766
  endloop
endfacet
facet normal 1.0265505653316877e-09 -2.383711919577742e-09 -1.0
  outer loop
    vertex 600.0695601887016 631.6396070306098 32.040558187388015
    vertex 686.2928154086034 645.1929690900906 32.040558791573766
    vertex 607.6970101309672 631.6685979931402 32.040558240825874
  endloop
endfacet
facet normal 1.0265505653316877e-09 -2.383711919577742e-09 -1.0
  outer loop
    vertex 607.6970101309672 631.6685979931402 32.040558240825874
    vertex 686.2928154086034 645.1929690900906 32.040558791573766
    vertex 623.3492233670755 631.1965552137412 32.04055829347274
  endloop
endfacet
facet normal 1.0265505653316877e-09 -2.383711919577742e-09 -1.0
  outer loop
    vertex 607.6970101309672 631.6685979931402 32.040558240825874
    vertex 623.3492233670755 631.1965552137412 32.04055829347274
    vertex 608.3079577910934 618.3074267762297 32.04055788096961
  endloop
endfacet
facet normal 1.0265505653316877e-09 -2.383711919577742e-09 -1.0
  outer loop
    vertex 623.3492233670755 631.1965552137412 32.04055829347274
    vertex 686.2928154086034 645.1929690900906 32.040558791573766
    vertex 633.1309761381935 631.4683723226793 32.04055841900158
  endloop
endfacet
facet normal 1.0265505653316877e-09 -2.383711919577742e-09 -1.0
  outer loop
    vertex 633.1309761381935 631.4683723226793 32.04055841900158
    vertex 686.2928154086034 645.1929690900906 32.040558791573766
    vertex 641.4546425428981 631.4683721930348 32.04055847731532
  endloop
endfacet
facet normal 1.0265505653316877e-09 -2.383711919577742e-09 -1.0
  outer loop
    vertex 633.1309761381935 631.4683723226793 32.04055841900158
    vertex 641.4546425428981 631.4683721930348 32.04055847731532
    vertex 634.4002003160556 628.9170910057238 32.04055833665486
  endloop
endfacet
facet normal 1.0265505653316877e-09 -2.383711919577742e-09 -1.0
  outer loop
    vertex 634.4002003160556 628.9170910057238 32.04055833665486
    vertex 641.4546425428981 631.4683721930348 32.04055847731532
    vertex 635.537788074649 626.4908495923362 32.0405583052947
  endloop
endfacet
facet normal 1.0265505653316877e-09 -2.383711919577742e-09 -1.0
  outer loop
    vertex 635.537788074649 626.4908495923362 32.0405583052947
    vertex 641.4546425428981 631.4683721930348 32.04055847731532
    vertex 640.1854184502894 628.9170911309675 32.04055838735189
  endloop
endfacet
facet normal 1.0265505653316877e-09 -2.383711919577742e-09 -1.0
  outer loop
    vertex 635.537788074649 626.4908495923362 32.0405583052947
    vertex 640.1854184502894 628.9170911309675 32.04055838735189
    vertex 639.0478306171836 626.4908496671019 32.040558338914565
  endloop
endfacet
facet normal 1.0265505653316877e-09 -2.383711919577742e-09 -1.0
  outer loop
    vertex 635.537788074649 626.4908495923362 32.0405583052947
    vertex 639.0478306171836 626.4908496671019 32.040558338914565
    vertex 637.2928092848045 622.4221036545688 32.040558283136896
  endloop
endfacet
facet normal 1.0265505653316877e-09 -2.383711919577742e-09 -1.0
  outer loop
    vertex 641.4546425428981 631.4683721930348 32.04055847731532
    vertex 686.2928154086034 645.1929690900906 32.040558791573766
    vertex 651.2363953672142 631.1965549716823 32.040558514098066
  endloop
endfacet
facet normal 1.0265505653316877e-09 -2.383711919577742e-09 -1.0
  outer loop
    vertex 651.2363953672142 631.1965549716823 32.040558514098066
    vertex 686.2928154086034 645.1929690900906 32.040558791573766
    vertex 666.8887379921525 631.6709741902843 32.040558655510765
  endloop
endfacet
facet normal 1.0265505653316877e-09 -2.383711919577742e-09 -1.0
  outer loop
    vertex 651.2363953672142 631.1965549716823 32.040558514098066
    vertex 666.8887379921525 631.6709741902843 32.040558655510765
    vertex 666.2777028492593 618.308555019238 32.04055855721099
  endloop
endfacet
facet normal 1.0265505653316877e-09 -2.383711919577742e-09 -1.0
  outer loop
    vertex 666.8887379921525 631.6709741902843 32.040558655510765
    vertex 686.2928154086034 645.1929690900906 32.040558791573766
    vertex 674.5161937429206 631.6420896169595 32.04055870894586
  endloop
endfacet
facet normal 1.0265505653316877e-09 -2.383711919577742e-09 -1.0
  outer loop
    vertex 588.2925579800799 602.9889515493626 32.040558791573766
    vertex 600.679871840715 618.2820835425705 32.04055779226092
    vertex 686.2928154086034 602.9889515493626 32.040558791573766
  endloop
endfacet
facet normal 1.0265505653316877e-09 -2.383711919577742e-09 -1.0
  outer loop
    vertex 600.679871840715 618.2820835425705 32.04055779226092
    vertex 588.2925579800799 602.9889515493626 32.040558791573766
    vertex 600.0695601887016 631.6396070306098 32.040558187388015
  endloop
endfacet
facet normal 1.0265505653316877e-09 -2.383711919577742e-09 -1.0
  outer loop
    vertex 686.2928154086034 602.9889515493626 32.040558791573766
    vertex 600.679871840715 618.2820835425705 32.04055779226092
    vertex 608.3079577910934 618.3074267762297 32.04055788096961
  endloop
endfacet
facet normal 1.0265505653316877e-09 -2.383711919577742e-09 -1.0
  outer loop
    vertex 686.2928154086034 602.9889515493626 32.040558791573766
    vertex 608.3079577910934 618.3074267762297 32.04055788096961
    vertex 629.0855711219751 617.9694824537875 32.0405581270567
  endloop
endfacet
facet normal 1.0265505653316877e-09 -2.383711919577742e-09 -1.0
  outer loop
    vertex 629.0855711219751 617.9694824537875 32.0405581270567
    vertex 608.3079577910934 618.3074267762297 32.04055788096961
    vertex 623.3492233670755 631.1965552137412 32.04055829347274
  endloop
endfacet
facet normal 1.0265505653316877e-09 -2.383711919577742e-09 -1.0
  outer loop
    vertex 629.0855711219751 617.9694824537875 32.0405581270567
    vertex 623.3492233670755 631.1965552137412 32.04055829347274
    vertex 624.4791050783344 628.9170907909432 32.040558249714
  endloop
endfacet
facet normal 1.0265505653316877e-09 -2.383711919577742e-09 -1.0
  outer loop
    vertex 629.0855711219751 617.9694824537875 32.0405581270567
    vertex 624.4791050783344 628.9170907909432 32.040558249714
    vertex 625.6166928369223 626.4908493810123 32.04055821026872
  endloop
endfacet
facet normal 1.0265505653316877e-09 -2.383711919577742e-09 -1.0
  outer loop
    vertex 629.0855711219751 617.9694824537875 32.0405581270567
    vertex 625.6166928369223 626.4908493810123 32.04055821026872
    vertex 626.7023156754133 624.0352904914844 32.04055817314146
  endloop
endfacet
facet normal 1.0265505653316877e-09 -2.383711919577742e-09 -1.0
  outer loop
    vertex 629.0855711219751 617.9694824537875 32.0405581270567
    vertex 626.7023156754133 624.0352904914844 32.04055817314146
    vertex 627.7325940703145 621.5524256353733 32.040082569989174
  endloop
endfacet
facet normal 1.0265505653316877e-09 -2.383711919577742e-09 -1.0
  outer loop
    vertex 686.2928154086034 602.9889515493626 32.040558791573766
    vertex 629.0855711219751 617.9694824537875 32.0405581270567
    vertex 637.2928078958047 618.1705866244432 32.040558220595884
  endloop
endfacet
facet normal 1.0265505653316877e-09 -2.383711919577742e-09 -1.0
  outer loop
    vertex 686.2928154086034 602.9889515493626 32.040558791573766
    vertex 637.2928078958047 618.1705866244432 32.040558220595884
    vertex 645.5000474623007 617.9694823000741 32.04055831854182
  endloop
endfacet
facet normal 1.0265505653316877e-09 -2.383711919577742e-09 -1.0
  outer loop
    vertex 686.2928154086034 602.9889515493626 32.040558791573766
    vertex 645.5000474623007 617.9694823000741 32.04055831854182
    vertex 646.8530247042411 621.5524258111303 32.04008277520087
  endloop
endfacet
facet normal 1.0265505653316877e-09 -2.383711919577742e-09 -1.0
  outer loop
    vertex 686.2928154086034 602.9889515493626 32.040558791573766
    vertex 646.8530247042411 621.5524258111303 32.04008277520087
    vertex 647.8833032628748 624.0352909346925 32.04055839290513
  endloop
endfacet
facet normal 1.0265505653316877e-09 -2.383711919577742e-09 -1.0
  outer loop
    vertex 686.2928154086034 602.9889515493626 32.040558791573766
    vertex 647.8833032628748 624.0352909346925 32.04055839290513
    vertex 648.9689261755863 626.490849878426 32.04055843394061
  endloop
endfacet
facet normal 1.0265505653316877e-09 -2.383711919577742e-09 -1.0
  outer loop
    vertex 686.2928154086034 602.9889515493626 32.040558791573766
    vertex 648.9689261755863 626.490849878426 32.04055843394061
    vertex 650.1065140086973 628.9170913457482 32.040558474292894
  endloop
endfacet
facet normal 1.0265505653316877e-09 -2.383711919577742e-09 -1.0
  outer loop
    vertex 686.2928154086034 602.9889515493626 32.040558791573766
    vertex 650.1065140086973 628.9170913457482 32.040558474292894
    vertex 666.2777028492593 618.308555019238 32.04055855721099
  endloop
endfacet
facet normal 1.0265505653316877e-09 -2.383711919577742e-09 -1.0
  outer loop
    vertex 666.2777028492593 618.308555019238 32.04055855721099
    vertex 650.1065140086973 628.9170913457482 32.040558474292894
    vertex 651.2363953672142 631.1965549716823 32.040558514098066
  endloop
endfacet
facet normal 1.0265505653316877e-09 -2.383711919577742e-09 -1.0
  outer loop
    vertex 686.2928154086034 602.9889515493626 32.040558791573766
    vertex 666.2777028492593 618.308555019238 32.04055855721099
    vertex 673.9057923201287 618.2833058403016 32.040558646474246
  endloop
endfacet
facet normal 1.0265505653316877e-09 -2.383711919577742e-09 -1.0
  outer loop
    vertex 686.2928154086034 602.9889515493626 32.040558791573766
    vertex 673.9057923201287 618.2833058403016 32.040558646474246
    vertex 674.1425828476691 624.0352914841635 32.04055866535916
  endloop
endfacet
facet normal 1.0265505653316877e-09 -2.383711919577742e-09 -1.0
  outer loop
    vertex 686.2928154086034 602.9889515493626 32.040558791573766
    vertex 674.1425828476691 624.0352914841635 32.04055866535916
    vertex 674.5161937429206 631.6420896169595 32.04055870894586
  endloop
endfacet
facet normal 1.0265505653316877e-09 -2.383711919577742e-09 -1.0
  outer loop
    vertex 686.2928154086034 602.9889515493626 32.040558791573766
    vertex 674.5161937429206 631.6420896169595 32.04055870894586
    vertex 686.2928154086034 645.1929690900906 32.040558791573766
  endloop
endfacet
facet normal -1.0265505653316877e-09 2.383711919577742e-09 1.0
  outer loop
    vertex 588.2925579795666 602.9889515505544 32.540558791573766
    vertex 600.6798718402018 618.2820835437624 32.54055779226092
    vertex 588.2925579795666 645.1929690912825 32.54055859036932
  endloop
endfacet
facet normal -1.0265505653316877e-09 2.383711919577742e-09 1.0
  outer loop
    vertex 600.6798718402018 618.2820835437624 32.54055779226092
    vertex 588.2925579795666 602.9889515505544 32.540558791573766
    vertex 686.2928154080902 602.9889515505544 32.540558791573766
  endloop
endfacet
facet normal -1.0265505653316877e-09 2.383711919577742e-09 1.0
  outer loop
    vertex 588.2925579795666 645.1929690912825 32.54055859036932
    vertex 600.6798718402018 618.2820835437624 32.54055779226092
    vertex 600.0695601881883 631.6396070318017 32.540558187388015
  endloop
endfacet
facet normal -1.0265505653316877e-09 2.383711919577742e-09 1.0
  outer loop
    vertex 600.6798718402018 618.2820835437624 32.54055779226092
    vertex 686.2928154080902 602.9889515505544 32.540558791573766
    vertex 608.3079577905801 618.3074267774216 32.54055788096961
  endloop
endfacet
facet normal -1.0265505653316877e-09 2.383711919577742e-09 1.0
  outer loop
    vertex 608.3079577905801 618.3074267774216 32.54055788096961
    vertex 686.2928154080902 602.9889515505544 32.540558791573766
    vertex 629.0855711214618 617.9694824549794 32.5405581270567
  endloop
endfacet
facet normal -1.0265505653316877e-09 2.383711919577742e-09 1.0
  outer loop
    vertex 608.3079577905801 618.3074267774216 32.54055788096961
    vertex 629.0855711214618 617.9694824549794 32.5405581270567
    vertex 623.3492233665622 631.196555214933 32.54055829347274
  endloop
endfacet
facet normal -1.0265505653316877e-09 2.383711919577742e-09 1.0
  outer loop
    vertex 623.3492233665622 631.196555214933 32.54055829347274
    vertex 629.0855711214618 617.9694824549794 32.5405581270567
    vertex 624.4791050778211 628.9170907921351 32.540558249713996
  endloop
endfacet
facet normal -1.0265505653316877e-09 2.383711919577742e-09 1.0
  outer loop
    vertex 624.4791050778211 628.9170907921351 32.540558249713996
    vertex 629.0855711214618 617.9694824549794 32.5405581270567
    vertex 625.616692836409 626.4908493822041 32.54055821026872
  endloop
endfacet
facet normal -1.0265505653316877e-09 2.383711919577742e-09 1.0
  outer loop
    vertex 625.616692836409 626.4908493822041 32.54055821026872
    vertex 629.0855711214618 617.9694824549794 32.5405581270567
    vertex 626.7023156749 624.0352904926763 32.54055817314146
  endloop
endfacet
facet normal -1.0265505653316877e-09 2.383711919577742e-09 1.0
  outer loop
    vertex 626.7023156749 624.0352904926763 32.54055817314146
    vertex 629.0855711214618 617.9694824549794 32.5405581270567
    vertex 627.7325940698012 621.5524256365652 32.540082569989174
  endloop
endfacet
facet normal -1.0265505653316877e-09 2.383711919577742e-09 1.0
  outer loop
    vertex 629.0855711214618 617.9694824549794 32.5405581270567
    vertex 686.2928154080902 602.9889515505544 32.540558791573766
    vertex 637.2928078952914 618.1705866256351 32.540558220595884
  endloop
endfacet
facet normal -1.0265505653316877e-09 2.383711919577742e-09 1.0
  outer loop
    vertex 637.2928078952914 618.1705866256351 32.540558220595884
    vertex 686.2928154080902 602.9889515505544 32.540558791573766
    vertex 645.5000474617874 617.969482301266 32.54055831854182
  endloop
endfacet
facet normal -1.0265505653316877e-09 2.383711919577742e-09 1.0
  outer loop
    vertex 645.5000474617874 617.969482301266 32.54055831854182
    vertex 686.2928154080902 602.9889515505544 32.540558791573766
    vertex 646.8530247037278 621.5524258123222 32.54008277520087
  endloop
endfacet
facet normal -1.0265505653316877e-09 2.383711919577742e-09 1.0
  outer loop
    vertex 646.8530247037278 621.5524258123222 32.54008277520087
    vertex 686.2928154080902 602.9889515505544 32.540558791573766
    vertex 647.8833032623616 624.0352909358844 32.540558392905126
  endloop
endfacet
facet normal -1.0265505653316877e-09 2.383711919577742e-09 1.0
  outer loop
    vertex 647.8833032623616 624.0352909358844 32.540558392905126
    vertex 686.2928154080902 602.9889515505544 32.540558791573766
    vertex 648.968926175073 626.4908498796179 32.54055843394061
  endloop
endfacet
facet normal -1.0265505653316877e-09 2.383711919577742e-09 1.0
  outer loop
    vertex 648.968926175073 626.4908498796179 32.54055843394061
    vertex 686.2928154080902 602.9889515505544 32.540558791573766
    vertex 650.106514008184 628.9170913469401 32.540558474292894
  endloop
endfacet
facet normal -1.0265505653316877e-09 2.383711919577742e-09 1.0
  outer loop
    vertex 650.106514008184 628.9170913469401 32.540558474292894
    vertex 686.2928154080902 602.9889515505544 32.540558791573766
    vertex 666.277702848746 618.3085550204299 32.54055855721099
  endloop
endfacet
facet normal -1.0265505653316877e-09 2.383711919577742e-09 1.0
  outer loop
    vertex 650.106514008184 628.9170913469401 32.540558474292894
    vertex 666.277702848746 618.3085550204299 32.54055855721099
    vertex 651.2363953667009 631.1965549728742 32.540558514098066
  endloop
endfacet
facet normal -1.0265505653316877e-09 2.383711919577742e-09 1.0
  outer loop
    vertex 666.277702848746 618.3085550204299 32.54055855721099
    vertex 686.2928154080902 602.9889515505544 32.540558791573766
    vertex 673.9057923196154 618.2833058414935 32.540558646474246
  endloop
endfacet
facet normal -1.0265505653316877e-09 2.383711919577742e-09 1.0
  outer loop
    vertex 673.9057923196154 618.2833058414935 32.540558646474246
    vertex 686.2928154080902 602.9889515505544 32.540558791573766
    vertex 674.1425828471558 624.0352914853554 32.54055866535916
  endloop
endfacet
facet normal -1.0265505653316877e-09 2.383711919577742e-09 1.0
  outer loop
    vertex 674.1425828471558 624.0352914853554 32.54055866535916
    vertex 686.2928154080902 602.9889515505544 32.540558791573766
    vertex 674.5161937424073 631.6420896181514 32.54055870894586
  endloop
endfacet
facet normal -1.0265505653316877e-09 2.383711919577742e-09 1.0
  outer loop
    vertex 600.0695601881883 631.6396070318017 32.540558187388015
    vertex 686.2928154080902 645.1929690912825 32.540558791573766
    vertex 588.2925579795666 645.1929690912825 32.54055859036932
  endloop
endfacet
facet normal -1.0265505653316877e-09 2.383711919577742e-09 1.0
  outer loop
    vertex 686.2928154080902 645.1929690912825 32.540558791573766
    vertex 600.0695601881883 631.6396070318017 32.540558187388015
    vertex 607.6970101304539 631.6685979943321 32.540558240825874
  endloop
endfacet
facet normal -1.0265505653316877e-09 2.383711919577742e-09 1.0
  outer loop
    vertex 686.2928154080902 645.1929690912825 32.540558791573766
    vertex 607.6970101304539 631.6685979943321 32.540558240825874
    vertex 623.3492233665622 631.196555214933 32.54055829347274
  endloop
endfacet
facet normal -1.0265505653316877e-09 2.383711919577742e-09 1.0
  outer loop
    vertex 623.3492233665622 631.196555214933 32.54055829347274
    vertex 607.6970101304539 631.6685979943321 32.540558240825874
    vertex 608.3079577905801 618.3074267774216 32.54055788096961
  endloop
endfacet
facet normal -1.0265505653316877e-09 2.383711919577742e-09 1.0
  outer loop
    vertex 686.2928154080902 645.1929690912825 32.540558791573766
    vertex 623.3492233665622 631.196555214933 32.54055829347274
    vertex 633.1309761376802 631.4683723238712 32.54055841900157
  endloop
endfacet
facet normal -1.0265505653316877e-09 2.383711919577742e-09 1.0
  outer loop
    vertex 686.2928154080902 645.1929690912825 32.540558791573766
    vertex 633.1309761376802 631.4683723238712 32.54055841900157
    vertex 641.4546425423848 631.4683721942267 32.54055847731532
  endloop
endfacet
facet normal -1.0265505653316877e-09 2.383711919577742e-09 1.0
  outer loop
    vertex 641.4546425423848 631.4683721942267 32.54055847731532
    vertex 633.1309761376802 631.4683723238712 32.54055841900157
    vertex 634.4002003155423 628.9170910069157 32.54055833665486
  endloop
endfacet
facet normal -1.0265505653316877e-09 2.383711919577742e-09 1.0
  outer loop
    vertex 641.4546425423848 631.4683721942267 32.54055847731532
    vertex 634.4002003155423 628.9170910069157 32.54055833665486
    vertex 635.5377880741357 626.4908495935281 32.540558305294695
  endloop
endfacet
facet normal -1.0265505653316877e-09 2.383711919577742e-09 1.0
  outer loop
    vertex 641.4546425423848 631.4683721942267 32.54055847731532
    vertex 635.5377880741357 626.4908495935281 32.540558305294695
    vertex 640.1854184497761 628.9170911321594 32.54055838735189
  endloop
endfacet
facet normal -1.0265505653316877e-09 2.383711919577742e-09 1.0
  outer loop
    vertex 640.1854184497761 628.9170911321594 32.54055838735189
    vertex 635.5377880741357 626.4908495935281 32.540558305294695
    vertex 639.0478306166704 626.4908496682938 32.540558338914565
  endloop
endfacet
facet normal -1.0265505653316877e-09 2.383711919577742e-09 1.0
  outer loop
    vertex 639.0478306166704 626.4908496682938 32.540558338914565
    vertex 635.5377880741357 626.4908495935281 32.540558305294695
    vertex 637.2928092842913 622.4221036557607 32.540558283136896
  endloop
endfacet
facet normal -1.0265505653316877e-09 2.383711919577742e-09 1.0
  outer loop
    vertex 686.2928154080902 645.1929690912825 32.540558791573766
    vertex 641.4546425423848 631.4683721942267 32.54055847731532
    vertex 651.2363953667009 631.1965549728742 32.540558514098066
  endloop
endfacet
facet normal -1.0265505653316877e-09 2.383711919577742e-09 1.0
  outer loop
    vertex 686.2928154080902 645.1929690912825 32.540558791573766
    vertex 651.2363953667009 631.1965549728742 32.540558514098066
    vertex 666.8887379916392 631.6709741914761 32.540558655510765
  endloop
endfacet
facet normal -1.0265505653316877e-09 2.383711919577742e-09 1.0
  outer loop
    vertex 666.8887379916392 631.6709741914761 32.540558655510765
    vertex 651.2363953667009 631.1965549728742 32.540558514098066
    vertex 666.277702848746 618.3085550204299 32.54055855721099
  endloop
endfacet
facet normal -1.0265505653316877e-09 2.383711919577742e-09 1.0
  outer loop
    vertex 686.2928154080902 645.1929690912825 32.540558791573766
    vertex 666.8887379916392 631.6709741914761 32.540558655510765
    vertex 674.5161937424073 631.6420896181514 32.54055870894586
  endloop
endfacet
facet normal -1.0265505653316877e-09 2.383711919577742e-09 1.0
  outer loop
    vertex 686.2928154080902 645.1929690912825 32.540558791573766
    vertex 674.5161937424073 631.6420896181514 32.54055870894586
    vertex 686.2928154080902 602.9889515505544 32.540558791573766
  endloop
endfacet
facet normal -1.0 -4.894001637260826e-18 -1.0265505653316877e-09
  outer loop
    vertex 588.2925579795666 602.9889515505544 32.540558791573766
    vertex 588.2925579800799 645.1929690900906 32.04055859036932
    vertex 588.2925579800799 602.9889515493626 32.040558791573766
  endloop
endfacet
facet normal -1.0 -4.894001637260826e-18 -1.0265505653316877e-09
  outer loop
    vertex 588.2925579800799 645.1929690900906 32.04055859036932
    vertex 588.2925579795666 602.9889515505544 32.540558791573766
    vertex 588.2925579795666 645.1929690912825 32.54055859036932
  endloop
endfacet
facet normal 4.894001637260827e-18 1.0 -2.383711919577742e-09
  outer loop
    vertex 588.2925579795666 645.1929690912825 32.54055859036932
    vertex 686.2928154086034 645.1929690900906 32.040558791573766
    vertex 588.2925579800799 645.1929690900906 32.04055859036932
  endloop
endfacet
facet normal 4.894001637260827e-18 1.0 -2.383711919577742e-09
  outer loop
    vertex 686.2928154086034 645.1929690900906 32.040558791573766
    vertex 588.2925579795666 645.1929690912825 32.54055859036932
    vertex 686.2928154080902 645.1929690912825 32.540558791573766
  endloop
endfacet
facet normal 1.0 0.0 1.0265505653316877e-09
  outer loop
    vertex 686.2928154086034 645.1929690900906 32.040558791573766
    vertex 686.2928154080902 602.9889515505544 32.540558791573766
    vertex 686.2928154086034 602.9889515493626 32.040558791573766
  endloop
endfacet
facet normal 1.0 0.0 1.0265505653316877e-09
  outer loop
    vertex 686.2928154080902 602.9889515505544 32.540558791573766
    vertex 686.2928154086034 645.1929690900906 32.040558791573766
    vertex 686.2928154080902 645.1929690912825 32.540558791573766
  endloop
endfacet
facet normal 0.0 -1.0 2.383711919577742e-09
  outer loop
    vertex 686.2928154080902 602.9889515505544 32.540558791573766
    vertex 588.2925579800799 602.9889515493626 32.040558791573766
    vertex 686.2928154086034 602.9889515493626 32.040558791573766
  endloop
endfacet
facet normal 0.0 -1.0 2.383711919577742e-09
  outer loop
    vertex 588.2925579800799 602.9889515493626 32.040558791573766
    vertex 686.2928154080902 602.9889515505544 32.540558791573766
    vertex 588.2925579795666 602.9889515505544 32.540558791573766
  endloop
endfacet
facet normal 0.003310008451716449 0.99999452190702 -2.380300970334847e-09
  outer loop
    vertex 666.277702848746 618.3085550204299 32.54055855721099
    vertex 673.9057923201287 618.2833058403016 32.040558646474246
    vertex 666.2777028492593 618.308555019238 32.04055855721099
  endloop
endfacet
facet normal 0.003310008451716449 0.99999452190702 -2.380300970334847e-09
  outer loop
    vertex 673.9057923201287 618.2833058403016 32.040558646474246
    vertex 666.277702848746 618.3085550204299 32.54055855721099
    vertex 673.9057923196154 618.2833058414935 32.540558646474246
  endloop
endfacet
facet normal -0.9991537250292236 0.04113190683917492 -1.1237284378895135e-09
  outer loop
    vertex 673.9057923196154 618.2833058414935 32.540558646474246
    vertex 674.1425828476691 624.0352914841635 32.04055866535916
    vertex 673.9057923201287 618.2833058403016 32.040558646474246
  endloop
endfacet
facet normal -0.9991537250292236 0.04113190683917492 -1.1237284378895135e-09
  outer loop
    vertex 674.1425828476691 624.0352914841635 32.04055866535916
    vertex 673.9057923196154 618.2833058414935 32.540558646474246
    vertex 674.1425828471558 624.0352914853554 32.54055866535916
  endloop
endfacet
facet normal -0.9987960168441771 0.04905626092769768 -1.1422506096456967e-09
  outer loop
    vertex 674.1425828471558 624.0352914853554 32.54055866535916
    vertex 674.5161937429206 631.6420896169595 32.04055870894586
    vertex 674.1425828476691 624.0352914841635 32.04055866535916
  endloop
endfacet
facet normal -0.9987960168441771 0.04905626092769768 -1.1422506096456967e-09
  outer loop
    vertex 674.5161937429206 631.6420896169595 32.04055870894586
    vertex 674.1425828471558 624.0352914853554 32.54055866535916
    vertex 674.5161937424073 631.6420896181514 32.54055870894586
  endloop
endfacet
facet normal -0.0037868939732048977 -0.9999928296913113 2.3798073894784093e-09
  outer loop
    vertex 674.5161937429206 631.6420896169595 32.04055870894586
    vertex 666.8887379916392 631.6709741914761 32.540558655510765
    vertex 666.8887379921525 631.6709741902843 32.040558655510765
  endloop
endfacet
facet normal -0.0037868939732048977 -0.9999928296913113 2.3798073894784093e-09
  outer loop
    vertex 666.8887379916392 631.6709741914761 32.540558655510765
    vertex 674.5161937429206 631.6420896169595 32.04055870894586
    vertex 674.5161937424073 631.6420896181514 32.54055870894586
  endloop
endfacet
facet normal 0.9989561171648631 -0.04568014863045666 1.1343672815956403e-09
  outer loop
    vertex 666.8887379921525 631.6709741902843 32.040558655510765
    vertex 666.277702848746 618.3085550204299 32.54055855721099
    vertex 666.2777028492593 618.308555019238 32.04055855721099
  endloop
endfacet
facet normal 0.9989561171648631 -0.04568014863045666 1.1343672815956403e-09
  outer loop
    vertex 666.277702848746 618.3085550204299 32.54055855721099
    vertex 666.8887379921525 631.6709741902843 32.040558655510765
    vertex 666.8887379916392 631.6709741914761 32.540558655510765
  endloop
endfacet
facet normal -0.0033223398314046605 0.9999944810137928 -2.387109313736689e-09
  outer loop
    vertex 600.6798718402018 618.2820835437624 32.54055779226092
    vertex 608.3079577910934 618.3074267762297 32.04055788096961
    vertex 600.679871840715 618.2820835425705 32.04055779226092
  endloop
endfacet
facet normal -0.0033223398314046605 0.9999944810137928 -2.387109313736689e-09
  outer loop
    vertex 608.3079577910934 618.3074267762297 32.04055788096961
    vertex 600.6798718402018 618.2820835437624 32.54055779226092
    vertex 608.3079577905801 618.3074267774216 32.54055788096961
  endloop
endfacet
facet normal -0.9989562209353396 -0.04567787926978278 -9.165961680663648e-10
  outer loop
    vertex 608.3079577905801 618.3074267774216 32.54055788096961
    vertex 607.6970101309672 631.6685979931402 32.040558240825874
    vertex 608.3079577910934 618.3074267762297 32.04055788096961
  endloop
endfacet
facet normal -0.9989562209353396 -0.04567787926978278 -9.165961680663648e-10
  outer loop
    vertex 607.6970101309672 631.6685979931402 32.040558240825874
    vertex 608.3079577905801 618.3074267774216 32.54055788096961
    vertex 607.6970101304539 631.6685979943321 32.540558240825874
  endloop
endfacet
facet normal 0.0038008447569383196 -0.9999927767634793 2.387596460796723e-09
  outer loop
    vertex 607.6970101309672 631.6685979931402 32.040558240825874
    vertex 600.0695601881883 631.6396070318017 32.540558187388015
    vertex 600.0695601887016 631.6396070306098 32.040558187388015
  endloop
endfacet
facet normal 0.0038008447569383196 -0.9999927767634793 2.387596460796723e-09
  outer loop
    vertex 600.0695601881883 631.6396070318017 32.540558187388015
    vertex 607.6970101309672 631.6685979931402 32.040558240825874
    vertex 607.6970101304539 631.6685979943321 32.540558240825874
  endloop
endfacet
facet normal 0.9989578215160869 0.04564286178400622 9.166812827416751e-10
  outer loop
    vertex 600.0695601887016 631.6396070306098 32.040558187388015
    vertex 600.6798718402018 618.2820835437624 32.54055779226092
    vertex 600.679871840715 618.2820835425705 32.04055779226092
  endloop
endfacet
facet normal 0.9989578215160869 0.04564286178400622 9.166812827416751e-10
  outer loop
    vertex 600.6798718402018 618.2820835437624 32.54055779226092
    vertex 600.0695601887016 631.6396070306098 32.040558187388015
    vertex 600.0695601881883 631.6396070318017 32.540558187388015
  endloop
endfacet
facet normal 0.027777457656639106 -0.999614131976001 2.4113070862304516e-09
  outer loop
    vertex 633.1309761381935 631.4683723226793 32.04055841900158
    vertex 623.3492233665622 631.196555214933 32.54055829347274
    vertex 623.3492233670755 631.1965552137412 32.04055829347274
  endloop
endfacet
facet normal 0.027777457656639106 -0.999614131976001 2.4113070862304516e-09
  outer loop
    vertex 623.3492233665622 631.196555214933 32.54055829347274
    vertex 633.1309761381935 631.4683723226793 32.04055841900158
    vertex 633.1309761376802 631.4683723238712 32.54055841900157
  endloop
endfacet
facet normal 0.8959705699832883 0.4441134288938151 -1.3887937896183003e-10
  outer loop
    vertex 623.3492233670755 631.1965552137412 32.04055829347274
    vertex 624.4791050778211 628.9170907921351 32.540558249713996
    vertex 624.4791050783344 628.9170907909432 32.040558249714
  endloop
endfacet
facet normal 0.8959705699832883 0.4441134288938151 -1.3887937896183003e-10
  outer loop
    vertex 624.4791050778211 628.9170907921351 32.540558249713996
    vertex 623.3492233670755 631.1965552137412 32.04055829347274
    vertex 623.3492233665622 631.196555214933 32.54055829347274
  endloop
endfacet
facet normal 0.9054177576581985 0.4245217121858433 -8.248035447157348e-11
  outer loop
    vertex 624.4791050783344 628.9170907909432 32.040558249714
    vertex 625.616692836409 626.4908493822041 32.54055821026872
    vertex 625.6166928369223 626.4908493810123 32.04055821026872
  endloop
endfacet
facet normal 0.9054177576581985 0.4245217121858433 -8.248035447157348e-11
  outer loop
    vertex 625.616692836409 626.4908493822041 32.54055821026872
    vertex 624.4791050783344 628.9170907909432 32.040558249714
    vertex 624.4791050778211 628.9170907921351 32.540558249713996
  endloop
endfacet
facet normal 0.9146028057463026 0.4043534440572891 -2.4976097028857165e-11
  outer loop
    vertex 625.6166928369223 626.4908493810123 32.04055821026872
    vertex 626.7023156749 624.0352904926763 32.54055817314146
    vertex 626.7023156754133 624.0352904914844 32.04055817314146
  endloop
endfacet
facet normal 0.9146028057463026 0.4043534440572891 -2.4976097028857165e-11
  outer loop
    vertex 626.7023156749 624.0352904926763 32.54055817314146
    vertex 625.6166928369223 626.4908493810123 32.04055821026872
    vertex 625.616692836409 626.4908493822041 32.54055821026872
  endloop
endfacet
facet normal 0.9236370682276492 0.3832682692264429 3.455901279939273e-11
  outer loop
    vertex 626.7023156754133 624.0352904914844 32.04055817314146
    vertex 627.7325940698012 621.5524256365652 32.540082569989174
    vertex 627.7325940703145 621.5524256353733 32.040082569989174
  endloop
endfacet
facet normal 0.9236370682276492 0.3832682692264429 3.455901279939273e-11
  outer loop
    vertex 627.7325940698012 621.5524256365652 32.540082569989174
    vertex 626.7023156754133 624.0352904914844 32.04055817314146
    vertex 626.7023156749 624.0352904926763 32.54055817314146
  endloop
endfacet
facet normal 0.9355220862348131 0.35326820712719526 1.1827109036767322e-10
  outer loop
    vertex 627.7325940703145 621.5524256353733 32.040082569989174
    vertex 629.0855711214618 617.9694824549794 32.5405581270567
    vertex 629.0855711219751 617.9694824537875 32.0405581270567
  endloop
endfacet
facet normal 0.9355220862348131 0.35326820712719526 1.1827109036767322e-10
  outer loop
    vertex 629.0855711214618 617.9694824549794 32.5405581270567
    vertex 627.7325940703145 621.5524256353733 32.040082569989174
    vertex 627.7325940698012 621.5524256365652 32.540082569989174
  endloop
endfacet
facet normal -0.02449592120315676 0.9996999299011723 -2.408142940665879e-09
  outer loop
    vertex 629.0855711214618 617.9694824549794 32.5405581270567
    vertex 637.2928078958047 618.1705866244432 32.040558220595884
    vertex 629.0855711219751 617.9694824537875 32.0405581270567
  endloop
endfacet
facet normal -0.02449592120315676 0.9996999299011723 -2.408142940665879e-09
  outer loop
    vertex 637.2928078958047 618.1705866244432 32.040558220595884
    vertex 629.0855711214618 617.9694824549794 32.5405581270567
    vertex 637.2928078952914 618.1705866256351 32.540558220595884
  endloop
endfacet
facet normal 0.02449593158510395 0.9996999296467804 -2.357850325883046e-09
  outer loop
    vertex 637.2928078952914 618.1705866256351 32.540558220595884
    vertex 645.5000474623007 617.9694823000741 32.04055831854182
    vertex 637.2928078958047 618.1705866244432 32.040558220595884
  endloop
endfacet
facet normal 0.02449593158510395 0.9996999296467804 -2.357850325883046e-09
  outer loop
    vertex 645.5000474623007 617.9694823000741 32.04055831854182
    vertex 637.2928078952914 618.1705866256351 32.540558220595884
    vertex 645.5000474617874 617.969482301266 32.54055831854182
  endloop
endfacet
facet normal -0.9355220805511271 0.35326822217868753 -1.8024503926854117e-09
  outer loop
    vertex 645.5000474617874 617.969482301266 32.54055831854182
    vertex 646.8530247042411 621.5524258111303 32.04008277520087
    vertex 645.5000474623007 617.9694823000741 32.04055831854182
  endloop
endfacet
facet normal -0.9355220805511271 0.35326822217868753 -1.8024503926854117e-09
  outer loop
    vertex 646.8530247042411 621.5524258111303 32.04008277520087
    vertex 645.5000474617874 617.969482301266 32.54055831854182
    vertex 646.8530247037278 621.5524258123222 32.54008277520087
  endloop
endfacet
facet normal -0.9236370612805801 0.38326828596816337 -1.8617613290773196e-09
  outer loop
    vertex 646.8530247037278 621.5524258123222 32.54008277520087
    vertex 647.8833032628748 624.0352909346925 32.04055839290513
    vertex 646.8530247042411 621.5524258111303 32.04008277520087
  endloop
endfacet
facet normal -0.9236370612805801 0.38326828596816337 -1.8617613290773196e-09
  outer loop
    vertex 647.8833032628748 624.0352909346925 32.04055839290513
    vertex 646.8530247037278 621.5524258123222 32.54008277520087
    vertex 647.8833032623616 624.0352909358844 32.540558392905126
  endloop
endfacet
facet normal -0.9146027988238334 0.40435345971514874 -1.9027481818320483e-09
  outer loop
    vertex 647.8833032623616 624.0352909358844 32.540558392905126
    vertex 648.9689261755863 626.490849878426 32.04055843394061
    vertex 647.8833032628748 624.0352909346925 32.04055839290513
  endloop
endfacet
facet normal -0.9146027988238334 0.40435345971514874 -1.9027481818320483e-09
  outer loop
    vertex 648.9689261755863 626.490849878426 32.04055843394061
    vertex 647.8833032623616 624.0352909358844 32.540558392905126
    vertex 648.968926175073 626.4908498796179 32.54055843394061
  endloop
endfacet
facet normal -0.9054177508285101 0.42452172675216765 -1.9413946041532195e-09
  outer loop
    vertex 648.968926175073 626.4908498796179 32.54055843394061
    vertex 650.1065140086973 628.9170913457482 32.040558474292894
    vertex 648.9689261755863 626.490849878426 32.04055843394061
  endloop
endfacet
facet normal -0.9054177508285101 0.42452172675216765 -1.9413946041532195e-09
  outer loop
    vertex 650.1065140086973 628.9170913457482 32.040558474292894
    vertex 648.968926175073 626.4908498796179 32.54055843394061
    vertex 650.106514008184 628.9170913469401 32.540558474292894
  endloop
endfacet
facet normal -0.8959705633757722 0.4441134422240576 -1.978397594228137e-09
  outer loop
    vertex 650.106514008184 628.9170913469401 32.540558474292894
    vertex 651.2363953672142 631.1965549716823 32.040558514098066
    vertex 650.1065140086973 628.9170913457482 32.040558474292894
  endloop
endfacet
facet normal -0.8959705633757722 0.4441134422240576 -1.978397594228137e-09
  outer loop
    vertex 651.2363953672142 631.1965549716823 32.040558514098066
    vertex 650.106514008184 628.9170913469401 32.540558474292894
    vertex 651.2363953667009 631.1965549728742 32.540558514098066
  endloop
endfacet
facet normal -0.027777468984647 -0.9996141316612162 2.3542771441295225e-09
  outer loop
    vertex 651.2363953672142 631.1965549716823 32.040558514098066
    vertex 641.4546425423848 631.4683721942267 32.54055847731532
    vertex 641.4546425428981 631.4683721930348 32.04055847731532
  endloop
endfacet
facet normal -0.027777468984647 -0.9996141316612162 2.3542771441295225e-09
  outer loop
    vertex 641.4546425423848 631.4683721942267 32.54055847731532
    vertex 651.2363953672142 631.1965549716823 32.040558514098066
    vertex 651.2363953667009 631.1965549728742 32.540558514098066
  endloop
endfacet
facet normal 0.8953260703231527 -0.44541130183202693 1.980829712938073e-09
  outer loop
    vertex 641.4546425428981 631.4683721930348 32.04055847731532
    vertex 640.1854184497761 628.9170911321594 32.54055838735189
    vertex 640.1854184502894 628.9170911309675 32.04055838735189
  endloop
endfacet
facet normal 0.8953260703231527 -0.44541130183202693 1.980829712938073e-09
  outer loop
    vertex 640.1854184497761 628.9170911321594 32.54055838735189
    vertex 641.4546425428981 631.4683721930348 32.04055847731532
    vertex 641.4546425423848 631.4683721942267 32.54055847731532
  endloop
endfacet
facet normal 0.9054177505968052 -0.42452172724634657 1.9413946050933426e-09
  outer loop
    vertex 640.1854184502894 628.9170911309675 32.04055838735189
    vertex 639.0478306166704 626.4908496682938 32.540558338914565
    vertex 639.0478306171836 626.4908496671019 32.040558338914565
  endloop
endfacet
facet normal 0.9054177505968052 -0.42452172724634657 1.9413946050933426e-09
  outer loop
    vertex 639.0478306166704 626.4908496682938 32.540558338914565
    vertex 640.1854184502894 628.9170911309675 32.04055838735189
    vertex 640.1854184497761 628.9170911321594 32.54055838735189
  endloop
endfacet
facet normal 0.9182213907093943 -0.3960675165217487 1.8867115478228243e-09
  outer loop
    vertex 639.0478306171836 626.4908496671019 32.040558338914565
    vertex 637.2928092842913 622.4221036557607 32.540558283136896
    vertex 637.2928092848045 622.4221036545688 32.040558283136896
  endloop
endfacet
facet normal 0.9182213907093943 -0.3960675165217487 1.8867115478228243e-09
  outer loop
    vertex 637.2928092842913 622.4221036557607 32.540558283136896
    vertex 639.0478306171836 626.4908496671019 32.040558338914565
    vertex 639.0478306166704 626.4908496682938 32.540558338914565
  endloop
endfacet
facet normal -0.9182213980938766 -0.3960674994019662 1.5101239688954956e-12
  outer loop
    vertex 637.2928092842913 622.4221036557607 32.540558283136896
    vertex 635.537788074649 626.4908495923362 32.0405583052947
    vertex 637.2928092848045 622.4221036545688 32.040558283136896
  endloop
endfacet
facet normal -0.9182213980938766 -0.3960674994019662 1.5101239688954956e-12
  outer loop
    vertex 635.537788074649 626.4908495923362 32.0405583052947
    vertex 637.2928092842913 622.4221036557607 32.540558283136896
    vertex 635.5377880741357 626.4908495935281 32.540558305294695
  endloop
endfacet
facet normal -0.9054177578898835 -0.4245217116917065 8.248035305585745e-11
  outer loop
    vertex 635.5377880741357 626.4908495935281 32.540558305294695
    vertex 634.4002003160556 628.9170910057238 32.04055833665486
    vertex 635.537788074649 626.4908495923362 32.0405583052947
  endloop
endfacet
facet normal -0.9054177578898835 -0.4245217116917065 8.248035305585745e-11
  outer loop
    vertex 634.4002003160556 628.9170910057238 32.04055833665486
    vertex 635.5377880741357 626.4908495935281 32.540558305294695
    vertex 634.4002003155423 628.9170910069157 32.54055833665486
  endloop
endfacet
facet normal -0.8953260761379284 -0.44541129014368325 1.426347118144057e-10
  outer loop
    vertex 634.4002003155423 628.9170910069157 32.54055833665486
    vertex 633.1309761381935 631.4683723226793 32.04055841900158
    vertex 634.4002003160556 628.9170910057238 32.04055833665486
  endloop
endfacet
facet normal -0.8953260761379284 -0.44541129014368325 1.426347118144057e-10
  outer loop
    vertex 633.1309761381935 631.4683723226793 32.04055841900158
    vertex 634.4002003155423 628.9170910069157 32.54055833665486
    vertex 633.1309761376802 631.4683723238712 32.54055841900157
  endloop
endfacet
endsolid UltiBot
