solid 3D9B
facet normal -0.9914448857307434 -0.1305261850357056 -0
  outer loop
    vertex 65.26295471191406 0.6857622861862183 2.049999952316284
    vertex 65.32087707519531 0.2457699030637741 0
    vertex 65.32087707519531 0.2457699030637741 2.049999952316284
  endloop
endfacet
facet normal -0.9914448857307434 -0.1305261850357056 -0
  outer loop
    vertex 65.32087707519531 0.2457699030637741 0
    vertex 65.26295471191406 0.6857622861862183 2.049999952316284
    vertex 65.26295471191406 0.6857622861862183 0
  endloop
endfacet
facet normal -0.9238795042037964 0.3826834261417389 0
  outer loop
    vertex 65.26295471191406 -0.19422248005867 2.049999952316284
    vertex 65.09312438964844 -0.6042301058769226 0
    vertex 65.09312438964844 -0.6042301058769226 2.049999952316284
  endloop
endfacet
facet normal -0.9238795042037964 0.3826834261417389 0
  outer loop
    vertex 65.09312438964844 -0.6042301058769226 0
    vertex 65.26295471191406 -0.19422248005867 2.049999952316284
    vertex 65.26295471191406 -0.19422248005867 0
  endloop
endfacet
facet normal -0.9914448857307434 0.1305261850357056 0
  outer loop
    vertex 65.32087707519531 0.2457699030637741 2.049999952316284
    vertex 65.26295471191406 -0.19422248005867 0
    vertex 65.26295471191406 -0.19422248005867 2.049999952316284
  endloop
endfacet
facet normal -0.9914448857307434 0.1305261850357056 0
  outer loop
    vertex 65.26295471191406 -0.19422248005867 0
    vertex 65.32087707519531 0.2457699030637741 2.049999952316284
    vertex 65.32087707519531 0.2457699030637741 0
  endloop
endfacet
facet normal -0.6087614297866821 0.7933533191680908 0
  outer loop
    vertex 64.47087860107422 -1.226473331451416 2.049999952316284
    vertex 64.82295989990234 -0.9563116431236267 0
    vertex 64.47087860107422 -1.226473331451416 0
  endloop
endfacet
facet normal -0.6087614297866821 0.7933533191680908 0
  outer loop
    vertex 64.82295989990234 -0.9563116431236267 0
    vertex 64.47087860107422 -1.226473331451416 2.049999952316284
    vertex 64.82295989990234 -0.9563116431236267 2.049999952316284
  endloop
endfacet
facet normal -0.7933533191680908 0.6087614297866821 0
  outer loop
    vertex 65.09312438964844 -0.6042301058769226 2.049999952316284
    vertex 64.82295989990234 -0.9563116431236267 0
    vertex 64.82295989990234 -0.9563116431236267 2.049999952316284
  endloop
endfacet
facet normal -0.7933533191680908 0.6087614297866821 0
  outer loop
    vertex 64.82295989990234 -0.9563116431236267 0
    vertex 65.09312438964844 -0.6042301058769226 2.049999952316284
    vertex 65.09312438964844 -0.6042301058769226 0
  endloop
endfacet
facet normal -0.3826834261417389 0.9238795042037964 0
  outer loop
    vertex 64.06087493896484 -1.39630401134491 2.049999952316284
    vertex 64.47087860107422 -1.226473331451416 0
    vertex 64.06087493896484 -1.39630401134491 0
  endloop
endfacet
facet normal -0.3826834261417389 0.9238795042037964 0
  outer loop
    vertex 64.47087860107422 -1.226473331451416 0
    vertex 64.06087493896484 -1.39630401134491 2.049999952316284
    vertex 64.47087860107422 -1.226473331451416 2.049999952316284
  endloop
endfacet
facet normal -0.1305261850357056 0.9914448857307434 0
  outer loop
    vertex 63.62088012695312 -1.454230070114136 2.049999952316284
    vertex 64.06087493896484 -1.39630401134491 0
    vertex 63.62088012695312 -1.454230070114136 0
  endloop
endfacet
facet normal -0.1305261850357056 0.9914448857307434 0
  outer loop
    vertex 64.06087493896484 -1.39630401134491 0
    vertex 63.62088012695312 -1.454230070114136 2.049999952316284
    vertex 64.06087493896484 -1.39630401134491 2.049999952316284
  endloop
endfacet
facet normal 0.1305261850357056 0.9914448857307434 0
  outer loop
    vertex 63.18088912963867 -1.39630401134491 2.049999952316284
    vertex 63.62088012695312 -1.454230070114136 0
    vertex 63.18088912963867 -1.39630401134491 0
  endloop
endfacet
facet normal 0.1305261850357056 0.9914448857307434 0
  outer loop
    vertex 63.62088012695312 -1.454230070114136 0
    vertex 63.18088912963867 -1.39630401134491 2.049999952316284
    vertex 63.62088012695312 -1.454230070114136 2.049999952316284
  endloop
endfacet
facet normal -0.6087614297866821 -0.7933533191680908 -0
  outer loop
    vertex 64.82295989990234 1.447851419448853 2.049999952316284
    vertex 64.47087860107422 1.718013048171997 0
    vertex 64.82295989990234 1.447851419448853 0
  endloop
endfacet
facet normal -0.6087614297866821 -0.7933533191680908 -0
  outer loop
    vertex 64.47087860107422 1.718013048171997 0
    vertex 64.82295989990234 1.447851419448853 2.049999952316284
    vertex 64.47087860107422 1.718013048171997 2.049999952316284
  endloop
endfacet
facet normal -0.7933533191680908 -0.6087614297866821 -0
  outer loop
    vertex 64.82295989990234 1.447851419448853 2.049999952316284
    vertex 65.09312438964844 1.095769882202148 0
    vertex 65.09312438964844 1.095769882202148 2.049999952316284
  endloop
endfacet
facet normal -0.7933533191680908 -0.6087614297866821 -0
  outer loop
    vertex 65.09312438964844 1.095769882202148 0
    vertex 64.82295989990234 1.447851419448853 2.049999952316284
    vertex 64.82295989990234 1.447851419448853 0
  endloop
endfacet
facet normal -0.9238795042037964 -0.3826834261417389 -0
  outer loop
    vertex 65.09312438964844 1.095769882202148 2.049999952316284
    vertex 65.26295471191406 0.6857622861862183 0
    vertex 65.26295471191406 0.6857622861862183 2.049999952316284
  endloop
endfacet
facet normal -0.9238795042037964 -0.3826834261417389 -0
  outer loop
    vertex 65.26295471191406 0.6857622861862183 0
    vertex 65.09312438964844 1.095769882202148 2.049999952316284
    vertex 65.09312438964844 1.095769882202148 0
  endloop
endfacet
facet normal -0.1305261850357056 -0.9914448857307434 -0
  outer loop
    vertex 64.06087493896484 1.88784384727478 2.049999952316284
    vertex 63.62088012695312 1.945769906044006 0
    vertex 64.06087493896484 1.88784384727478 0
  endloop
endfacet
facet normal -0.1305261850357056 -0.9914448857307434 -0
  outer loop
    vertex 63.62088012695312 1.945769906044006 0
    vertex 64.06087493896484 1.88784384727478 2.049999952316284
    vertex 63.62088012695312 1.945769906044006 2.049999952316284
  endloop
endfacet
facet normal 0.9914448857307434 -0.1305261850357056 0
  outer loop
    vertex 61.97880554199219 0.6857622861862183 0
    vertex 61.92087936401367 0.2457699030637741 2.049999952316284
    vertex 61.92087936401367 0.2457699030637741 0
  endloop
endfacet
facet normal 0.9914448857307434 -0.1305261850357056 0
  outer loop
    vertex 61.92087936401367 0.2457699030637741 2.049999952316284
    vertex 61.97880554199219 0.6857622861862183 0
    vertex 61.97880554199219 0.6857622861862183 2.049999952316284
  endloop
endfacet
facet normal 0.6087614297866821 0.7933533191680908 0
  outer loop
    vertex 62.41880035400391 -0.9563116431236267 2.049999952316284
    vertex 62.77088165283203 -1.226473331451416 0
    vertex 62.41880035400391 -0.9563116431236267 0
  endloop
endfacet
facet normal 0.6087614297866821 0.7933533191680908 0
  outer loop
    vertex 62.77088165283203 -1.226473331451416 0
    vertex 62.41880035400391 -0.9563116431236267 2.049999952316284
    vertex 62.77088165283203 -1.226473331451416 2.049999952316284
  endloop
endfacet
facet normal 0.7933533191680908 0.6087614297866821 0
  outer loop
    vertex 62.14863586425781 -0.6042301058769226 0
    vertex 62.41880035400391 -0.9563116431236267 2.049999952316284
    vertex 62.41880035400391 -0.9563116431236267 0
  endloop
endfacet
facet normal 0.7933533191680908 0.6087614297866821 0
  outer loop
    vertex 62.41880035400391 -0.9563116431236267 2.049999952316284
    vertex 62.14863586425781 -0.6042301058769226 0
    vertex 62.14863586425781 -0.6042301058769226 2.049999952316284
  endloop
endfacet
facet normal 0.1305261850357056 -0.9914448857307434 0
  outer loop
    vertex 63.62088012695312 1.945769906044006 2.049999952316284
    vertex 63.18088912963867 1.88784384727478 0
    vertex 63.62088012695312 1.945769906044006 0
  endloop
endfacet
facet normal 0.1305261850357056 -0.9914448857307434 0
  outer loop
    vertex 63.18088912963867 1.88784384727478 0
    vertex 63.62088012695312 1.945769906044006 2.049999952316284
    vertex 63.18088912963867 1.88784384727478 2.049999952316284
  endloop
endfacet
facet normal 0.9238795042037964 -0.3826834261417389 0
  outer loop
    vertex 62.14863586425781 1.095769882202148 0
    vertex 61.97880554199219 0.6857622861862183 2.049999952316284
    vertex 61.97880554199219 0.6857622861862183 0
  endloop
endfacet
facet normal 0.9238795042037964 -0.3826834261417389 0
  outer loop
    vertex 61.97880554199219 0.6857622861862183 2.049999952316284
    vertex 62.14863586425781 1.095769882202148 0
    vertex 62.14863586425781 1.095769882202148 2.049999952316284
  endloop
endfacet
facet normal 0.6087614297866821 -0.7933533191680908 0
  outer loop
    vertex 62.77088165283203 1.718013048171997 2.049999952316284
    vertex 62.41880035400391 1.447851419448853 0
    vertex 62.77088165283203 1.718013048171997 0
  endloop
endfacet
facet normal 0.6087614297866821 -0.7933533191680908 0
  outer loop
    vertex 62.41880035400391 1.447851419448853 0
    vertex 62.77088165283203 1.718013048171997 2.049999952316284
    vertex 62.41880035400391 1.447851419448853 2.049999952316284
  endloop
endfacet
facet normal 0.9238795042037964 0.3826834261417389 0
  outer loop
    vertex 61.97880554199219 -0.19422248005867 0
    vertex 62.14863586425781 -0.6042301058769226 2.049999952316284
    vertex 62.14863586425781 -0.6042301058769226 0
  endloop
endfacet
facet normal 0.9238795042037964 0.3826834261417389 0
  outer loop
    vertex 62.14863586425781 -0.6042301058769226 2.049999952316284
    vertex 61.97880554199219 -0.19422248005867 0
    vertex 61.97880554199219 -0.19422248005867 2.049999952316284
  endloop
endfacet
facet normal 0.7933533191680908 -0.6087614297866821 0
  outer loop
    vertex 62.41880035400391 1.447851419448853 0
    vertex 62.14863586425781 1.095769882202148 2.049999952316284
    vertex 62.14863586425781 1.095769882202148 0
  endloop
endfacet
facet normal 0.7933533191680908 -0.6087614297866821 0
  outer loop
    vertex 62.14863586425781 1.095769882202148 2.049999952316284
    vertex 62.41880035400391 1.447851419448853 0
    vertex 62.41880035400391 1.447851419448853 2.049999952316284
  endloop
endfacet
facet normal 0.9914448857307434 0.1305261850357056 0
  outer loop
    vertex 61.92087936401367 0.2457699030637741 0
    vertex 61.97880554199219 -0.19422248005867 2.049999952316284
    vertex 61.97880554199219 -0.19422248005867 0
  endloop
endfacet
facet normal 0.9914448857307434 0.1305261850357056 0
  outer loop
    vertex 61.97880554199219 -0.19422248005867 2.049999952316284
    vertex 61.92087936401367 0.2457699030637741 0
    vertex 61.92087936401367 0.2457699030637741 2.049999952316284
  endloop
endfacet
facet normal 0.3826834261417389 0.9238795042037964 0
  outer loop
    vertex 62.77088165283203 -1.226473331451416 2.049999952316284
    vertex 63.18088912963867 -1.39630401134491 0
    vertex 62.77088165283203 -1.226473331451416 0
  endloop
endfacet
facet normal 0.3826834261417389 0.9238795042037964 0
  outer loop
    vertex 63.18088912963867 -1.39630401134491 0
    vertex 62.77088165283203 -1.226473331451416 2.049999952316284
    vertex 63.18088912963867 -1.39630401134491 2.049999952316284
  endloop
endfacet
facet normal 0.3826834261417389 -0.9238795042037964 0
  outer loop
    vertex 63.18088912963867 1.88784384727478 2.049999952316284
    vertex 62.77088165283203 1.718013048171997 0
    vertex 63.18088912963867 1.88784384727478 0
  endloop
endfacet
facet normal 0.3826834261417389 -0.9238795042037964 0
  outer loop
    vertex 62.77088165283203 1.718013048171997 0
    vertex 63.18088912963867 1.88784384727478 2.049999952316284
    vertex 62.77088165283203 1.718013048171997 2.049999952316284
  endloop
endfacet
facet normal 0 0 -1
  outer loop
    vertex 61.01288223266602 0.9445813298225403 0
    vertex 61.01288223266602 -0.4530415236949921 0
    vertex 60.92087936401367 0.2457699030637741 0
  endloop
endfacet
facet normal 0 0 -1
  outer loop
    vertex 61.01288223266602 -0.4530415236949921 0
    vertex 61.01288223266602 0.9445813298225403 0
    vertex 61.28261184692383 1.595769882202148 0
  endloop
endfacet
facet normal 0 0 -1
  outer loop
    vertex 61.01288223266602 -0.4530415236949921 0
    vertex 61.28261184692383 1.595769882202148 0
    vertex 61.28261184692383 -1.104230046272278 0
  endloop
endfacet
facet normal 0 0 -1
  outer loop
    vertex 61.28261184692383 -1.104230046272278 0
    vertex 61.28261184692383 1.595769882202148 0
    vertex 61.71169281005859 2.154958248138428 0
  endloop
endfacet
facet normal 0 0 -1
  outer loop
    vertex 61.28261184692383 -1.104230046272278 0
    vertex 61.71169281005859 2.154958248138428 0
    vertex 61.71169281005859 -1.663418412208557 0
  endloop
endfacet
facet normal 0 0 -1
  outer loop
    vertex 61.71169281005859 -1.663418412208557 0
    vertex 61.71169281005859 2.154958248138428 0
    vertex 61.92087936401367 0.2457699030637741 0
  endloop
endfacet
facet normal 0 0 -1
  outer loop
    vertex 61.92087936401367 0.2457699030637741 0
    vertex 61.71169281005859 2.154958248138428 0
    vertex 61.97880554199219 0.6857622861862183 0
  endloop
endfacet
facet normal 0 0 -1
  outer loop
    vertex 61.97880554199219 0.6857622861862183 0
    vertex 61.71169281005859 2.154958248138428 0
    vertex 62.27088165283203 2.584038496017456 0
  endloop
endfacet
facet normal 0 0 -1
  outer loop
    vertex 61.97880554199219 0.6857622861862183 0
    vertex 62.27088165283203 2.584038496017456 0
    vertex 62.14863586425781 1.095769882202148 0
  endloop
endfacet
facet normal 0 0 -1
  outer loop
    vertex 62.14863586425781 1.095769882202148 0
    vertex 62.27088165283203 2.584038496017456 0
    vertex 62.41880035400391 1.447851419448853 0
  endloop
endfacet
facet normal 0 0 -1
  outer loop
    vertex 62.41880035400391 1.447851419448853 0
    vertex 62.27088165283203 2.584038496017456 0
    vertex 62.92206954956055 2.853769540786743 0
  endloop
endfacet
facet normal 0 0 -1
  outer loop
    vertex 62.41880035400391 1.447851419448853 0
    vertex 62.92206954956055 2.853769540786743 0
    vertex 62.77088165283203 1.718013048171997 0
  endloop
endfacet
facet normal 0 0 -1
  outer loop
    vertex 62.77088165283203 1.718013048171997 0
    vertex 62.92206954956055 2.853769540786743 0
    vertex 63.18088912963867 1.88784384727478 0
  endloop
endfacet
facet normal 0 0 -1
  outer loop
    vertex 63.18088912963867 1.88784384727478 0
    vertex 62.92206954956055 2.853769540786743 0
    vertex 63.62088012695312 2.945769786834717 0
  endloop
endfacet
facet normal 0 0 -1
  outer loop
    vertex 63.18088912963867 1.88784384727478 0
    vertex 63.62088012695312 2.945769786834717 0
    vertex 63.62088012695312 1.945769906044006 0
  endloop
endfacet
facet normal 0 0 -1
  outer loop
    vertex 63.62088012695312 1.945769906044006 0
    vertex 63.62088012695312 2.945769786834717 0
    vertex 64.31969451904297 2.853769540786743 0
  endloop
endfacet
facet normal 0 0 -1
  outer loop
    vertex 63.62088012695312 1.945769906044006 0
    vertex 64.31969451904297 2.853769540786743 0
    vertex 64.06087493896484 1.88784384727478 0
  endloop
endfacet
facet normal 0 0 -1
  outer loop
    vertex 64.06087493896484 1.88784384727478 0
    vertex 64.31969451904297 2.853769540786743 0
    vertex 64.47087860107422 1.718013048171997 0
  endloop
endfacet
facet normal 0 0 -1
  outer loop
    vertex 64.47087860107422 1.718013048171997 0
    vertex 64.31969451904297 2.853769540786743 0
    vertex 64.97087860107422 2.584038496017456 0
  endloop
endfacet
facet normal 0 0 -1
  outer loop
    vertex 64.47087860107422 1.718013048171997 0
    vertex 64.97087860107422 2.584038496017456 0
    vertex 64.82295989990234 1.447851419448853 0
  endloop
endfacet
facet normal 0 0 -1
  outer loop
    vertex 64.82295989990234 1.447851419448853 0
    vertex 64.97087860107422 2.584038496017456 0
    vertex 65.09312438964844 1.095769882202148 0
  endloop
endfacet
facet normal 0 0 -1
  outer loop
    vertex 65.09312438964844 1.095769882202148 0
    vertex 64.97087860107422 2.584038496017456 0
    vertex 65.53006744384766 2.154958248138428 0
  endloop
endfacet
facet normal 0 0 -1
  outer loop
    vertex 65.09312438964844 1.095769882202148 0
    vertex 65.53006744384766 2.154958248138428 0
    vertex 65.26295471191406 0.6857622861862183 0
  endloop
endfacet
facet normal 0 0 -1
  outer loop
    vertex 65.26295471191406 0.6857622861862183 0
    vertex 65.53006744384766 2.154958248138428 0
    vertex 65.32087707519531 0.2457699030637741 0
  endloop
endfacet
facet normal 0 0 -1
  outer loop
    vertex 61.71169281005859 -1.663418412208557 0
    vertex 61.97880554199219 -0.19422248005867 0
    vertex 62.27088165283203 -2.092498779296875 0
  endloop
endfacet
facet normal 0 0 -1
  outer loop
    vertex 61.97880554199219 -0.19422248005867 0
    vertex 61.71169281005859 -1.663418412208557 0
    vertex 61.92087936401367 0.2457699030637741 0
  endloop
endfacet
facet normal 0 0 -1
  outer loop
    vertex 62.27088165283203 -2.092498779296875 0
    vertex 61.97880554199219 -0.19422248005867 0
    vertex 62.14863586425781 -0.6042301058769226 0
  endloop
endfacet
facet normal 0 0 -1
  outer loop
    vertex 62.27088165283203 -2.092498779296875 0
    vertex 62.14863586425781 -0.6042301058769226 0
    vertex 62.41880035400391 -0.9563116431236267 0
  endloop
endfacet
facet normal 0 0 -1
  outer loop
    vertex 62.27088165283203 -2.092498779296875 0
    vertex 62.41880035400391 -0.9563116431236267 0
    vertex 62.92206954956055 -2.362229824066162 0
  endloop
endfacet
facet normal 0 0 -1
  outer loop
    vertex 62.92206954956055 -2.362229824066162 0
    vertex 62.41880035400391 -0.9563116431236267 0
    vertex 62.77088165283203 -1.226473331451416 0
  endloop
endfacet
facet normal 0 0 -1
  outer loop
    vertex 62.92206954956055 -2.362229824066162 0
    vertex 62.77088165283203 -1.226473331451416 0
    vertex 63.18088912963867 -1.39630401134491 0
  endloop
endfacet
facet normal 0 0 -1
  outer loop
    vertex 62.92206954956055 -2.362229824066162 0
    vertex 63.18088912963867 -1.39630401134491 0
    vertex 63.62088012695312 -2.454230070114136 0
  endloop
endfacet
facet normal 0 0 -1
  outer loop
    vertex 63.62088012695312 -2.454230070114136 0
    vertex 63.18088912963867 -1.39630401134491 0
    vertex 63.62088012695312 -1.454230070114136 0
  endloop
endfacet
facet normal 0 0 -1
  outer loop
    vertex 63.62088012695312 -2.454230070114136 0
    vertex 63.62088012695312 -1.454230070114136 0
    vertex 64.06087493896484 -1.39630401134491 0
  endloop
endfacet
facet normal 0 0 -1
  outer loop
    vertex 63.62088012695312 -2.454230070114136 0
    vertex 64.06087493896484 -1.39630401134491 0
    vertex 64.31969451904297 -2.362229824066162 0
  endloop
endfacet
facet normal 0 0 -1
  outer loop
    vertex 64.31969451904297 -2.362229824066162 0
    vertex 64.06087493896484 -1.39630401134491 0
    vertex 64.47087860107422 -1.226473331451416 0
  endloop
endfacet
facet normal 0 0 -1
  outer loop
    vertex 64.31969451904297 -2.362229824066162 0
    vertex 64.47087860107422 -1.226473331451416 0
    vertex 64.97087860107422 -2.092498779296875 0
  endloop
endfacet
facet normal 0 0 -1
  outer loop
    vertex 64.97087860107422 -2.092498779296875 0
    vertex 64.47087860107422 -1.226473331451416 0
    vertex 64.82295989990234 -0.9563116431236267 0
  endloop
endfacet
facet normal 0 0 -1
  outer loop
    vertex 64.97087860107422 -2.092498779296875 0
    vertex 64.82295989990234 -0.9563116431236267 0
    vertex 65.09312438964844 -0.6042301058769226 0
  endloop
endfacet
facet normal 0 0 -1
  outer loop
    vertex 64.97087860107422 -2.092498779296875 0
    vertex 65.09312438964844 -0.6042301058769226 0
    vertex 65.53006744384766 -1.663418412208557 0
  endloop
endfacet
facet normal 0 0 -1
  outer loop
    vertex 65.53006744384766 -1.663418412208557 0
    vertex 65.09312438964844 -0.6042301058769226 0
    vertex 65.26295471191406 -0.19422248005867 0
  endloop
endfacet
facet normal 0 0 -1
  outer loop
    vertex 65.53006744384766 -1.663418412208557 0
    vertex 65.26295471191406 -0.19422248005867 0
    vertex 65.32087707519531 0.2457699030637741 0
  endloop
endfacet
facet normal 0 0 -1
  outer loop
    vertex 65.53006744384766 -1.663418412208557 0
    vertex 65.32087707519531 0.2457699030637741 0
    vertex 65.53006744384766 2.154958248138428 0
  endloop
endfacet
facet normal 0 0 -1
  outer loop
    vertex 65.53006744384766 -1.663418412208557 0
    vertex 65.53006744384766 2.154958248138428 0
    vertex 65.95915222167969 1.595769882202148 0
  endloop
endfacet
facet normal 0 0 -1
  outer loop
    vertex 65.53006744384766 -1.663418412208557 0
    vertex 65.95915222167969 1.595769882202148 0
    vertex 65.95915222167969 -1.104230046272278 0
  endloop
endfacet
facet normal 0 0 -1
  outer loop
    vertex 65.95915222167969 -1.104230046272278 0
    vertex 65.95915222167969 1.595769882202148 0
    vertex 66.2288818359375 0.9445813298225403 0
  endloop
endfacet
facet normal 0 0 -1
  outer loop
    vertex 65.95915222167969 -1.104230046272278 0
    vertex 66.2288818359375 0.9445813298225403 0
    vertex 66.2288818359375 -0.4530415236949921 0
  endloop
endfacet
facet normal 0 0 -1
  outer loop
    vertex 66.2288818359375 -0.4530415236949921 0
    vertex 66.2288818359375 0.9445813298225403 0
    vertex 66.32087707519531 0.2457699030637741 0
  endloop
endfacet
facet normal 0.6087614297866821 0.7933533191680908 0
  outer loop
    vertex 64.97087860107422 2.584038496017456 2.049999952316284
    vertex 65.53006744384766 2.154958248138428 0
    vertex 64.97087860107422 2.584038496017456 0
  endloop
endfacet
facet normal 0.6087614297866821 0.7933533191680908 0
  outer loop
    vertex 65.53006744384766 2.154958248138428 0
    vertex 64.97087860107422 2.584038496017456 2.049999952316284
    vertex 65.53006744384766 2.154958248138428 2.049999952316284
  endloop
endfacet
facet normal 0.3826834261417389 0.9238795042037964 0
  outer loop
    vertex 64.31969451904297 2.853769540786743 2.049999952316284
    vertex 64.97087860107422 2.584038496017456 0
    vertex 64.31969451904297 2.853769540786743 0
  endloop
endfacet
facet normal 0.3826834261417389 0.9238795042037964 0
  outer loop
    vertex 64.97087860107422 2.584038496017456 0
    vertex 64.31969451904297 2.853769540786743 2.049999952316284
    vertex 64.97087860107422 2.584038496017456 2.049999952316284
  endloop
endfacet
facet normal 0 0 1
  outer loop
    vertex 61.01288223266602 -0.4530415236949921 2.049999952316284
    vertex 61.01288223266602 0.9445813298225403 2.049999952316284
    vertex 60.92087936401367 0.2457699030637741 2.049999952316284
  endloop
endfacet
facet normal 0 0 1
  outer loop
    vertex 61.01288223266602 0.9445813298225403 2.049999952316284
    vertex 61.01288223266602 -0.4530415236949921 2.049999952316284
    vertex 61.28261184692383 -1.104230046272278 2.049999952316284
  endloop
endfacet
facet normal 0 0 1
  outer loop
    vertex 61.01288223266602 0.9445813298225403 2.049999952316284
    vertex 61.28261184692383 -1.104230046272278 2.049999952316284
    vertex 61.28261184692383 1.595769882202148 2.049999952316284
  endloop
endfacet
facet normal 0 0 1
  outer loop
    vertex 61.28261184692383 1.595769882202148 2.049999952316284
    vertex 61.28261184692383 -1.104230046272278 2.049999952316284
    vertex 61.71169281005859 -1.663418412208557 2.049999952316284
  endloop
endfacet
facet normal 0 0 1
  outer loop
    vertex 61.28261184692383 1.595769882202148 2.049999952316284
    vertex 61.71169281005859 -1.663418412208557 2.049999952316284
    vertex 61.71169281005859 2.154958248138428 2.049999952316284
  endloop
endfacet
facet normal 0 0 1
  outer loop
    vertex 61.71169281005859 2.154958248138428 2.049999952316284
    vertex 61.71169281005859 -1.663418412208557 2.049999952316284
    vertex 61.92087936401367 0.2457699030637741 2.049999952316284
  endloop
endfacet
facet normal 0 0 1
  outer loop
    vertex 61.92087936401367 0.2457699030637741 2.049999952316284
    vertex 61.71169281005859 -1.663418412208557 2.049999952316284
    vertex 61.97880554199219 -0.19422248005867 2.049999952316284
  endloop
endfacet
facet normal 0 0 1
  outer loop
    vertex 61.97880554199219 -0.19422248005867 2.049999952316284
    vertex 61.71169281005859 -1.663418412208557 2.049999952316284
    vertex 62.27088165283203 -2.092498779296875 2.049999952316284
  endloop
endfacet
facet normal 0 0 1
  outer loop
    vertex 61.97880554199219 -0.19422248005867 2.049999952316284
    vertex 62.27088165283203 -2.092498779296875 2.049999952316284
    vertex 62.14863586425781 -0.6042301058769226 2.049999952316284
  endloop
endfacet
facet normal 0 0 1
  outer loop
    vertex 62.14863586425781 -0.6042301058769226 2.049999952316284
    vertex 62.27088165283203 -2.092498779296875 2.049999952316284
    vertex 62.41880035400391 -0.9563116431236267 2.049999952316284
  endloop
endfacet
facet normal 0 0 1
  outer loop
    vertex 62.41880035400391 -0.9563116431236267 2.049999952316284
    vertex 62.27088165283203 -2.092498779296875 2.049999952316284
    vertex 62.92206954956055 -2.362229824066162 2.049999952316284
  endloop
endfacet
facet normal 0 0 1
  outer loop
    vertex 62.41880035400391 -0.9563116431236267 2.049999952316284
    vertex 62.92206954956055 -2.362229824066162 2.049999952316284
    vertex 62.77088165283203 -1.226473331451416 2.049999952316284
  endloop
endfacet
facet normal 0 0 1
  outer loop
    vertex 62.77088165283203 -1.226473331451416 2.049999952316284
    vertex 62.92206954956055 -2.362229824066162 2.049999952316284
    vertex 63.18088912963867 -1.39630401134491 2.049999952316284
  endloop
endfacet
facet normal 0 0 1
  outer loop
    vertex 63.18088912963867 -1.39630401134491 2.049999952316284
    vertex 62.92206954956055 -2.362229824066162 2.049999952316284
    vertex 63.62088012695312 -2.454230070114136 2.049999952316284
  endloop
endfacet
facet normal 0 0 1
  outer loop
    vertex 63.18088912963867 -1.39630401134491 2.049999952316284
    vertex 63.62088012695312 -2.454230070114136 2.049999952316284
    vertex 63.62088012695312 -1.454230070114136 2.049999952316284
  endloop
endfacet
facet normal 0 0 1
  outer loop
    vertex 63.62088012695312 -1.454230070114136 2.049999952316284
    vertex 63.62088012695312 -2.454230070114136 2.049999952316284
    vertex 64.31969451904297 -2.362229824066162 2.049999952316284
  endloop
endfacet
facet normal 0 0 1
  outer loop
    vertex 63.62088012695312 -1.454230070114136 2.049999952316284
    vertex 64.31969451904297 -2.362229824066162 2.049999952316284
    vertex 64.06087493896484 -1.39630401134491 2.049999952316284
  endloop
endfacet
facet normal 0 0 1
  outer loop
    vertex 64.06087493896484 -1.39630401134491 2.049999952316284
    vertex 64.31969451904297 -2.362229824066162 2.049999952316284
    vertex 64.47087860107422 -1.226473331451416 2.049999952316284
  endloop
endfacet
facet normal 0 0 1
  outer loop
    vertex 64.47087860107422 -1.226473331451416 2.049999952316284
    vertex 64.31969451904297 -2.362229824066162 2.049999952316284
    vertex 64.97087860107422 -2.092498779296875 2.049999952316284
  endloop
endfacet
facet normal 0 0 1
  outer loop
    vertex 64.47087860107422 -1.226473331451416 2.049999952316284
    vertex 64.97087860107422 -2.092498779296875 2.049999952316284
    vertex 64.82295989990234 -0.9563116431236267 2.049999952316284
  endloop
endfacet
facet normal 0 0 1
  outer loop
    vertex 64.82295989990234 -0.9563116431236267 2.049999952316284
    vertex 64.97087860107422 -2.092498779296875 2.049999952316284
    vertex 65.09312438964844 -0.6042301058769226 2.049999952316284
  endloop
endfacet
facet normal 0 0 1
  outer loop
    vertex 65.09312438964844 -0.6042301058769226 2.049999952316284
    vertex 64.97087860107422 -2.092498779296875 2.049999952316284
    vertex 65.53006744384766 -1.663418412208557 2.049999952316284
  endloop
endfacet
facet normal 0 0 1
  outer loop
    vertex 65.09312438964844 -0.6042301058769226 2.049999952316284
    vertex 65.53006744384766 -1.663418412208557 2.049999952316284
    vertex 65.26295471191406 -0.19422248005867 2.049999952316284
  endloop
endfacet
facet normal 0 0 1
  outer loop
    vertex 65.26295471191406 -0.19422248005867 2.049999952316284
    vertex 65.53006744384766 -1.663418412208557 2.049999952316284
    vertex 65.32087707519531 0.2457699030637741 2.049999952316284
  endloop
endfacet
facet normal 0 0 1
  outer loop
    vertex 61.71169281005859 2.154958248138428 2.049999952316284
    vertex 61.97880554199219 0.6857622861862183 2.049999952316284
    vertex 62.27088165283203 2.584038496017456 2.049999952316284
  endloop
endfacet
facet normal 0 0 1
  outer loop
    vertex 61.97880554199219 0.6857622861862183 2.049999952316284
    vertex 61.71169281005859 2.154958248138428 2.049999952316284
    vertex 61.92087936401367 0.2457699030637741 2.049999952316284
  endloop
endfacet
facet normal 0 0 1
  outer loop
    vertex 62.27088165283203 2.584038496017456 2.049999952316284
    vertex 61.97880554199219 0.6857622861862183 2.049999952316284
    vertex 62.14863586425781 1.095769882202148 2.049999952316284
  endloop
endfacet
facet normal 0 0 1
  outer loop
    vertex 62.27088165283203 2.584038496017456 2.049999952316284
    vertex 62.14863586425781 1.095769882202148 2.049999952316284
    vertex 62.41880035400391 1.447851419448853 2.049999952316284
  endloop
endfacet
facet normal 0 0 1
  outer loop
    vertex 62.27088165283203 2.584038496017456 2.049999952316284
    vertex 62.41880035400391 1.447851419448853 2.049999952316284
    vertex 62.92206954956055 2.853769540786743 2.049999952316284
  endloop
endfacet
facet normal 0 0 1
  outer loop
    vertex 62.92206954956055 2.853769540786743 2.049999952316284
    vertex 62.41880035400391 1.447851419448853 2.049999952316284
    vertex 62.77088165283203 1.718013048171997 2.049999952316284
  endloop
endfacet
facet normal 0 0 1
  outer loop
    vertex 62.92206954956055 2.853769540786743 2.049999952316284
    vertex 62.77088165283203 1.718013048171997 2.049999952316284
    vertex 63.18088912963867 1.88784384727478 2.049999952316284
  endloop
endfacet
facet normal 0 0 1
  outer loop
    vertex 62.92206954956055 2.853769540786743 2.049999952316284
    vertex 63.18088912963867 1.88784384727478 2.049999952316284
    vertex 63.62088012695312 2.945769786834717 2.049999952316284
  endloop
endfacet
facet normal 0 0 1
  outer loop
    vertex 63.62088012695312 2.945769786834717 2.049999952316284
    vertex 63.18088912963867 1.88784384727478 2.049999952316284
    vertex 63.62088012695312 1.945769906044006 2.049999952316284
  endloop
endfacet
facet normal 0 0 1
  outer loop
    vertex 63.62088012695312 2.945769786834717 2.049999952316284
    vertex 63.62088012695312 1.945769906044006 2.049999952316284
    vertex 64.06087493896484 1.88784384727478 2.049999952316284
  endloop
endfacet
facet normal 0 0 1
  outer loop
    vertex 63.62088012695312 2.945769786834717 2.049999952316284
    vertex 64.06087493896484 1.88784384727478 2.049999952316284
    vertex 64.31969451904297 2.853769540786743 2.049999952316284
  endloop
endfacet
facet normal 0 0 1
  outer loop
    vertex 64.31969451904297 2.853769540786743 2.049999952316284
    vertex 64.06087493896484 1.88784384727478 2.049999952316284
    vertex 64.47087860107422 1.718013048171997 2.049999952316284
  endloop
endfacet
facet normal 0 0 1
  outer loop
    vertex 64.31969451904297 2.853769540786743 2.049999952316284
    vertex 64.47087860107422 1.718013048171997 2.049999952316284
    vertex 64.97087860107422 2.584038496017456 2.049999952316284
  endloop
endfacet
facet normal 0 0 1
  outer loop
    vertex 64.97087860107422 2.584038496017456 2.049999952316284
    vertex 64.47087860107422 1.718013048171997 2.049999952316284
    vertex 64.82295989990234 1.447851419448853 2.049999952316284
  endloop
endfacet
facet normal 0 0 1
  outer loop
    vertex 64.97087860107422 2.584038496017456 2.049999952316284
    vertex 64.82295989990234 1.447851419448853 2.049999952316284
    vertex 65.09312438964844 1.095769882202148 2.049999952316284
  endloop
endfacet
facet normal 0 0 1
  outer loop
    vertex 64.97087860107422 2.584038496017456 2.049999952316284
    vertex 65.09312438964844 1.095769882202148 2.049999952316284
    vertex 65.53006744384766 2.154958248138428 2.049999952316284
  endloop
endfacet
facet normal 0 0 1
  outer loop
    vertex 65.53006744384766 2.154958248138428 2.049999952316284
    vertex 65.09312438964844 1.095769882202148 2.049999952316284
    vertex 65.26295471191406 0.6857622861862183 2.049999952316284
  endloop
endfacet
facet normal 0 0 1
  outer loop
    vertex 65.53006744384766 2.154958248138428 2.049999952316284
    vertex 65.26295471191406 0.6857622861862183 2.049999952316284
    vertex 65.32087707519531 0.2457699030637741 2.049999952316284
  endloop
endfacet
facet normal 0 0 1
  outer loop
    vertex 65.53006744384766 2.154958248138428 2.049999952316284
    vertex 65.32087707519531 0.2457699030637741 2.049999952316284
    vertex 65.53006744384766 -1.663418412208557 2.049999952316284
  endloop
endfacet
facet normal 0 0 1
  outer loop
    vertex 65.53006744384766 2.154958248138428 2.049999952316284
    vertex 65.53006744384766 -1.663418412208557 2.049999952316284
    vertex 65.95915222167969 -1.104230046272278 2.049999952316284
  endloop
endfacet
facet normal 0 0 1
  outer loop
    vertex 65.53006744384766 2.154958248138428 2.049999952316284
    vertex 65.95915222167969 -1.104230046272278 2.049999952316284
    vertex 65.95915222167969 1.595769882202148 2.049999952316284
  endloop
endfacet
facet normal 0 0 1
  outer loop
    vertex 65.95915222167969 1.595769882202148 2.049999952316284
    vertex 65.95915222167969 -1.104230046272278 2.049999952316284
    vertex 66.2288818359375 -0.4530415236949921 2.049999952316284
  endloop
endfacet
facet normal 0 0 1
  outer loop
    vertex 65.95915222167969 1.595769882202148 2.049999952316284
    vertex 66.2288818359375 -0.4530415236949921 2.049999952316284
    vertex 66.2288818359375 0.9445813298225403 2.049999952316284
  endloop
endfacet
facet normal 0 0 1
  outer loop
    vertex 66.2288818359375 0.9445813298225403 2.049999952316284
    vertex 66.2288818359375 -0.4530415236949921 2.049999952316284
    vertex 66.32087707519531 0.2457699030637741 2.049999952316284
  endloop
endfacet
facet normal 0.7933533191680908 0.6087614297866821 0
  outer loop
    vertex 65.53006744384766 2.154958248138428 0
    vertex 65.95915222167969 1.595769882202148 2.049999952316284
    vertex 65.95915222167969 1.595769882202148 0
  endloop
endfacet
facet normal 0.7933533191680908 0.6087614297866821 0
  outer loop
    vertex 65.95915222167969 1.595769882202148 2.049999952316284
    vertex 65.53006744384766 2.154958248138428 0
    vertex 65.53006744384766 2.154958248138428 2.049999952316284
  endloop
endfacet
facet normal -0.3826834261417389 -0.9238795042037964 -0
  outer loop
    vertex 62.92206954956055 -2.362229824066162 2.049999952316284
    vertex 62.27088165283203 -2.092498779296875 0
    vertex 62.92206954956055 -2.362229824066162 0
  endloop
endfacet
facet normal -0.3826834261417389 -0.9238795042037964 -0
  outer loop
    vertex 62.27088165283203 -2.092498779296875 0
    vertex 62.92206954956055 -2.362229824066162 2.049999952316284
    vertex 62.27088165283203 -2.092498779296875 2.049999952316284
  endloop
endfacet
facet normal -0.6087614297866821 0.7933533191680908 0
  outer loop
    vertex 61.71169281005859 2.154958248138428 2.049999952316284
    vertex 62.27088165283203 2.584038496017456 0
    vertex 61.71169281005859 2.154958248138428 0
  endloop
endfacet
facet normal -0.6087614297866821 0.7933533191680908 0
  outer loop
    vertex 62.27088165283203 2.584038496017456 0
    vertex 61.71169281005859 2.154958248138428 2.049999952316284
    vertex 62.27088165283203 2.584038496017456 2.049999952316284
  endloop
endfacet
facet normal -0.9914448857307434 -0.1305261850357056 -0
  outer loop
    vertex 60.92087936401367 0.2457699030637741 2.049999952316284
    vertex 61.01288223266602 -0.4530415236949921 0
    vertex 61.01288223266602 -0.4530415236949921 2.049999952316284
  endloop
endfacet
facet normal -0.9914448857307434 -0.1305261850357056 -0
  outer loop
    vertex 61.01288223266602 -0.4530415236949921 0
    vertex 60.92087936401367 0.2457699030637741 2.049999952316284
    vertex 60.92087936401367 0.2457699030637741 0
  endloop
endfacet
facet normal -0.1305261850357056 -0.9914448857307434 -0
  outer loop
    vertex 63.62088012695312 -2.454230070114136 2.049999952316284
    vertex 62.92206954956055 -2.362229824066162 0
    vertex 63.62088012695312 -2.454230070114136 0
  endloop
endfacet
facet normal -0.1305261850357056 -0.9914448857307434 -0
  outer loop
    vertex 62.92206954956055 -2.362229824066162 0
    vertex 63.62088012695312 -2.454230070114136 2.049999952316284
    vertex 62.92206954956055 -2.362229824066162 2.049999952316284
  endloop
endfacet
facet normal 0.1305261850357056 -0.9914448857307434 0
  outer loop
    vertex 64.31969451904297 -2.362229824066162 2.049999952316284
    vertex 63.62088012695312 -2.454230070114136 0
    vertex 64.31969451904297 -2.362229824066162 0
  endloop
endfacet
facet normal 0.1305261850357056 -0.9914448857307434 0
  outer loop
    vertex 63.62088012695312 -2.454230070114136 0
    vertex 64.31969451904297 -2.362229824066162 2.049999952316284
    vertex 63.62088012695312 -2.454230070114136 2.049999952316284
  endloop
endfacet
facet normal 0.7933533191680908 -0.6087614297866821 0
  outer loop
    vertex 65.95915222167969 -1.104230046272278 0
    vertex 65.53006744384766 -1.663418412208557 2.049999952316284
    vertex 65.53006744384766 -1.663418412208557 0
  endloop
endfacet
facet normal 0.7933533191680908 -0.6087614297866821 0
  outer loop
    vertex 65.53006744384766 -1.663418412208557 2.049999952316284
    vertex 65.95915222167969 -1.104230046272278 0
    vertex 65.95915222167969 -1.104230046272278 2.049999952316284
  endloop
endfacet
facet normal 0.9238795042037964 -0.3826834261417389 0
  outer loop
    vertex 66.2288818359375 -0.4530415236949921 0
    vertex 65.95915222167969 -1.104230046272278 2.049999952316284
    vertex 65.95915222167969 -1.104230046272278 0
  endloop
endfacet
facet normal 0.9238795042037964 -0.3826834261417389 0
  outer loop
    vertex 65.95915222167969 -1.104230046272278 2.049999952316284
    vertex 66.2288818359375 -0.4530415236949921 0
    vertex 66.2288818359375 -0.4530415236949921 2.049999952316284
  endloop
endfacet
facet normal 0.9914448857307434 -0.1305261850357056 0
  outer loop
    vertex 66.32087707519531 0.2457699030637741 0
    vertex 66.2288818359375 -0.4530415236949921 2.049999952316284
    vertex 66.2288818359375 -0.4530415236949921 0
  endloop
endfacet
facet normal 0.9914448857307434 -0.1305261850357056 0
  outer loop
    vertex 66.2288818359375 -0.4530415236949921 2.049999952316284
    vertex 66.32087707519531 0.2457699030637741 0
    vertex 66.32087707519531 0.2457699030637741 2.049999952316284
  endloop
endfacet
facet normal 0.3826834261417389 -0.9238795042037964 0
  outer loop
    vertex 64.97087860107422 -2.092498779296875 2.049999952316284
    vertex 64.31969451904297 -2.362229824066162 0
    vertex 64.97087860107422 -2.092498779296875 0
  endloop
endfacet
facet normal 0.3826834261417389 -0.9238795042037964 0
  outer loop
    vertex 64.31969451904297 -2.362229824066162 0
    vertex 64.97087860107422 -2.092498779296875 2.049999952316284
    vertex 64.31969451904297 -2.362229824066162 2.049999952316284
  endloop
endfacet
facet normal 0.9914448857307434 0.1305261850357056 0
  outer loop
    vertex 66.2288818359375 0.9445813298225403 0
    vertex 66.32087707519531 0.2457699030637741 2.049999952316284
    vertex 66.32087707519531 0.2457699030637741 0
  endloop
endfacet
facet normal 0.9914448857307434 0.1305261850357056 0
  outer loop
    vertex 66.32087707519531 0.2457699030637741 2.049999952316284
    vertex 66.2288818359375 0.9445813298225403 0
    vertex 66.2288818359375 0.9445813298225403 2.049999952316284
  endloop
endfacet
facet normal 0.9238795042037964 0.3826834261417389 0
  outer loop
    vertex 65.95915222167969 1.595769882202148 0
    vertex 66.2288818359375 0.9445813298225403 2.049999952316284
    vertex 66.2288818359375 0.9445813298225403 0
  endloop
endfacet
facet normal 0.9238795042037964 0.3826834261417389 0
  outer loop
    vertex 66.2288818359375 0.9445813298225403 2.049999952316284
    vertex 65.95915222167969 1.595769882202148 0
    vertex 65.95915222167969 1.595769882202148 2.049999952316284
  endloop
endfacet
facet normal 0.6087614297866821 -0.7933533191680908 0
  outer loop
    vertex 65.53006744384766 -1.663418412208557 2.049999952316284
    vertex 64.97087860107422 -2.092498779296875 0
    vertex 65.53006744384766 -1.663418412208557 0
  endloop
endfacet
facet normal 0.6087614297866821 -0.7933533191680908 0
  outer loop
    vertex 64.97087860107422 -2.092498779296875 0
    vertex 65.53006744384766 -1.663418412208557 2.049999952316284
    vertex 64.97087860107422 -2.092498779296875 2.049999952316284
  endloop
endfacet
facet normal -0.3826834261417389 -0.9238795042037964 -0
  outer loop
    vertex 64.47087860107422 1.718013048171997 2.049999952316284
    vertex 64.06087493896484 1.88784384727478 0
    vertex 64.47087860107422 1.718013048171997 0
  endloop
endfacet
facet normal -0.3826834261417389 -0.9238795042037964 -0
  outer loop
    vertex 64.06087493896484 1.88784384727478 0
    vertex 64.47087860107422 1.718013048171997 2.049999952316284
    vertex 64.06087493896484 1.88784384727478 2.049999952316284
  endloop
endfacet
facet normal -0.7933533191680908 0.6087614297866821 0
  outer loop
    vertex 61.71169281005859 2.154958248138428 2.049999952316284
    vertex 61.28261184692383 1.595769882202148 0
    vertex 61.28261184692383 1.595769882202148 2.049999952316284
  endloop
endfacet
facet normal -0.7933533191680908 0.6087614297866821 0
  outer loop
    vertex 61.28261184692383 1.595769882202148 0
    vertex 61.71169281005859 2.154958248138428 2.049999952316284
    vertex 61.71169281005859 2.154958248138428 0
  endloop
endfacet
facet normal 0.1305261850357056 0.9914448857307434 0
  outer loop
    vertex 63.62088012695312 2.945769786834717 2.049999952316284
    vertex 64.31969451904297 2.853769540786743 0
    vertex 63.62088012695312 2.945769786834717 0
  endloop
endfacet
facet normal 0.1305261850357056 0.9914448857307434 0
  outer loop
    vertex 64.31969451904297 2.853769540786743 0
    vertex 63.62088012695312 2.945769786834717 2.049999952316284
    vertex 64.31969451904297 2.853769540786743 2.049999952316284
  endloop
endfacet
facet normal -0.9238795042037964 -0.3826834261417389 -0
  outer loop
    vertex 61.01288223266602 -0.4530415236949921 2.049999952316284
    vertex 61.28261184692383 -1.104230046272278 0
    vertex 61.28261184692383 -1.104230046272278 2.049999952316284
  endloop
endfacet
facet normal -0.9238795042037964 -0.3826834261417389 -0
  outer loop
    vertex 61.28261184692383 -1.104230046272278 0
    vertex 61.01288223266602 -0.4530415236949921 2.049999952316284
    vertex 61.01288223266602 -0.4530415236949921 0
  endloop
endfacet
facet normal -0.3826834261417389 0.9238795042037964 0
  outer loop
    vertex 62.27088165283203 2.584038496017456 2.049999952316284
    vertex 62.92206954956055 2.853769540786743 0
    vertex 62.27088165283203 2.584038496017456 0
  endloop
endfacet
facet normal -0.3826834261417389 0.9238795042037964 0
  outer loop
    vertex 62.92206954956055 2.853769540786743 0
    vertex 62.27088165283203 2.584038496017456 2.049999952316284
    vertex 62.92206954956055 2.853769540786743 2.049999952316284
  endloop
endfacet
facet normal -0.1305261850357056 0.9914448857307434 0
  outer loop
    vertex 62.92206954956055 2.853769540786743 2.049999952316284
    vertex 63.62088012695312 2.945769786834717 0
    vertex 62.92206954956055 2.853769540786743 0
  endloop
endfacet
facet normal -0.1305261850357056 0.9914448857307434 0
  outer loop
    vertex 63.62088012695312 2.945769786834717 0
    vertex 62.92206954956055 2.853769540786743 2.049999952316284
    vertex 63.62088012695312 2.945769786834717 2.049999952316284
  endloop
endfacet
facet normal -0.9914448857307434 0.1305261850357056 0
  outer loop
    vertex 61.01288223266602 0.9445813298225403 2.049999952316284
    vertex 60.92087936401367 0.2457699030637741 0
    vertex 60.92087936401367 0.2457699030637741 2.049999952316284
  endloop
endfacet
facet normal -0.9914448857307434 0.1305261850357056 0
  outer loop
    vertex 60.92087936401367 0.2457699030637741 0
    vertex 61.01288223266602 0.9445813298225403 2.049999952316284
    vertex 61.01288223266602 0.9445813298225403 0
  endloop
endfacet
facet normal -0.9238795042037964 0.3826834261417389 0
  outer loop
    vertex 61.28261184692383 1.595769882202148 2.049999952316284
    vertex 61.01288223266602 0.9445813298225403 0
    vertex 61.01288223266602 0.9445813298225403 2.049999952316284
  endloop
endfacet
facet normal -0.9238795042037964 0.3826834261417389 0
  outer loop
    vertex 61.01288223266602 0.9445813298225403 0
    vertex 61.28261184692383 1.595769882202148 2.049999952316284
    vertex 61.28261184692383 1.595769882202148 0
  endloop
endfacet
facet normal -0.7933533191680908 -0.6087614297866821 -0
  outer loop
    vertex 61.28261184692383 -1.104230046272278 2.049999952316284
    vertex 61.71169281005859 -1.663418412208557 0
    vertex 61.71169281005859 -1.663418412208557 2.049999952316284
  endloop
endfacet
facet normal -0.7933533191680908 -0.6087614297866821 -0
  outer loop
    vertex 61.71169281005859 -1.663418412208557 0
    vertex 61.28261184692383 -1.104230046272278 2.049999952316284
    vertex 61.28261184692383 -1.104230046272278 0
  endloop
endfacet
facet normal -0.6087614297866821 -0.7933533191680908 -0
  outer loop
    vertex 62.27088165283203 -2.092498779296875 2.049999952316284
    vertex 61.71169281005859 -1.663418412208557 0
    vertex 62.27088165283203 -2.092498779296875 0
  endloop
endfacet
facet normal -0.6087614297866821 -0.7933533191680908 -0
  outer loop
    vertex 61.71169281005859 -1.663418412208557 0
    vertex 62.27088165283203 -2.092498779296875 2.049999952316284
    vertex 61.71169281005859 -1.663418412208557 2.049999952316284
  endloop
endfacet
endsolid 3D9B
