solid UltiBot
facet normal -1.475786290029992e-12 -0.9238795325111148 -0.3826834323655049
  outer loop
    vertex 621.3588876617148 432.59289943480263 40.632292765810405
    vertex 618.8588876617098 432.2432479560447 41.47642610794024
    vertex 618.8588876617148 432.5928994348113 40.6322927657992
  endloop
endfacet
facet normal -1.475786290029992e-12 -0.9238795325111148 -0.3826834323655049
  outer loop
    vertex 618.8588876617098 432.2432479560447 41.47642610794024
    vertex 621.3588876617148 432.59289943480263 40.632292765810405
    vertex 621.3588876617098 432.24324795603604 41.47642610795144
  endloop
endfacet
facet normal 4.892544956178021e-12 0.1305261922204392 -0.9914448613737593
  outer loop
    vertex 618.8588876617093 435.6239883480554 44.18229276580045
    vertex 621.358887661708 435.15811406686214 44.12095925313178
    vertex 618.8588876617081 435.15811406687084 44.12095925312058
  endloop
endfacet
facet normal 4.892544956178021e-12 0.1305261922204392 -0.9914448613737593
  outer loop
    vertex 621.358887661708 435.15811406686214 44.12095925313178
    vertex 618.8588876617093 435.6239883480554 44.18229276580045
    vertex 621.3588876617093 435.62398834804674 44.182292765811646
  endloop
endfacet
facet normal 2.8176682895153026e-12 -0.3826834323646873 -0.9238795325114535
  outer loop
    vertex 618.8588876617137 436.5239883480555 43.94113849261279
    vertex 621.3588876617113 436.0898626292313 44.120959253132156
    vertex 618.8588876617113 436.0898626292399 44.12095925312095
  endloop
endfacet
facet normal 2.8176682895153026e-12 -0.3826834323646873 -0.9238795325114535
  outer loop
    vertex 621.3588876617113 436.0898626292313 44.120959253132156
    vertex 618.8588876617137 436.5239883480555 43.94113849261279
    vertex 621.3588876617137 436.5239883480469 43.94113849262399
  endloop
endfacet
facet normal 1.4522170819424743e-12 -0.6087614290084191 -0.7933533402914668
  outer loop
    vertex 618.8588876617249 433.8739883480573 39.351203852554164
    vertex 621.3588876617199 433.1491146138955 39.9074190316577
    vertex 618.8588876617199 433.1491146139042 39.907419031646505
  endloop
endfacet
facet normal 1.4522170819424743e-12 -0.6087614290084191 -0.7933533402914668
  outer loop
    vertex 621.3588876617199 433.1491146138955 39.9074190316577
    vertex 618.8588876617249 433.8739883480573 39.351203852554164
    vertex 621.3588876617249 433.87398834804867 39.35120385256537
  endloop
endfacet
facet normal 3.9911000595742075e-12 -0.13052619221966053 -0.9914448613738619
  outer loop
    vertex 618.8588876617113 436.0898626292399 44.12095925312095
    vertex 621.3588876617093 435.62398834804674 44.182292765811646
    vertex 618.8588876617093 435.6239883480554 44.18229276580045
  endloop
endfacet
facet normal 3.9911000595742075e-12 -0.13052619221966053 -0.9914448613738619
  outer loop
    vertex 621.3588876617093 435.62398834804674 44.182292765811646
    vertex 618.8588876617113 436.0898626292399 44.12095925312095
    vertex 621.3588876617113 436.0898626292313 44.120959253132156
  endloop
endfacet
facet normal -1.2200319862025887e-14 -0.7933533402909781 -0.6087614290090556
  outer loop
    vertex 621.3588876617188 437.1828340748591 43.282292765812244
    vertex 618.8588876617162 436.8967805541914 43.65508497193672
    vertex 618.8588876617188 437.1828340748678 43.28229276580104
  endloop
endfacet
facet normal -1.2200319862025887e-14 -0.7933533402909781 -0.6087614290090556
  outer loop
    vertex 618.8588876617162 436.8967805541914 43.65508497193672
    vertex 621.3588876617188 437.1828340748591 43.282292765812244
    vertex 621.3588876617162 436.8967805541827 43.65508497194792
  endloop
endfacet
facet normal -2.838799863385055e-12 -0.9914448613737605 -0.1305261922204303
  outer loop
    vertex 621.3588876617098 432.24324795603604 41.47642610795144
    vertex 618.8588876617054 432.12398834805606 42.38229276579902
    vertex 618.8588876617098 432.2432479560447 41.47642610794024
  endloop
endfacet
facet normal -2.838799863385055e-12 -0.9914448613737605 -0.1305261922204303
  outer loop
    vertex 618.8588876617054 432.12398834805606 42.38229276579902
    vertex 621.3588876617098 432.24324795603604 41.47642610795144
    vertex 621.3588876617052 432.1239883480474 42.38229276581023
  endloop
endfacet
facet normal 2.8176682895150292e-12 -0.38268343236473884 -0.9238795325114322
  outer loop
    vertex 618.8588876617295 434.7181216901986 39.0015523737883
    vertex 621.3588876617249 433.87398834804867 39.35120385256537
    vertex 618.8588876617249 433.8739883480573 39.351203852554164
  endloop
endfacet
facet normal 2.8176682895150292e-12 -0.38268343236473884 -0.9238795325114322
  outer loop
    vertex 621.3588876617249 433.87398834804867 39.35120385256537
    vertex 618.8588876617295 434.7181216901986 39.0015523737883
    vertex 621.3588876617293 434.71812169018995 39.0015523737995
  endloop
endfacet
facet normal -1.2200319862166526e-14 -0.7933533402909932 -0.608761429009036
  outer loop
    vertex 621.3588876617199 433.1491146138955 39.9074190316577
    vertex 618.8588876617148 432.5928994348113 40.6322927657992
    vertex 618.8588876617199 433.1491146139042 39.907419031646505
  endloop
endfacet
facet normal -1.2200319862166526e-14 -0.7933533402909932 -0.608761429009036
  outer loop
    vertex 618.8588876617148 432.5928994348113 40.6322927657992
    vertex 621.3588876617199 433.1491146138955 39.9074190316577
    vertex 621.3588876617148 432.59289943480263 40.632292765810405
  endloop
endfacet
facet normal 3.991100059574186e-12 -0.13052619221966597 -0.9914448613738613
  outer loop
    vertex 618.8588876617331 435.6239883480575 38.882292765800386
    vertex 621.3588876617293 434.71812169018995 39.0015523737995
    vertex 618.8588876617295 434.7181216901986 39.0015523737883
  endloop
endfacet
facet normal 3.991100059574186e-12 -0.13052619221966597 -0.9914448613738613
  outer loop
    vertex 621.3588876617293 434.71812169018995 39.0015523737995
    vertex 618.8588876617331 435.6239883480575 38.882292765800386
    vertex 621.3588876617331 435.6239883480488 38.88229276581159
  endloop
endfacet
facet normal 1.452217081942296e-12 -0.6087614290084449 -0.7933533402914469
  outer loop
    vertex 618.8588876617162 436.8967805541914 43.65508497193672
    vertex 621.3588876617137 436.5239883480469 43.94113849262399
    vertex 618.8588876617137 436.5239883480555 43.94113849261279
  endloop
endfacet
facet normal 1.452217081942296e-12 -0.6087614290084449 -0.7933533402914469
  outer loop
    vertex 621.3588876617137 436.5239883480469 43.94113849262399
    vertex 618.8588876617162 436.8967805541914 43.65508497193672
    vertex 621.3588876617162 436.8967805541827 43.65508497194792
  endloop
endfacet
facet normal -4.0083539173885205e-12 -0.9914448613738645 0.13052619221964168
  outer loop
    vertex 621.3588876617052 432.1239883480474 42.38229276581023
    vertex 618.8588876617017 432.24324795604394 43.288159423657895
    vertex 618.8588876617054 432.12398834805606 42.38229276579902
  endloop
endfacet
facet normal -4.0083539173885205e-12 -0.9914448613738645 0.13052619221964168
  outer loop
    vertex 618.8588876617017 432.24324795604394 43.288159423657895
    vertex 621.3588876617052 432.1239883480474 42.38229276581023
    vertex 621.3588876617017 432.2432479560353 43.28815942366909
  endloop
endfacet
facet normal -1.4522170819421185e-12 0.6087614290084706 0.7933533402914272
  outer loop
    vertex 621.3588876617099 437.37398834804634 45.41338167905785
    vertex 618.8588876617149 438.09886208220803 44.85716649995431
    vertex 618.8588876617099 437.373988348055 45.41338167904665
  endloop
endfacet
facet normal -1.4522170819421185e-12 0.6087614290084706 0.7933533402914272
  outer loop
    vertex 618.8588876617149 438.09886208220803 44.85716649995431
    vertex 621.3588876617099 437.37398834804634 45.41338167905785
    vertex 621.3588876617149 438.09886208219933 44.85716649996551
  endloop
endfacet
facet normal 1.4757862900300056e-12 0.9238795325111158 0.38268343236550273
  outer loop
    vertex 618.85888766172 438.6550772613009 44.13229276580161
    vertex 621.358887661725 439.00472874005885 43.288159423671765
    vertex 618.858887661725 439.0047287400675 43.28815942366057
  endloop
endfacet
facet normal 1.4757862900300056e-12 0.9238795325111158 0.38268343236550273
  outer loop
    vertex 621.358887661725 439.00472874005885 43.288159423671765
    vertex 618.85888766172 438.6550772613009 44.13229276580161
    vertex 621.35888766172 438.65507726129226 44.132292765812814
  endloop
endfacet
facet normal -4.892544956177996e-12 -0.13052619222043044 0.9914448613737605
  outer loop
    vertex 621.3588876616991 434.7181216901872 45.763033157823
    vertex 618.8588876617017 435.62398834805475 45.88229276580042
    vertex 618.8588876616991 434.71812169019586 45.763033157811805
  endloop
endfacet
facet normal -4.892544956177996e-12 -0.13052619222043044 0.9914448613737605
  outer loop
    vertex 618.8588876617017 435.62398834805475 45.88229276580042
    vertex 621.3588876616991 434.7181216901872 45.763033157823
    vertex 621.3588876617017 435.6239883480461 45.88229276581162
  endloop
endfacet
facet normal -5.656468152900093e-12 -0.6087614290090061 0.7933533402910161
  outer loop
    vertex 621.3588876616977 433.1491146138936 44.85716649996356
    vertex 618.8588876616978 433.873988348055 45.413381679045266
    vertex 618.8588876616977 433.1491146139022 44.857166499952356
  endloop
endfacet
facet normal -5.656468152900093e-12 -0.6087614290090061 0.7933533402910161
  outer loop
    vertex 618.8588876616978 433.873988348055 45.413381679045266
    vertex 621.3588876616977 433.1491146138936 44.85716649996356
    vertex 621.3588876616978 433.8739883480463 45.41338167905647
  endloop
endfacet
facet normal -4.9047452760401956e-12 -0.9238795325114404 0.38268343236471924
  outer loop
    vertex 621.3588876617017 432.2432479560353 43.28815942366909
    vertex 618.8588876616991 432.59289943480985 44.13229276579922
    vertex 618.8588876617017 432.24324795604394 43.288159423657895
  endloop
endfacet
facet normal -4.9047452760401956e-12 -0.9238795325114404 0.38268343236471924
  outer loop
    vertex 618.8588876616991 432.59289943480985 44.13229276579922
    vertex 621.3588876617017 432.2432479560353 43.28815942366909
    vertex 621.3588876616991 432.59289943480115 44.13229276581042
  endloop
endfacet
facet normal -5.4668863496045405e-12 -0.7933533402914579 0.6087614290084304
  outer loop
    vertex 621.3588876616991 432.59289943480115 44.13229276581042
    vertex 618.8588876616977 433.1491146139022 44.857166499952356
    vertex 618.8588876616991 432.59289943480985 44.13229276579922
  endloop
endfacet
facet normal -5.4668863496045405e-12 -0.7933533402914579 0.6087614290084304
  outer loop
    vertex 618.8588876616977 433.1491146139022 44.857166499952356
    vertex 621.3588876616991 432.59289943480115 44.13229276581042
    vertex 621.3588876616977 433.1491146138936 44.85716649996356
  endloop
endfacet
facet normal -2.817668289515242e-12 0.38268343236469865 0.9238795325114487
  outer loop
    vertex 621.3588876617054 436.52985500590495 45.76303315782371
    vertex 618.8588876617099 437.373988348055 45.41338167904665
    vertex 618.8588876617055 436.52985500591365 45.763033157812515
  endloop
endfacet
facet normal -2.817668289515242e-12 0.38268343236469865 0.9238795325114487
  outer loop
    vertex 618.8588876617099 437.373988348055 45.41338167904665
    vertex 621.3588876617054 436.52985500590495 45.76303315782371
    vertex 621.3588876617099 437.37398834804634 45.41338167905785
  endloop
endfacet
facet normal -3.991100059574186e-12 0.13052619221966597 0.9914448613738613
  outer loop
    vertex 621.3588876617017 435.6239883480461 45.88229276581162
    vertex 618.8588876617055 436.52985500591365 45.763033157812515
    vertex 618.8588876617017 435.62398834805475 45.88229276580042
  endloop
endfacet
facet normal -3.991100059574186e-12 0.13052619221966597 0.9914448613738613
  outer loop
    vertex 618.8588876617055 436.52985500591365 45.763033157812515
    vertex 621.3588876617017 435.6239883480461 45.88229276581162
    vertex 621.3588876617054 436.52985500590495 45.76303315782371
  endloop
endfacet
facet normal 1.2200319862166526e-14 0.7933533402909932 0.608761429009036
  outer loop
    vertex 618.8588876617149 438.09886208220803 44.85716649995431
    vertex 621.35888766172 438.65507726129226 44.132292765812814
    vertex 618.85888766172 438.6550772613009 44.13229276580161
  endloop
endfacet
facet normal 1.2200319862166526e-14 0.7933533402909932 0.608761429009036
  outer loop
    vertex 621.35888766172 438.65507726129226 44.132292765812814
    vertex 618.8588876617149 438.09886208220803 44.85716649995431
    vertex 621.3588876617149 438.09886208219933 44.85716649996551
  endloop
endfacet
facet normal -5.460570999331221e-12 -0.38268343236550023 0.9238795325111168
  outer loop
    vertex 621.3588876616978 433.8739883480463 45.41338167905647
    vertex 618.8588876616991 434.71812169019586 45.763033157811805
    vertex 618.8588876616978 433.873988348055 45.413381679045266
  endloop
endfacet
facet normal -5.460570999331221e-12 -0.38268343236550023 0.9238795325111168
  outer loop
    vertex 618.8588876616991 434.71812169019586 45.763033157811805
    vertex 621.3588876616978 433.8739883480463 45.41338167905647
    vertex 621.3588876616991 434.7181216901872 45.763033157823
  endloop
endfacet
facet normal -1.0 3.4531188004188315e-12 -4.480150819199255e-12
  outer loop
    vertex 618.8588876617017 432.24324795604394 43.288159423657895
    vertex 618.8588876617098 432.2432479560447 41.47642610794024
    vertex 618.8588876617054 432.12398834805606 42.38229276579902
  endloop
endfacet
facet normal -1.0 3.4531188004188315e-12 -4.480150819199255e-12
  outer loop
    vertex 618.8588876617098 432.2432479560447 41.47642610794024
    vertex 618.8588876617017 432.24324795604394 43.288159423657895
    vertex 618.8588876616991 432.59289943480985 44.13229276579922
  endloop
endfacet
facet normal -1.0 3.4531188004188315e-12 -4.480150819199255e-12
  outer loop
    vertex 618.8588876617098 432.2432479560447 41.47642610794024
    vertex 618.8588876616991 432.59289943480985 44.13229276579922
    vertex 618.8588876617148 432.5928994348113 40.6322927657992
  endloop
endfacet
facet normal -1.0 3.4531188004188315e-12 -4.480150819199255e-12
  outer loop
    vertex 618.8588876617148 432.5928994348113 40.6322927657992
    vertex 618.8588876616991 432.59289943480985 44.13229276579922
    vertex 618.8588876616977 433.1491146139022 44.857166499952356
  endloop
endfacet
facet normal -1.0 3.4531188004188315e-12 -4.480150819199255e-12
  outer loop
    vertex 618.8588876617148 432.5928994348113 40.6322927657992
    vertex 618.8588876616977 433.1491146139022 44.857166499952356
    vertex 618.8588876617199 433.1491146139042 39.907419031646505
  endloop
endfacet
facet normal -1.0 3.4531188004188315e-12 -4.480150819199255e-12
  outer loop
    vertex 618.8588876617199 433.1491146139042 39.907419031646505
    vertex 618.8588876616977 433.1491146139022 44.857166499952356
    vertex 618.8588876616978 433.873988348055 45.413381679045266
  endloop
endfacet
facet normal -1.0 3.4531188004188315e-12 -4.480150819199255e-12
  outer loop
    vertex 618.8588876617199 433.1491146139042 39.907419031646505
    vertex 618.8588876616978 433.873988348055 45.413381679045266
    vertex 618.8588876617112 433.82398834805605 42.3822927657997
  endloop
endfacet
facet normal -1.0 3.4531188004188315e-12 -4.480150819199255e-12
  outer loop
    vertex 618.8588876617112 433.82398834805605 42.3822927657997
    vertex 618.8588876616978 433.873988348055 45.413381679045266
    vertex 618.8588876617093 433.8853218607356 42.848167046984265
  endloop
endfacet
facet normal -1.0 3.4531188004188315e-12 -4.480150819199255e-12
  outer loop
    vertex 618.8588876617093 433.8853218607356 42.848167046984265
    vertex 618.8588876616978 433.873988348055 45.413381679045266
    vertex 618.8588876616991 434.71812169019586 45.763033157811805
  endloop
endfacet
facet normal -1.0 3.4531188004188315e-12 -4.480150819199255e-12
  outer loop
    vertex 618.8588876617093 433.8853218607356 42.848167046984265
    vertex 618.8588876616991 434.71812169019586 45.763033157811805
    vertex 618.858887661708 434.0651426212437 43.28229276579981
  endloop
endfacet
facet normal -1.0 3.4531188004188315e-12 -4.480150819199255e-12
  outer loop
    vertex 618.858887661708 434.0651426212437 43.28229276579981
    vertex 618.8588876616991 434.71812169019586 45.763033157811805
    vertex 618.8588876617073 434.35119614191973 43.655084971935715
  endloop
endfacet
facet normal -1.0 3.4531188004188315e-12 -4.480150819199255e-12
  outer loop
    vertex 618.8588876617073 434.35119614191973 43.655084971935715
    vertex 618.8588876616991 434.71812169019586 45.763033157811805
    vertex 618.8588876617074 434.7239883480555 43.941138492612076
  endloop
endfacet
facet normal -1.0 3.4531188004188315e-12 -4.480150819199255e-12
  outer loop
    vertex 618.8588876617074 434.7239883480555 43.941138492612076
    vertex 618.8588876616991 434.71812169019586 45.763033157811805
    vertex 618.8588876617017 435.62398834805475 45.88229276580042
  endloop
endfacet
facet normal -1.0 3.4531188004188315e-12 -4.480150819199255e-12
  outer loop
    vertex 618.8588876617074 434.7239883480555 43.941138492612076
    vertex 618.8588876617017 435.62398834805475 45.88229276580042
    vertex 618.8588876617081 435.15811406687084 44.12095925312058
  endloop
endfacet
facet normal -1.0 3.4531188004188315e-12 -4.480150819199255e-12
  outer loop
    vertex 618.8588876617081 435.15811406687084 44.12095925312058
    vertex 618.8588876617017 435.62398834805475 45.88229276580042
    vertex 618.8588876617093 435.6239883480554 44.18229276580045
  endloop
endfacet
facet normal -1.0 3.4531188004188315e-12 -4.480150819199255e-12
  outer loop
    vertex 618.8588876617093 435.6239883480554 44.18229276580045
    vertex 618.8588876617017 435.62398834805475 45.88229276580042
    vertex 618.8588876617055 436.52985500591365 45.763033157812515
  endloop
endfacet
facet normal -1.0 3.4531188004188315e-12 -4.480150819199255e-12
  outer loop
    vertex 618.8588876617093 435.6239883480554 44.18229276580045
    vertex 618.8588876617055 436.52985500591365 45.763033157812515
    vertex 618.8588876617113 436.0898626292399 44.12095925312095
  endloop
endfacet
facet normal -1.0 3.4531188004188315e-12 -4.480150819199255e-12
  outer loop
    vertex 618.8588876617113 436.0898626292399 44.12095925312095
    vertex 618.8588876617055 436.52985500591365 45.763033157812515
    vertex 618.8588876617137 436.5239883480555 43.94113849261279
  endloop
endfacet
facet normal -1.0 3.4531188004188315e-12 -4.480150819199255e-12
  outer loop
    vertex 618.8588876617137 436.5239883480555 43.94113849261279
    vertex 618.8588876617055 436.52985500591365 45.763033157812515
    vertex 618.8588876617162 436.8967805541914 43.65508497193672
  endloop
endfacet
facet normal -1.0 3.4531188004188315e-12 -4.480150819199255e-12
  outer loop
    vertex 618.8588876617162 436.8967805541914 43.65508497193672
    vertex 618.8588876617055 436.52985500591365 45.763033157812515
    vertex 618.8588876617099 437.373988348055 45.41338167904665
  endloop
endfacet
facet normal -1.0 3.4531188004188315e-12 -4.480150819199255e-12
  outer loop
    vertex 618.8588876617162 436.8967805541914 43.65508497193672
    vertex 618.8588876617099 437.373988348055 45.41338167904665
    vertex 618.8588876617188 437.1828340748678 43.28229276580104
  endloop
endfacet
facet normal -1.0 3.4531188004188315e-12 -4.480150819199255e-12
  outer loop
    vertex 618.8588876617188 437.1828340748678 43.28229276580104
    vertex 618.8588876617099 437.373988348055 45.41338167904665
    vertex 618.8588876617214 437.36265483537625 42.848167046985644
  endloop
endfacet
facet normal -1.0 3.4531188004188315e-12 -4.480150819199255e-12
  outer loop
    vertex 618.8588876617214 437.36265483537625 42.848167046985644
    vertex 618.8588876617099 437.373988348055 45.41338167904665
    vertex 618.8588876617237 437.4239883480561 42.38229276580112
  endloop
endfacet
facet normal -1.0 3.4531188004188315e-12 -4.480150819199255e-12
  outer loop
    vertex 618.8588876617237 437.4239883480561 42.38229276580112
    vertex 618.8588876617099 437.373988348055 45.41338167904665
    vertex 618.8588876617149 438.09886208220803 44.85716649995431
  endloop
endfacet
facet normal -1.0 3.4531188004188315e-12 -4.480150819199255e-12
  outer loop
    vertex 618.8588876617112 433.82398834805605 42.3822927657997
    vertex 618.8588876617249 433.8739883480573 39.351203852554164
    vertex 618.8588876617199 433.1491146139042 39.907419031646505
  endloop
endfacet
facet normal -1.0 3.4531188004188315e-12 -4.480150819199255e-12
  outer loop
    vertex 618.8588876617249 433.8739883480573 39.351203852554164
    vertex 618.8588876617112 433.82398834805605 42.3822927657997
    vertex 618.8588876617134 433.885321860736 41.916418484615164
  endloop
endfacet
facet normal -1.0 3.4531188004188315e-12 -4.480150819199255e-12
  outer loop
    vertex 618.8588876617249 433.8739883480573 39.351203852554164
    vertex 618.8588876617134 433.885321860736 41.916418484615164
    vertex 618.8588876617295 434.7181216901986 39.0015523737883
  endloop
endfacet
facet normal -1.0 3.4531188004188315e-12 -4.480150819199255e-12
  outer loop
    vertex 618.8588876617295 434.7181216901986 39.0015523737883
    vertex 618.8588876617134 433.885321860736 41.916418484615164
    vertex 618.858887661716 434.06514262124443 41.48229276579977
  endloop
endfacet
facet normal -1.0 3.4531188004188315e-12 -4.480150819199255e-12
  outer loop
    vertex 618.8588876617295 434.7181216901986 39.0015523737883
    vertex 618.858887661716 434.06514262124443 41.48229276579977
    vertex 618.8588876617187 434.3511961419208 41.109500559664085
  endloop
endfacet
facet normal -1.0 3.4531188004188315e-12 -4.480150819199255e-12
  outer loop
    vertex 618.8588876617295 434.7181216901986 39.0015523737883
    vertex 618.8588876617187 434.3511961419208 41.109500559664085
    vertex 618.8588876617213 434.72398834805676 40.82344703898802
  endloop
endfacet
facet normal -1.0 3.4531188004188315e-12 -4.480150819199255e-12
  outer loop
    vertex 618.8588876617295 434.7181216901986 39.0015523737883
    vertex 618.8588876617213 434.72398834805676 40.82344703898802
    vertex 618.8588876617331 435.6239883480575 38.882292765800386
  endloop
endfacet
facet normal -1.0 3.4531188004188315e-12 -4.480150819199255e-12
  outer loop
    vertex 618.8588876617331 435.6239883480575 38.882292765800386
    vertex 618.8588876617213 434.72398834805676 40.82344703898802
    vertex 618.8588876617235 435.15811406687226 40.64362627847986
  endloop
endfacet
facet normal -1.0 3.4531188004188315e-12 -4.480150819199255e-12
  outer loop
    vertex 618.8588876617331 435.6239883480575 38.882292765800386
    vertex 618.8588876617235 435.15811406687226 40.64362627847986
    vertex 618.8588876617255 435.6239883480568 40.58229276580036
  endloop
endfacet
facet normal -1.0 3.4531188004188315e-12 -4.480150819199255e-12
  outer loop
    vertex 618.8588876617331 435.6239883480575 38.882292765800386
    vertex 618.8588876617255 435.6239883480568 40.58229276580036
    vertex 618.8588876617268 436.0898626292414 40.64362627848023
  endloop
endfacet
facet normal -1.0 3.4531188004188315e-12 -4.480150819199255e-12
  outer loop
    vertex 618.8588876617331 435.6239883480575 38.882292765800386
    vertex 618.8588876617268 436.0898626292414 40.64362627848023
    vertex 618.8588876617357 436.5298550059163 39.00155237378901
  endloop
endfacet
facet normal -1.0 3.4531188004188315e-12 -4.480150819199255e-12
  outer loop
    vertex 618.8588876617357 436.5298550059163 39.00155237378901
    vertex 618.8588876617268 436.0898626292414 40.64362627848023
    vertex 618.8588876617274 436.5239883480567 40.82344703898873
  endloop
endfacet
facet normal -1.0 3.4531188004188315e-12 -4.480150819199255e-12
  outer loop
    vertex 618.8588876617357 436.5298550059163 39.00155237378901
    vertex 618.8588876617274 436.5239883480567 40.82344703898873
    vertex 618.8588876617275 436.8967805541925 41.109500559665086
  endloop
endfacet
facet normal -1.0 3.4531188004188315e-12 -4.480150819199255e-12
  outer loop
    vertex 618.8588876617357 436.5298550059163 39.00155237378901
    vertex 618.8588876617275 436.8967805541925 41.109500559665086
    vertex 618.858887661737 437.37398834805725 39.35120385255554
  endloop
endfacet
facet normal -1.0 3.4531188004188315e-12 -4.480150819199255e-12
  outer loop
    vertex 618.858887661737 437.37398834805725 39.35120385255554
    vertex 618.8588876617275 436.8967805541925 41.109500559665086
    vertex 618.8588876617268 437.1828340748685 41.482292765801
  endloop
endfacet
facet normal -1.0 3.4531188004188315e-12 -4.480150819199255e-12
  outer loop
    vertex 618.858887661737 437.37398834805725 39.35120385255554
    vertex 618.8588876617268 437.1828340748685 41.482292765801
    vertex 618.8588876617256 437.3626548353766 41.91641848461654
  endloop
endfacet
facet normal -1.0 3.4531188004188315e-12 -4.480150819199255e-12
  outer loop
    vertex 618.858887661737 437.37398834805725 39.35120385255554
    vertex 618.8588876617256 437.3626548353766 41.91641848461654
    vertex 618.8588876617237 437.4239883480561 42.38229276580112
  endloop
endfacet
facet normal -1.0 3.4531188004188315e-12 -4.480150819199255e-12
  outer loop
    vertex 618.858887661737 437.37398834805725 39.35120385255554
    vertex 618.8588876617237 437.4239883480561 42.38229276580112
    vertex 618.8588876617371 438.09886208221 39.90741903164845
  endloop
endfacet
facet normal -1.0 3.4531188004188315e-12 -4.480150819199255e-12
  outer loop
    vertex 618.8588876617371 438.09886208221 39.90741903164845
    vertex 618.8588876617237 437.4239883480561 42.38229276580112
    vertex 618.8588876617149 438.09886208220803 44.85716649995431
  endloop
endfacet
facet normal -1.0 3.4531188004188315e-12 -4.480150819199255e-12
  outer loop
    vertex 618.8588876617371 438.09886208221 39.90741903164845
    vertex 618.8588876617149 438.09886208220803 44.85716649995431
    vertex 618.85888766172 438.6550772613009 44.13229276580161
  endloop
endfacet
facet normal -1.0 3.4531188004188315e-12 -4.480150819199255e-12
  outer loop
    vertex 618.8588876617371 438.09886208221 39.90741903164845
    vertex 618.85888766172 438.6550772613009 44.13229276580161
    vertex 618.8588876617357 438.6550772613024 40.63229276580159
  endloop
endfacet
facet normal -1.0 3.4531188004188315e-12 -4.480150819199255e-12
  outer loop
    vertex 618.8588876617357 438.6550772613024 40.63229276580159
    vertex 618.85888766172 438.6550772613009 44.13229276580161
    vertex 618.858887661725 439.0047287400675 43.28815942366057
  endloop
endfacet
facet normal -1.0 3.4531188004188315e-12 -4.480150819199255e-12
  outer loop
    vertex 618.8588876617357 438.6550772613024 40.63229276580159
    vertex 618.858887661725 439.0047287400675 43.28815942366057
    vertex 618.8588876617331 439.00472874006823 41.476426107942906
  endloop
endfacet
facet normal -1.0 3.4531188004188315e-12 -4.480150819199255e-12
  outer loop
    vertex 618.8588876617331 439.00472874006823 41.476426107942906
    vertex 618.858887661725 439.0047287400675 43.28815942366057
    vertex 618.8588876617295 439.1239883480561 42.382292765801786
  endloop
endfacet
facet normal -5.6564681529000926e-12 -0.6087614290089228 0.7933533402910801
  outer loop
    vertex 621.3588876617274 436.523988348048 40.82344703899994
    vertex 618.8588876617275 436.8967805541925 41.109500559665086
    vertex 618.8588876617274 436.5239883480567 40.82344703898873
  endloop
endfacet
facet normal -5.6564681529000926e-12 -0.6087614290089228 0.7933533402910801
  outer loop
    vertex 618.8588876617275 436.8967805541925 41.109500559665086
    vertex 621.3588876617274 436.523988348048 40.82344703899994
    vertex 621.3588876617275 436.8967805541838 41.10950055967629
  endloop
endfacet
facet normal 5.466886349604376e-12 0.793353340291527 -0.6087614290083403
  outer loop
    vertex 618.8588876617073 434.35119614191973 43.655084971935715
    vertex 621.358887661708 434.06514262123505 43.282292765811015
    vertex 618.858887661708 434.0651426212437 43.28229276579981
  endloop
endfacet
facet normal 5.466886349604376e-12 0.793353340291527 -0.6087614290083403
  outer loop
    vertex 621.358887661708 434.06514262123505 43.282292765811015
    vertex 618.8588876617073 434.35119614191973 43.655084971935715
    vertex 621.3588876617073 434.35119614191103 43.65508497194692
  endloop
endfacet
facet normal 4.904745276039839e-12 0.9238795325114887 -0.3826834323646026
  outer loop
    vertex 618.858887661708 434.0651426212437 43.28229276579981
    vertex 621.3588876617092 433.88532186072695 42.84816704699547
    vertex 618.8588876617093 433.8853218607356 42.848167046984265
  endloop
endfacet
facet normal 4.904745276039839e-12 0.9238795325114887 -0.3826834323646026
  outer loop
    vertex 621.3588876617092 433.88532186072695 42.84816704699547
    vertex 618.858887661708 434.0651426212437 43.28229276579981
    vertex 621.358887661708 434.06514262123505 43.282292765811015
  endloop
endfacet
facet normal 2.8387998633846154e-12 0.991444861373749 0.13052619222051934
  outer loop
    vertex 618.8588876617112 433.82398834805605 42.3822927657997
    vertex 621.3588876617134 433.8853218607273 41.91641848462637
    vertex 618.8588876617134 433.885321860736 41.916418484615164
  endloop
endfacet
facet normal 2.8387998633846154e-12 0.991444861373749 0.13052619222051934
  outer loop
    vertex 621.3588876617134 433.8853218607273 41.91641848462637
    vertex 618.8588876617112 433.82398834805605 42.3822927657997
    vertex 621.3588876617112 433.8239883480474 42.382292765810895
  endloop
endfacet
facet normal 5.4605709993312315e-12 0.3826834323655058 -0.9238795325111147
  outer loop
    vertex 618.8588876617081 435.15811406687084 44.12095925312058
    vertex 621.3588876617074 434.7239883480468 43.94113849262328
    vertex 618.8588876617074 434.7239883480555 43.941138492612076
  endloop
endfacet
facet normal 5.4605709993312315e-12 0.3826834323655058 -0.9238795325111147
  outer loop
    vertex 621.3588876617074 434.7239883480468 43.94113849262328
    vertex 618.8588876617081 435.15811406687084 44.12095925312058
    vertex 621.358887661708 435.15811406686214 44.12095925313178
  endloop
endfacet
facet normal -2.8176682895149424e-12 0.3826834323647552 0.9238795325114254
  outer loop
    vertex 621.3588876617213 434.7239883480481 40.82344703899923
    vertex 618.8588876617235 435.15811406687226 40.64362627847986
    vertex 618.8588876617213 434.72398834805676 40.82344703898802
  endloop
endfacet
facet normal -2.8176682895149424e-12 0.3826834323647552 0.9238795325114254
  outer loop
    vertex 618.8588876617235 435.15811406687226 40.64362627847986
    vertex 621.3588876617213 434.7239883480481 40.82344703899923
    vertex 621.3588876617235 435.1581140668636 40.643626278491055
  endloop
endfacet
facet normal 1.4757862900307983e-12 0.9238795325111713 0.38268343236536856
  outer loop
    vertex 618.8588876617134 433.885321860736 41.916418484615164
    vertex 621.358887661716 434.06514262123574 41.48229276581097
    vertex 618.858887661716 434.06514262124443 41.48229276579977
  endloop
endfacet
facet normal 1.4757862900307983e-12 0.9238795325111713 0.38268343236536856
  outer loop
    vertex 621.358887661716 434.06514262123574 41.48229276581097
    vertex 618.8588876617134 433.885321860736 41.916418484615164
    vertex 621.3588876617134 433.8853218607273 41.91641848462637
  endloop
endfacet
facet normal 5.656468152900092e-12 0.6087614290089304 -0.7933533402910743
  outer loop
    vertex 618.8588876617074 434.7239883480555 43.941138492612076
    vertex 621.3588876617073 434.35119614191103 43.65508497194692
    vertex 618.8588876617073 434.35119614191973 43.655084971935715
  endloop
endfacet
facet normal 5.656468152900092e-12 0.6087614290089304 -0.7933533402910743
  outer loop
    vertex 621.3588876617073 434.35119614191103 43.65508497194692
    vertex 618.8588876617074 434.7239883480555 43.941138492612076
    vertex 621.3588876617074 434.7239883480468 43.94113849262328
  endloop
endfacet
facet normal -4.892544956178021e-12 -0.1305261922204392 0.9914448613737593
  outer loop
    vertex 621.3588876617254 435.62398834804816 40.582292765811566
    vertex 618.8588876617268 436.0898626292414 40.64362627848023
    vertex 618.8588876617255 435.6239883480568 40.58229276580036
  endloop
endfacet
facet normal -4.892544956178021e-12 -0.1305261922204392 0.9914448613737593
  outer loop
    vertex 618.8588876617268 436.0898626292414 40.64362627848023
    vertex 621.3588876617254 435.62398834804816 40.582292765811566
    vertex 621.3588876617267 436.0898626292327 40.64362627849143
  endloop
endfacet
facet normal -2.8387998633846154e-12 -0.991444861373749 -0.13052619222051934
  outer loop
    vertex 621.3588876617237 437.4239883480475 42.382292765812316
    vertex 618.8588876617214 437.36265483537625 42.848167046985644
    vertex 618.8588876617237 437.4239883480561 42.38229276580112
  endloop
endfacet
facet normal -2.8387998633846154e-12 -0.991444861373749 -0.13052619222051934
  outer loop
    vertex 618.8588876617214 437.36265483537625 42.848167046985644
    vertex 621.3588876617237 437.4239883480475 42.382292765812316
    vertex 621.3588876617214 437.3626548353676 42.84816704699684
  endloop
endfacet
facet normal -3.9911000595742075e-12 0.13052619221966053 0.9914448613738619
  outer loop
    vertex 621.3588876617235 435.1581140668636 40.643626278491055
    vertex 618.8588876617255 435.6239883480568 40.58229276580036
    vertex 618.8588876617235 435.15811406687226 40.64362627847986
  endloop
endfacet
facet normal -3.9911000595742075e-12 0.13052619221966053 0.9914448613738619
  outer loop
    vertex 618.8588876617255 435.6239883480568 40.58229276580036
    vertex 621.3588876617235 435.1581140668636 40.643626278491055
    vertex 621.3588876617254 435.62398834804816 40.582292765811566
  endloop
endfacet
facet normal -5.466886349604364e-12 -0.7933533402915315 0.6087614290083344
  outer loop
    vertex 621.3588876617275 436.8967805541838 41.10950055967629
    vertex 618.8588876617268 437.1828340748685 41.482292765801
    vertex 618.8588876617275 436.8967805541925 41.109500559665086
  endloop
endfacet
facet normal -5.466886349604364e-12 -0.7933533402915315 0.6087614290083344
  outer loop
    vertex 618.8588876617268 437.1828340748685 41.482292765801
    vertex 621.3588876617275 436.8967805541838 41.10950055967629
    vertex 621.3588876617268 437.18283407485984 41.4822927658122
  endloop
endfacet
facet normal 1.220031986206705e-14 0.7933533402909826 0.6087614290090498
  outer loop
    vertex 618.858887661716 434.06514262124443 41.48229276579977
    vertex 621.3588876617187 434.3511961419121 41.10950055967529
    vertex 618.8588876617187 434.3511961419208 41.109500559664085
  endloop
endfacet
facet normal 1.220031986206705e-14 0.7933533402909826 0.6087614290090498
  outer loop
    vertex 621.3588876617187 434.3511961419121 41.10950055967529
    vertex 618.858887661716 434.06514262124443 41.48229276579977
    vertex 621.358887661716 434.06514262123574 41.48229276581097
  endloop
endfacet
facet normal -5.4605709993312315e-12 -0.3826834323655058 0.9238795325111147
  outer loop
    vertex 621.3588876617267 436.0898626292327 40.64362627849143
    vertex 618.8588876617274 436.5239883480567 40.82344703898873
    vertex 618.8588876617268 436.0898626292414 40.64362627848023
  endloop
endfacet
facet normal -5.4605709993312315e-12 -0.3826834323655058 0.9238795325111147
  outer loop
    vertex 618.8588876617274 436.5239883480567 40.82344703898873
    vertex 621.3588876617267 436.0898626292327 40.64362627849143
    vertex 621.3588876617274 436.523988348048 40.82344703899994
  endloop
endfacet
facet normal -4.008353917388965e-12 -0.99144486137385 0.13052619221975184
  outer loop
    vertex 621.3588876617255 437.36265483536795 41.91641848462775
    vertex 618.8588876617237 437.4239883480561 42.38229276580112
    vertex 618.8588876617256 437.3626548353766 41.91641848461654
  endloop
endfacet
facet normal -4.008353917388965e-12 -0.99144486137385 0.13052619221975184
  outer loop
    vertex 618.8588876617237 437.4239883480561 42.38229276580112
    vertex 621.3588876617255 437.36265483536795 41.91641848462775
    vertex 621.3588876617237 437.4239883480475 42.382292765812316
  endloop
endfacet
facet normal -1.4522170819429869e-12 0.6087614290083445 0.7933533402915238
  outer loop
    vertex 621.3588876617187 434.3511961419121 41.10950055967529
    vertex 618.8588876617213 434.72398834805676 40.82344703898802
    vertex 618.8588876617187 434.3511961419208 41.109500559664085
  endloop
endfacet
facet normal -1.4522170819429869e-12 0.6087614290083445 0.7933533402915238
  outer loop
    vertex 618.8588876617213 434.72398834805676 40.82344703898802
    vertex 621.3588876617187 434.3511961419121 41.10950055967529
    vertex 621.3588876617213 434.7239883480481 40.82344703899923
  endloop
endfacet
facet normal 4.008353917388965e-12 0.99144486137385 -0.13052619221975184
  outer loop
    vertex 618.8588876617093 433.8853218607356 42.848167046984265
    vertex 621.3588876617112 433.8239883480474 42.382292765810895
    vertex 618.8588876617112 433.82398834805605 42.3822927657997
  endloop
endfacet
facet normal 4.008353917388965e-12 0.99144486137385 -0.13052619221975184
  outer loop
    vertex 621.3588876617112 433.8239883480474 42.382292765810895
    vertex 618.8588876617093 433.8853218607356 42.848167046984265
    vertex 621.3588876617092 433.88532186072695 42.84816704699547
  endloop
endfacet
facet normal -1.4757862900307983e-12 -0.9238795325111713 -0.38268343236536856
  outer loop
    vertex 621.3588876617214 437.3626548353676 42.84816704699684
    vertex 618.8588876617188 437.1828340748678 43.28229276580104
    vertex 618.8588876617214 437.36265483537625 42.848167046985644
  endloop
endfacet
facet normal -1.4757862900307983e-12 -0.9238795325111713 -0.38268343236536856
  outer loop
    vertex 618.8588876617188 437.1828340748678 43.28229276580104
    vertex 621.3588876617214 437.3626548353676 42.84816704699684
    vertex 621.3588876617188 437.1828340748591 43.282292765812244
  endloop
endfacet
facet normal -4.904745276039839e-12 -0.9238795325114887 0.3826834323646026
  outer loop
    vertex 621.3588876617268 437.18283407485984 41.4822927658122
    vertex 618.8588876617256 437.3626548353766 41.91641848461654
    vertex 618.8588876617268 437.1828340748685 41.482292765801
  endloop
endfacet
facet normal -4.904745276039839e-12 -0.9238795325114887 0.3826834323646026
  outer loop
    vertex 618.8588876617256 437.3626548353766 41.91641848461654
    vertex 621.3588876617268 437.18283407485984 41.4822927658122
    vertex 621.3588876617255 437.36265483536795 41.91641848462775
  endloop
endfacet
facet normal 2.8387998633850504e-12 0.9914448613737605 0.1305261922204311
  outer loop
    vertex 618.858887661725 439.0047287400675 43.28815942366057
    vertex 621.3588876617295 439.1239883480475 42.38229276581299
    vertex 618.8588876617295 439.1239883480561 42.382292765801786
  endloop
endfacet
facet normal 2.8387998633850504e-12 0.9914448613737605 0.1305261922204311
  outer loop
    vertex 621.3588876617295 439.1239883480475 42.38229276581299
    vertex 618.858887661725 439.0047287400675 43.28815942366057
    vertex 621.358887661725 439.00472874005885 43.288159423671765
  endloop
endfacet
facet normal 4.892544956177996e-12 0.13052619222043044 -0.9914448613737605
  outer loop
    vertex 618.8588876617357 436.5298550059163 39.00155237378901
    vertex 621.3588876617331 435.6239883480488 38.88229276581159
    vertex 618.8588876617331 435.6239883480575 38.882292765800386
  endloop
endfacet
facet normal 4.892544956177996e-12 0.13052619222043044 -0.9914448613737605
  outer loop
    vertex 621.3588876617331 435.6239883480488 38.88229276581159
    vertex 618.8588876617357 436.5298550059163 39.00155237378901
    vertex 621.3588876617357 436.5298550059077 39.00155237380021
  endloop
endfacet
facet normal 5.656468152900093e-12 0.6087614290090061 -0.7933533402910161
  outer loop
    vertex 618.8588876617371 438.09886208221 39.90741903164845
    vertex 621.358887661737 437.37398834804856 39.35120385256674
    vertex 618.858887661737 437.37398834805725 39.35120385255554
  endloop
endfacet
facet normal 5.656468152900093e-12 0.6087614290090061 -0.7933533402910161
  outer loop
    vertex 621.358887661737 437.37398834804856 39.35120385256674
    vertex 618.8588876617371 438.09886208221 39.90741903164845
    vertex 621.3588876617371 438.0988620822013 39.90741903165966
  endloop
endfacet
facet normal 5.466886349604547e-12 0.7933533402914558 -0.6087614290084334
  outer loop
    vertex 618.8588876617357 438.6550772613024 40.63229276580159
    vertex 621.3588876617371 438.0988620822013 39.90741903165966
    vertex 618.8588876617371 438.09886208221 39.90741903164845
  endloop
endfacet
facet normal 5.466886349604547e-12 0.7933533402914558 -0.6087614290084334
  outer loop
    vertex 621.3588876617371 438.0988620822013 39.90741903165966
    vertex 618.8588876617357 438.6550772613024 40.63229276580159
    vertex 621.3588876617357 438.6550772612937 40.632292765812785
  endloop
endfacet
facet normal 4.904745276040202e-12 0.9238795325114395 -0.38268343236472147
  outer loop
    vertex 618.8588876617331 439.00472874006823 41.476426107942906
    vertex 621.3588876617357 438.6550772612937 40.632292765812785
    vertex 618.8588876617357 438.6550772613024 40.63229276580159
  endloop
endfacet
facet normal 4.904745276040202e-12 0.9238795325114395 -0.38268343236472147
  outer loop
    vertex 621.3588876617357 438.6550772612937 40.632292765812785
    vertex 618.8588876617331 439.00472874006823 41.476426107942906
    vertex 621.3588876617331 439.0047287400596 41.47642610795411
  endloop
endfacet
facet normal 5.460570999331221e-12 0.38268343236550023 -0.9238795325111168
  outer loop
    vertex 618.858887661737 437.37398834805725 39.35120385255554
    vertex 621.3588876617357 436.5298550059077 39.00155237380021
    vertex 618.8588876617357 436.5298550059163 39.00155237378901
  endloop
endfacet
facet normal 5.460570999331221e-12 0.38268343236550023 -0.9238795325111168
  outer loop
    vertex 621.3588876617357 436.5298550059077 39.00155237380021
    vertex 618.858887661737 437.37398834805725 39.35120385255554
    vertex 621.358887661737 437.37398834804856 39.35120385256674
  endloop
endfacet
facet normal 4.008353917388514e-12 0.9914448613738646 -0.13052619221964004
  outer loop
    vertex 618.8588876617295 439.1239883480561 42.382292765801786
    vertex 621.3588876617331 439.0047287400596 41.47642610795411
    vertex 618.8588876617331 439.00472874006823 41.476426107942906
  endloop
endfacet
facet normal 4.008353917388514e-12 0.9914448613738646 -0.13052619221964004
  outer loop
    vertex 621.3588876617331 439.0047287400596 41.47642610795411
    vertex 618.8588876617295 439.1239883480561 42.382292765801786
    vertex 621.3588876617295 439.1239883480475 42.38229276581299
  endloop
endfacet
facet normal 1.0 -3.4531188004188315e-12 4.480150819199255e-12
  outer loop
    vertex 621.3588876617249 433.87398834804867 39.35120385256537
    vertex 621.3588876617112 433.8239883480474 42.382292765810895
    vertex 621.3588876617199 433.1491146138955 39.9074190316577
  endloop
endfacet
facet normal 1.0 -3.4531188004188315e-12 4.480150819199255e-12
  outer loop
    vertex 621.3588876617112 433.8239883480474 42.382292765810895
    vertex 621.3588876617249 433.87398834804867 39.35120385256537
    vertex 621.3588876617134 433.8853218607273 41.91641848462637
  endloop
endfacet
facet normal 1.0 -3.4531188004188315e-12 4.480150819199255e-12
  outer loop
    vertex 621.3588876617134 433.8853218607273 41.91641848462637
    vertex 621.3588876617249 433.87398834804867 39.35120385256537
    vertex 621.3588876617293 434.71812169018995 39.0015523737995
  endloop
endfacet
facet normal 1.0 -3.4531188004188315e-12 4.480150819199255e-12
  outer loop
    vertex 621.3588876617134 433.8853218607273 41.91641848462637
    vertex 621.3588876617293 434.71812169018995 39.0015523737995
    vertex 621.358887661716 434.06514262123574 41.48229276581097
  endloop
endfacet
facet normal 1.0 -3.4531188004188315e-12 4.480150819199255e-12
  outer loop
    vertex 621.358887661716 434.06514262123574 41.48229276581097
    vertex 621.3588876617293 434.71812169018995 39.0015523737995
    vertex 621.3588876617187 434.3511961419121 41.10950055967529
  endloop
endfacet
facet normal 1.0 -3.4531188004188315e-12 4.480150819199255e-12
  outer loop
    vertex 621.3588876617187 434.3511961419121 41.10950055967529
    vertex 621.3588876617293 434.71812169018995 39.0015523737995
    vertex 621.3588876617213 434.7239883480481 40.82344703899923
  endloop
endfacet
facet normal 1.0 -3.4531188004188315e-12 4.480150819199255e-12
  outer loop
    vertex 621.3588876617213 434.7239883480481 40.82344703899923
    vertex 621.3588876617293 434.71812169018995 39.0015523737995
    vertex 621.3588876617331 435.6239883480488 38.88229276581159
  endloop
endfacet
facet normal 1.0 -3.4531188004188315e-12 4.480150819199255e-12
  outer loop
    vertex 621.3588876617213 434.7239883480481 40.82344703899923
    vertex 621.3588876617331 435.6239883480488 38.88229276581159
    vertex 621.3588876617235 435.1581140668636 40.643626278491055
  endloop
endfacet
facet normal 1.0 -3.4531188004188315e-12 4.480150819199255e-12
  outer loop
    vertex 621.3588876617235 435.1581140668636 40.643626278491055
    vertex 621.3588876617331 435.6239883480488 38.88229276581159
    vertex 621.3588876617254 435.62398834804816 40.582292765811566
  endloop
endfacet
facet normal 1.0 -3.4531188004188315e-12 4.480150819199255e-12
  outer loop
    vertex 621.3588876617254 435.62398834804816 40.582292765811566
    vertex 621.3588876617331 435.6239883480488 38.88229276581159
    vertex 621.3588876617267 436.0898626292327 40.64362627849143
  endloop
endfacet
facet normal 1.0 -3.4531188004188315e-12 4.480150819199255e-12
  outer loop
    vertex 621.3588876617267 436.0898626292327 40.64362627849143
    vertex 621.3588876617331 435.6239883480488 38.88229276581159
    vertex 621.3588876617357 436.5298550059077 39.00155237380021
  endloop
endfacet
facet normal 1.0 -3.4531188004188315e-12 4.480150819199255e-12
  outer loop
    vertex 621.3588876617267 436.0898626292327 40.64362627849143
    vertex 621.3588876617357 436.5298550059077 39.00155237380021
    vertex 621.3588876617274 436.523988348048 40.82344703899994
  endloop
endfacet
facet normal 1.0 -3.4531188004188315e-12 4.480150819199255e-12
  outer loop
    vertex 621.3588876617274 436.523988348048 40.82344703899994
    vertex 621.3588876617357 436.5298550059077 39.00155237380021
    vertex 621.3588876617275 436.8967805541838 41.10950055967629
  endloop
endfacet
facet normal 1.0 -3.4531188004188315e-12 4.480150819199255e-12
  outer loop
    vertex 621.3588876617275 436.8967805541838 41.10950055967629
    vertex 621.3588876617357 436.5298550059077 39.00155237380021
    vertex 621.358887661737 437.37398834804856 39.35120385256674
  endloop
endfacet
facet normal 1.0 -3.4531188004188315e-12 4.480150819199255e-12
  outer loop
    vertex 621.3588876617275 436.8967805541838 41.10950055967629
    vertex 621.358887661737 437.37398834804856 39.35120385256674
    vertex 621.3588876617268 437.18283407485984 41.4822927658122
  endloop
endfacet
facet normal 1.0 -3.4531188004188315e-12 4.480150819199255e-12
  outer loop
    vertex 621.3588876617268 437.18283407485984 41.4822927658122
    vertex 621.358887661737 437.37398834804856 39.35120385256674
    vertex 621.3588876617255 437.36265483536795 41.91641848462775
  endloop
endfacet
facet normal 1.0 -3.4531188004188315e-12 4.480150819199255e-12
  outer loop
    vertex 621.3588876617255 437.36265483536795 41.91641848462775
    vertex 621.358887661737 437.37398834804856 39.35120385256674
    vertex 621.3588876617237 437.4239883480475 42.382292765812316
  endloop
endfacet
facet normal 1.0 -3.4531188004188315e-12 4.480150819199255e-12
  outer loop
    vertex 621.3588876617237 437.4239883480475 42.382292765812316
    vertex 621.358887661737 437.37398834804856 39.35120385256674
    vertex 621.3588876617371 438.0988620822013 39.90741903165966
  endloop
endfacet
facet normal 1.0 -3.4531188004188315e-12 4.480150819199255e-12
  outer loop
    vertex 621.3588876617237 437.4239883480475 42.382292765812316
    vertex 621.3588876617371 438.0988620822013 39.90741903165966
    vertex 621.3588876617149 438.09886208219933 44.85716649996551
  endloop
endfacet
facet normal 1.0 -3.4531188004188315e-12 4.480150819199255e-12
  outer loop
    vertex 621.3588876617149 438.09886208219933 44.85716649996551
    vertex 621.3588876617371 438.0988620822013 39.90741903165966
    vertex 621.35888766172 438.65507726129226 44.132292765812814
  endloop
endfacet
facet normal 1.0 -3.4531188004188315e-12 4.480150819199255e-12
  outer loop
    vertex 621.35888766172 438.65507726129226 44.132292765812814
    vertex 621.3588876617371 438.0988620822013 39.90741903165966
    vertex 621.3588876617357 438.6550772612937 40.632292765812785
  endloop
endfacet
facet normal 1.0 -3.4531188004188315e-12 4.480150819199255e-12
  outer loop
    vertex 621.35888766172 438.65507726129226 44.132292765812814
    vertex 621.3588876617357 438.6550772612937 40.632292765812785
    vertex 621.358887661725 439.00472874005885 43.288159423671765
  endloop
endfacet
facet normal 1.0 -3.4531188004188315e-12 4.480150819199255e-12
  outer loop
    vertex 621.358887661725 439.00472874005885 43.288159423671765
    vertex 621.3588876617357 438.6550772612937 40.632292765812785
    vertex 621.3588876617331 439.0047287400596 41.47642610795411
  endloop
endfacet
facet normal 1.0 -3.4531188004188315e-12 4.480150819199255e-12
  outer loop
    vertex 621.358887661725 439.00472874005885 43.288159423671765
    vertex 621.3588876617331 439.0047287400596 41.47642610795411
    vertex 621.3588876617295 439.1239883480475 42.38229276581299
  endloop
endfacet
facet normal 1.0 -3.4531188004188315e-12 4.480150819199255e-12
  outer loop
    vertex 621.3588876617098 432.24324795603604 41.47642610795144
    vertex 621.3588876617017 432.2432479560353 43.28815942366909
    vertex 621.3588876617052 432.1239883480474 42.38229276581023
  endloop
endfacet
facet normal 1.0 -3.4531188004188315e-12 4.480150819199255e-12
  outer loop
    vertex 621.3588876617017 432.2432479560353 43.28815942366909
    vertex 621.3588876617098 432.24324795603604 41.47642610795144
    vertex 621.3588876616991 432.59289943480115 44.13229276581042
  endloop
endfacet
facet normal 1.0 -3.4531188004188315e-12 4.480150819199255e-12
  outer loop
    vertex 621.3588876616991 432.59289943480115 44.13229276581042
    vertex 621.3588876617098 432.24324795603604 41.47642610795144
    vertex 621.3588876617148 432.59289943480263 40.632292765810405
  endloop
endfacet
facet normal 1.0 -3.4531188004188315e-12 4.480150819199255e-12
  outer loop
    vertex 621.3588876616991 432.59289943480115 44.13229276581042
    vertex 621.3588876617148 432.59289943480263 40.632292765810405
    vertex 621.3588876616977 433.1491146138936 44.85716649996356
  endloop
endfacet
facet normal 1.0 -3.4531188004188315e-12 4.480150819199255e-12
  outer loop
    vertex 621.3588876616977 433.1491146138936 44.85716649996356
    vertex 621.3588876617148 432.59289943480263 40.632292765810405
    vertex 621.3588876617199 433.1491146138955 39.9074190316577
  endloop
endfacet
facet normal 1.0 -3.4531188004188315e-12 4.480150819199255e-12
  outer loop
    vertex 621.3588876616977 433.1491146138936 44.85716649996356
    vertex 621.3588876617199 433.1491146138955 39.9074190316577
    vertex 621.3588876616978 433.8739883480463 45.41338167905647
  endloop
endfacet
facet normal 1.0 -3.4531188004188315e-12 4.480150819199255e-12
  outer loop
    vertex 621.3588876616978 433.8739883480463 45.41338167905647
    vertex 621.3588876617199 433.1491146138955 39.9074190316577
    vertex 621.3588876617112 433.8239883480474 42.382292765810895
  endloop
endfacet
facet normal 1.0 -3.4531188004188315e-12 4.480150819199255e-12
  outer loop
    vertex 621.3588876616978 433.8739883480463 45.41338167905647
    vertex 621.3588876617112 433.8239883480474 42.382292765810895
    vertex 621.3588876617092 433.88532186072695 42.84816704699547
  endloop
endfacet
facet normal 1.0 -3.4531188004188315e-12 4.480150819199255e-12
  outer loop
    vertex 621.3588876616978 433.8739883480463 45.41338167905647
    vertex 621.3588876617092 433.88532186072695 42.84816704699547
    vertex 621.3588876616991 434.7181216901872 45.763033157823
  endloop
endfacet
facet normal 1.0 -3.4531188004188315e-12 4.480150819199255e-12
  outer loop
    vertex 621.3588876616991 434.7181216901872 45.763033157823
    vertex 621.3588876617092 433.88532186072695 42.84816704699547
    vertex 621.358887661708 434.06514262123505 43.282292765811015
  endloop
endfacet
facet normal 1.0 -3.4531188004188315e-12 4.480150819199255e-12
  outer loop
    vertex 621.3588876616991 434.7181216901872 45.763033157823
    vertex 621.358887661708 434.06514262123505 43.282292765811015
    vertex 621.3588876617073 434.35119614191103 43.65508497194692
  endloop
endfacet
facet normal 1.0 -3.4531188004188315e-12 4.480150819199255e-12
  outer loop
    vertex 621.3588876616991 434.7181216901872 45.763033157823
    vertex 621.3588876617073 434.35119614191103 43.65508497194692
    vertex 621.3588876617074 434.7239883480468 43.94113849262328
  endloop
endfacet
facet normal 1.0 -3.4531188004188315e-12 4.480150819199255e-12
  outer loop
    vertex 621.3588876616991 434.7181216901872 45.763033157823
    vertex 621.3588876617074 434.7239883480468 43.94113849262328
    vertex 621.3588876617017 435.6239883480461 45.88229276581162
  endloop
endfacet
facet normal 1.0 -3.4531188004188315e-12 4.480150819199255e-12
  outer loop
    vertex 621.3588876617017 435.6239883480461 45.88229276581162
    vertex 621.3588876617074 434.7239883480468 43.94113849262328
    vertex 621.358887661708 435.15811406686214 44.12095925313178
  endloop
endfacet
facet normal 1.0 -3.4531188004188315e-12 4.480150819199255e-12
  outer loop
    vertex 621.3588876617017 435.6239883480461 45.88229276581162
    vertex 621.358887661708 435.15811406686214 44.12095925313178
    vertex 621.3588876617093 435.62398834804674 44.182292765811646
  endloop
endfacet
facet normal 1.0 -3.4531188004188315e-12 4.480150819199255e-12
  outer loop
    vertex 621.3588876617017 435.6239883480461 45.88229276581162
    vertex 621.3588876617093 435.62398834804674 44.182292765811646
    vertex 621.3588876617054 436.52985500590495 45.76303315782371
  endloop
endfacet
facet normal 1.0 -3.4531188004188315e-12 4.480150819199255e-12
  outer loop
    vertex 621.3588876617054 436.52985500590495 45.76303315782371
    vertex 621.3588876617093 435.62398834804674 44.182292765811646
    vertex 621.3588876617113 436.0898626292313 44.120959253132156
  endloop
endfacet
facet normal 1.0 -3.4531188004188315e-12 4.480150819199255e-12
  outer loop
    vertex 621.3588876617054 436.52985500590495 45.76303315782371
    vertex 621.3588876617113 436.0898626292313 44.120959253132156
    vertex 621.3588876617137 436.5239883480469 43.94113849262399
  endloop
endfacet
facet normal 1.0 -3.4531188004188315e-12 4.480150819199255e-12
  outer loop
    vertex 621.3588876617054 436.52985500590495 45.76303315782371
    vertex 621.3588876617137 436.5239883480469 43.94113849262399
    vertex 621.3588876617162 436.8967805541827 43.65508497194792
  endloop
endfacet
facet normal 1.0 -3.4531188004188315e-12 4.480150819199255e-12
  outer loop
    vertex 621.3588876617054 436.52985500590495 45.76303315782371
    vertex 621.3588876617162 436.8967805541827 43.65508497194792
    vertex 621.3588876617099 437.37398834804634 45.41338167905785
  endloop
endfacet
facet normal 1.0 -3.4531188004188315e-12 4.480150819199255e-12
  outer loop
    vertex 621.3588876617099 437.37398834804634 45.41338167905785
    vertex 621.3588876617162 436.8967805541827 43.65508497194792
    vertex 621.3588876617188 437.1828340748591 43.282292765812244
  endloop
endfacet
facet normal 1.0 -3.4531188004188315e-12 4.480150819199255e-12
  outer loop
    vertex 621.3588876617099 437.37398834804634 45.41338167905785
    vertex 621.3588876617188 437.1828340748591 43.282292765812244
    vertex 621.3588876617214 437.3626548353676 42.84816704699684
  endloop
endfacet
facet normal 1.0 -3.4531188004188315e-12 4.480150819199255e-12
  outer loop
    vertex 621.3588876617099 437.37398834804634 45.41338167905785
    vertex 621.3588876617214 437.3626548353676 42.84816704699684
    vertex 621.3588876617237 437.4239883480475 42.382292765812316
  endloop
endfacet
facet normal 1.0 -3.4531188004188315e-12 4.480150819199255e-12
  outer loop
    vertex 621.3588876617099 437.37398834804634 45.41338167905785
    vertex 621.3588876617237 437.4239883480475 42.382292765812316
    vertex 621.3588876617149 438.09886208219933 44.85716649996551
  endloop
endfacet
endsolid UltiBot
