%TF.GenerationSoftware,KiCad,Pcbnew,7.0.7*%
%TF.CreationDate,2023-09-01T18:27:54+02:00*%
%TF.ProjectId,UltiBot,556c7469-426f-4742-9e6b-696361645f70,rev?*%
%TF.SameCoordinates,PX60e4b00PY697e1a8*%
%TF.FileFunction,Profile,NP*%
%FSLAX46Y46*%
G04 Gerber Fmt 4.6, Leading zero omitted, Abs format (unit mm)*
G04 Created by KiCad (PCBNEW 7.0.7) date 2023-09-01 18:27:54*
%MOMM*%
%LPD*%
G01*
G04 APERTURE LIST*
%TA.AperFunction,Profile*%
%ADD10C,0.100000*%
%TD*%
G04 APERTURE END LIST*
D10*
X27269478Y11110668D02*
X27019424Y11031079D01*
X52753358Y11172798D02*
X52481254Y11104452D01*
X20735642Y7500014D02*
X20990256Y7858290D01*
X36151055Y200669D02*
X36401109Y280258D01*
X36400118Y11031079D02*
X36150527Y11110668D01*
X21682783Y2802721D02*
X21341201Y3079329D01*
X20527940Y7112651D02*
X20735642Y7500014D01*
X66949527Y8502400D02*
X67291109Y8225792D01*
X86916696Y16180909D02*
X87001882Y16827957D01*
X68073158Y7172761D02*
X68239232Y6765810D01*
X86666945Y15577957D02*
X86916696Y16180909D01*
X46552977Y3073113D02*
X46248757Y3390351D01*
X47667755Y2381921D02*
X47268115Y2564890D01*
X67896667Y3805107D02*
X67642054Y3446831D01*
X45431442Y5393119D02*
X45426839Y5832628D01*
X52481782Y194453D02*
X52753396Y126107D01*
X53028969Y11225241D02*
X52753358Y11172798D01*
X2500075Y14327957D02*
X30480000Y14325600D01*
X85148929Y14413142D02*
X85751882Y14662893D01*
X45426839Y5832628D02*
X45477358Y6269249D01*
X21992104Y8704917D02*
X22387824Y8896216D01*
X20279318Y4963868D02*
X20219666Y5399335D01*
X68417246Y5466277D02*
X68366727Y5029656D01*
X41797054Y2845807D02*
X41428430Y2606420D01*
X335012Y15577956D02*
X732308Y15060190D01*
X35343005Y46913D02*
X35603340Y79880D01*
X52753396Y126107D02*
X53028523Y73664D01*
X42645614Y7561905D02*
X42861382Y7178977D01*
X86269648Y61584766D02*
X85751882Y61982063D01*
X52481254Y11104452D02*
X52231200Y11024863D01*
X61090689Y11172798D02*
X60815563Y11225241D01*
X61822452Y10939452D02*
X61611894Y11024863D01*
X45947418Y7493798D02*
X46202032Y7852074D01*
X20774920Y3749432D02*
X20559151Y4132360D01*
X41428430Y2606420D02*
X41032709Y2415121D01*
X334936Y61067000D02*
X85185Y60464047D01*
X68412643Y5905786D02*
X68417246Y5466277D01*
X85751882Y14662893D02*
X86269649Y15060190D01*
X84501882Y14327957D02*
X85148929Y14413142D01*
X53289304Y11258208D02*
X53028969Y11225241D01*
X20215063Y5838844D02*
X20265582Y6275465D01*
X30480000Y11277600D02*
X28077528Y11264424D01*
X36612072Y365669D02*
X41032709Y2415121D01*
X58420000Y14351000D02*
X58420000Y11328400D01*
X68239232Y6765810D02*
X68352992Y6341253D01*
X52021634Y359453D02*
X52232192Y274042D01*
X67008830Y2839591D02*
X66640206Y2600204D01*
X27020416Y280258D02*
X27270006Y200669D01*
X60555672Y11258208D02*
X58420000Y11328400D01*
X33020000Y14325600D02*
X55880000Y14351000D01*
X46894559Y2796505D02*
X46552977Y3073113D01*
X67857390Y7555689D02*
X68073158Y7172761D01*
X43141216Y6347469D02*
X43200867Y5912002D01*
X41737751Y8508616D02*
X42079333Y8232008D01*
X85261Y16180909D02*
X335012Y15577956D01*
X46202032Y7852074D02*
X46499542Y8175613D01*
X22056339Y2571106D02*
X21682783Y2802721D01*
X35603340Y79880D02*
X35878951Y132323D01*
X2500000Y62317000D02*
X1852952Y62231814D01*
X27270006Y200669D02*
X27541620Y132323D01*
X43200867Y5912002D02*
X43205470Y5472493D01*
X21623480Y8465530D02*
X21992104Y8704917D01*
X41364194Y8740231D02*
X41737751Y8508616D01*
X1852952Y62231814D02*
X1250000Y61982063D01*
X43050108Y4609026D02*
X42892593Y4198686D01*
X67344544Y3123292D02*
X67008830Y2839591D01*
X36401109Y280258D02*
X36612072Y365669D01*
X732308Y15060190D02*
X1250075Y14662893D01*
X45770927Y4126144D02*
X45604853Y4533095D01*
X61362831Y194453D02*
X61612885Y274042D01*
X20370426Y6702311D02*
X20527940Y7112651D01*
X46835256Y8459314D02*
X47203880Y8698701D01*
X85751882Y61982063D02*
X85148929Y62231814D01*
X66575970Y8734015D02*
X66949527Y8502400D01*
X85148929Y62231814D02*
X84501882Y62316999D01*
X45491094Y4957652D02*
X45431442Y5393119D01*
X55880000Y11303000D02*
X53289304Y11258208D01*
X52020238Y10939452D02*
X47599600Y8890000D01*
X20393077Y4539311D02*
X20279318Y4963868D01*
X36610676Y10945668D02*
X36400118Y11031079D01*
X45582202Y6696095D02*
X45739716Y7106435D01*
X33020000Y14325600D02*
X33020000Y11303000D01*
X87001882Y59816999D02*
X86916696Y60464047D01*
X27817193Y11231457D02*
X27541582Y11179014D01*
X20219666Y5399335D02*
X20215063Y5838844D01*
X86916696Y60464047D02*
X86666945Y61066999D01*
X0Y59817000D02*
X75Y16827956D01*
X732233Y61584767D02*
X334936Y61067000D01*
X43205470Y5472493D02*
X43154951Y5035872D01*
X40964554Y8923200D02*
X41364194Y8740231D01*
X27816747Y79880D02*
X28076638Y46913D01*
X42383553Y7914770D02*
X42645614Y7561905D01*
X30480000Y11277600D02*
X30480000Y14325600D01*
X43154951Y5035872D02*
X43050108Y4609026D01*
X35343896Y11264424D02*
X33020000Y11303000D01*
X61090727Y126107D02*
X61362831Y194453D01*
X42079333Y8232008D02*
X42383553Y7914770D01*
X52232192Y274042D02*
X52481782Y194453D01*
X47667755Y2381921D02*
X52021634Y359453D01*
X28077528Y11264424D02*
X27817193Y11231457D01*
X46248757Y3390351D02*
X45986696Y3743216D01*
X87001882Y16827957D02*
X87001882Y59816999D01*
X66176330Y8916984D02*
X66575970Y8734015D01*
X68104369Y4192470D02*
X67896667Y3805107D01*
X45477358Y6269249D02*
X45582202Y6696095D01*
X46499542Y8175613D02*
X46835256Y8459314D01*
X86269649Y15060190D02*
X86666945Y15577957D01*
X66640206Y2600204D02*
X66244485Y2408905D01*
X61612885Y274042D02*
X61823848Y359453D01*
X42430278Y3453047D02*
X42132768Y3129508D01*
X45739716Y7106435D02*
X45947418Y7493798D01*
X42892593Y4198686D02*
X42684891Y3811323D01*
X1250000Y61982063D02*
X732233Y61584767D01*
X60554781Y40697D02*
X60815116Y73664D01*
X47203880Y8698701D02*
X47599600Y8890000D01*
X22455979Y2388137D02*
X22056339Y2571106D01*
X68352992Y6341253D02*
X68412643Y5905786D01*
X21287766Y8181829D02*
X21623480Y8465530D01*
X22455979Y2388137D02*
X26809858Y365669D01*
X67642054Y3446831D02*
X67344544Y3123292D01*
X26808462Y10945668D02*
X22387824Y8896216D01*
X35878913Y11179014D02*
X35603787Y11231457D01*
X60815563Y11225241D02*
X60555672Y11258208D01*
X27541620Y132323D02*
X27816747Y79880D01*
X67595329Y7908554D02*
X67857390Y7555689D01*
X85185Y60464047D02*
X0Y59817000D01*
X68366727Y5029656D02*
X68261884Y4602810D01*
X55880000Y11303000D02*
X55880000Y14351000D01*
X84501882Y62316999D02*
X2500000Y62317000D01*
X47268115Y2564890D02*
X46894559Y2796505D01*
X20265582Y6275465D02*
X20370426Y6702311D01*
X45604853Y4533095D02*
X45491094Y4957652D01*
X27019424Y11031079D02*
X26808462Y10945668D01*
X61823848Y359453D02*
X66244485Y2408905D01*
X35878951Y132323D02*
X36151055Y200669D01*
X67291109Y8225792D02*
X67595329Y7908554D01*
X61611894Y11024863D02*
X61362303Y11104452D01*
X21036981Y3396567D02*
X20774920Y3749432D01*
X42684891Y3811323D02*
X42430278Y3453047D01*
X42132768Y3129508D02*
X41797054Y2845807D01*
X45986696Y3743216D02*
X45770927Y4126144D01*
X42861382Y7178977D02*
X43027456Y6772026D01*
X20559151Y4132360D02*
X20393077Y4539311D01*
X40964554Y8923200D02*
X36610676Y10945668D01*
X26809858Y365669D02*
X27020416Y280258D01*
X1250075Y14662893D02*
X1853028Y14413142D01*
X68261884Y4602810D02*
X68104369Y4192470D01*
X36150527Y11110668D02*
X35878913Y11179014D01*
X21341201Y3079329D02*
X21036981Y3396567D01*
X84501882Y14327957D02*
X58420000Y14351000D01*
X52231200Y11024863D02*
X52020238Y10939452D01*
X86666945Y61066999D02*
X86269648Y61584766D01*
X75Y16827956D02*
X85261Y16180909D01*
X53028523Y73664D02*
X53288414Y40697D01*
X66176330Y8916984D02*
X61822452Y10939452D01*
X61362303Y11104452D02*
X61090689Y11172798D01*
X28076638Y46913D02*
X35343005Y46913D01*
X43027456Y6772026D02*
X43141216Y6347469D01*
X35603787Y11231457D02*
X35343896Y11264424D01*
X27541582Y11179014D02*
X27269478Y11110668D01*
X20990256Y7858290D02*
X21287766Y8181829D01*
X1853028Y14413142D02*
X2500075Y14327957D01*
X53288414Y40697D02*
X60554781Y40697D01*
X60815116Y73664D02*
X61090727Y126107D01*
M02*
