M48
; DRILL file {KiCad 7.0.7} date Fri Sep  1 18:28:00 2023
; FORMAT={-:-/ absolute / inch / decimal}
; #@! TF.CreationDate,2023-09-01T18:28:00+02:00
; #@! TF.GenerationSoftware,Kicad,Pcbnew,7.0.7
; #@! TF.FileFunction,Plated,1,2,PTH
FMAT,2
INCH
; #@! TA.AperFunction,Plated,PTH,ViaDrill
T1C0.0118
; #@! TA.AperFunction,Plated,PTH,ViaDrill
T2C0.0157
; #@! TA.AperFunction,Plated,PTH,ViaDrill
T3C0.0197
; #@! TA.AperFunction,Plated,PTH,ComponentDrill
T4C0.0236
; #@! TA.AperFunction,Plated,PTH,ComponentDrill
T5C0.0374
; #@! TA.AperFunction,Plated,PTH,ComponentDrill
T6C0.0394
; #@! TA.AperFunction,Plated,PTH,ComponentDrill
T7C0.0433
%
G90
G05
T1
X0.28Y2.3356
X0.37Y2.125
X0.3932Y0.92
X0.459Y0.9384
X0.485Y1.635
X0.5Y2.16
X0.6685Y2.0235
X0.676Y2.106
X0.705Y2.3456
X0.72Y1.845
X0.7426Y1.82
X0.7652Y1.79
X0.785Y1.765
X0.8007Y1.735
X0.801Y2.204
X0.825Y1.71
X0.86Y2.205
X0.865Y1.72
X0.905Y2.29
X0.99Y1.94
X1.135Y2.3406
X1.3Y0.995
X1.32Y2.1424
X1.38Y0.995
X1.3835Y1.9574
X1.4Y2.1424
X1.415Y1.9348
X1.42Y1.98
X1.425Y1.84
X1.445Y1.915
X1.4476Y1.8174
X1.46Y0.995
X1.485Y1.79
X1.54Y0.995
X1.555Y2.25
X1.56Y2.3181
X1.5988Y1.8157
X1.6Y1.36
X1.62Y0.995
X1.63Y1.95
X1.68Y1.995
X1.6855Y2.1676
X1.6928Y2.255
X1.6997Y1.7727
X1.705Y1.975
X1.725Y1.8574
X1.7476Y1.495
X1.7671Y2.115
X1.79Y1.915
X1.7915Y1.4965
X1.795Y1.465
X1.795Y1.425
X1.82Y1.85
X1.825Y1.67
X1.83Y1.3924
X1.8353Y1.4376
X1.865Y1.3924
X1.88Y2.3156
X1.905Y1.5393
X1.9101Y1.6051
X1.9326Y1.5826
X1.935Y0.99
X1.9439Y1.5393
X1.96Y0.7641
X1.965Y1.565
X1.97Y2.0209
X1.98Y0.855
X1.99Y1.54
X1.9907Y1.3924
X2.0126Y1.5645
X2.015Y2.13
X2.015Y0.995
X2.035Y2.0
X2.04Y2.0576
X2.05Y1.77
X2.06Y1.625
X2.095Y1.81
X2.095Y0.995
X2.12Y2.0576
X2.14Y1.8626
X2.175Y1.86
X2.175Y0.995
X2.2Y2.02
X2.225Y1.765
X2.255Y0.995
X2.2626Y2.295
X2.275Y1.5215
X2.3Y2.3356
X2.3375Y2.2375
X2.38Y1.965
X2.435Y1.495
X2.545Y2.435
X2.72Y2.3356
X2.79Y2.32
X2.8655Y0.875
X2.8689Y1.47
X2.875Y1.0176
X2.89Y0.83
X2.8915Y1.4335
X2.91Y1.63
X2.92Y0.995
X2.929Y1.446
X2.935Y2.31
X2.9352Y1.6002
X2.965Y1.58
X2.965Y1.45
X2.975Y1.42
X2.9876Y1.7787
X3.0009Y1.12
X3.005Y1.375
X3.0121Y0.82
X3.0545Y0.875
X3.06Y1.63
X3.09Y2.295
X3.105Y1.445
X3.13Y0.755
X3.14Y2.3456
X3.14Y1.63
X3.14Y1.45
X3.15Y1.9269
X3.15Y1.855
X3.2124Y1.63
X3.215Y1.37
X3.3Y1.9913
T2
X1.1211Y0.3946
X1.1211Y0.1346
X1.2111Y0.2472
X1.3308Y0.2986
X1.3311Y0.2272
X1.3711Y0.3972
X1.3711Y0.1472
X1.4311Y0.0672
X2.1151Y0.3946
X2.1151Y0.1346
X2.2051Y0.2472
X2.3248Y0.2986
X2.3251Y0.2272
X2.3651Y0.3972
X2.3651Y0.1472
X2.4251Y0.0672
T3
X2.34Y0.855
T5
X0.1Y1.2303
X0.1Y1.1319
X0.1Y1.0334
X0.1Y0.935
X3.33Y1.2219
X3.33Y1.1234
X3.33Y1.025
X3.33Y0.9266
T6
X0.051Y2.015
X0.051Y1.4048
X0.065Y2.14
X0.165Y2.14
X0.265Y2.14
X0.376Y1.228
X0.376Y1.1492
X0.376Y1.0705
X0.39Y2.38
X0.425Y2.015
X0.425Y1.4048
X0.49Y2.38
X0.5532Y1.228
X0.5532Y1.1492
X0.5532Y1.0705
X0.59Y2.38
X0.775Y1.305
X0.775Y0.705
X0.82Y2.385
X0.875Y1.305
X0.875Y0.705
X0.92Y2.385
X0.9329Y1.66
X0.9329Y1.56
X0.975Y1.305
X0.975Y0.705
X0.99Y2.105
X0.9929Y2.255
X1.02Y2.385
X1.0329Y1.66
X1.0329Y1.56
X1.075Y1.305
X1.075Y0.705
X1.09Y2.105
X1.0929Y2.255
X1.1329Y1.66
X1.1329Y1.56
X1.175Y1.305
X1.175Y0.705
X1.19Y2.105
X1.1929Y2.255
X1.2329Y1.66
X1.2329Y1.56
X1.25Y2.375
X1.275Y1.305
X1.275Y0.705
X1.3329Y1.66
X1.3329Y1.56
X1.35Y2.375
X1.375Y1.305
X1.375Y0.705
X1.45Y2.375
X1.475Y1.305
X1.475Y0.705
X1.575Y1.305
X1.575Y0.705
X1.675Y1.305
X1.675Y0.705
X1.775Y1.305
X1.775Y0.705
X1.875Y1.305
X1.875Y0.705
X1.975Y1.305
X1.975Y0.705
X1.9894Y2.375
X2.075Y1.305
X2.075Y0.705
X2.0894Y2.375
X2.175Y1.305
X2.175Y0.705
X2.1894Y2.375
X2.275Y1.305
X2.275Y0.705
X2.3329Y1.655
X2.3329Y1.555
X2.375Y1.305
X2.375Y0.705
X2.3929Y2.25
X2.395Y2.095
X2.41Y2.375
X2.4329Y1.655
X2.4329Y1.555
X2.475Y1.305
X2.475Y0.705
X2.4929Y2.25
X2.495Y2.095
X2.51Y2.375
X2.5219Y1.155
X2.5219Y1.055
X2.5219Y0.955
X2.5219Y0.855
X2.5329Y1.655
X2.5329Y1.555
X2.575Y1.305
X2.575Y0.705
X2.5929Y2.25
X2.595Y2.095
X2.61Y2.375
X2.6329Y1.655
X2.6329Y1.555
X2.675Y1.305
X2.675Y0.705
X2.7329Y1.655
X2.7329Y1.555
X2.83Y2.385
X2.93Y2.385
X3.03Y2.385
X3.155Y2.135
X3.255Y2.135
X3.355Y2.135
T7
X0.6479Y1.905
X0.6479Y1.71
X2.0479Y1.9
X2.0479Y1.705
T4
G00X0.2949Y0.8747
M15
G01X0.2949Y0.8314
M16
G05
G00X0.2949Y0.7003
M15
G01X0.2949Y0.6767
M16
G05
G00X0.6351Y0.8747
M15
G01X0.6351Y0.8314
M16
G05
G00X0.6351Y0.7003
M15
G01X0.6351Y0.6767
M16
G05
G00X2.7899Y0.8715
M15
G01X2.7899Y0.8281
M16
G05
G00X2.7899Y0.697
M15
G01X2.7899Y0.6734
M16
G05
G00X3.1301Y0.8715
M15
G01X3.1301Y0.8281
M16
G05
G00X3.1301Y0.697
M15
G01X3.1301Y0.6734
M16
G05
T0
M30
